<svg width="20" height="20" viewBox="0 0 20 20" fill="none" xmlns="http://www.w3.org/2000/svg">
<path d="M9.16895 2.50098C10.0529 2.50098 10.9013 2.85154 11.5264 3.47656C12.1515 4.10168 12.5029 4.94993 12.5029 5.83398V16.667H15.0029V14.8555C14.6527 14.7327 14.3299 14.5349 14.0625 14.2676C13.5937 13.7987 13.3311 13.1621 13.3311 12.499V10.833C13.3311 10.17 13.5937 9.53329 14.0625 9.06445C14.5313 8.59561 15.168 8.33301 15.8311 8.33301C16.4939 8.33309 17.1299 8.59579 17.5986 9.06445C18.0675 9.53329 18.3311 10.17 18.3311 10.833V12.499C18.3311 13.1621 18.0675 13.7987 17.5986 14.2676C17.334 14.5321 17.0149 14.7275 16.6689 14.8506V16.667H17.5C17.9602 16.667 18.333 17.0398 18.333 17.5C18.333 17.9602 17.9602 18.333 17.5 18.333H11.6904C11.6833 18.3332 11.6761 18.334 11.6689 18.334C11.6618 18.334 11.6546 18.3332 11.6475 18.333H3.35742C3.35028 18.3332 3.34313 18.334 3.33594 18.334C3.32875 18.334 3.3216 18.3332 3.31445 18.333H2.5C2.03976 18.333 1.66699 17.9602 1.66699 17.5C1.66699 17.0398 2.03976 16.667 2.5 16.667H2.50293V5.83398C2.50293 4.94993 2.85339 4.10168 3.47852 3.47656C4.10364 2.85144 4.95188 2.50098 5.83594 2.50098H9.16895ZM5.83594 4.16699C5.39391 4.16699 4.96979 4.34271 4.65723 4.65527C4.34467 4.96783 4.16895 5.39196 4.16895 5.83398V16.667H6.66699V14.166C6.66699 13.7058 7.03976 13.333 7.5 13.333C7.96024 13.333 8.33301 13.7058 8.33301 14.166V16.667H10.8359V5.83398C10.8359 5.39196 10.6602 4.96783 10.3477 4.65527C10.0351 4.34281 9.6109 4.16699 9.16895 4.16699H5.83594ZM15.8311 9.99902C15.61 9.99902 15.3975 10.0869 15.2412 10.2432C15.0849 10.3994 14.9971 10.612 14.9971 10.833V12.499C14.9971 12.72 15.0849 12.9326 15.2412 13.0889C15.3975 13.2451 15.61 13.333 15.8311 13.333C16.0519 13.3329 16.2637 13.245 16.4199 13.0889C16.5762 12.9326 16.6641 12.72 16.6641 12.499V10.833C16.6641 10.612 16.5762 10.3994 16.4199 10.2432C16.2637 10.0871 16.0519 9.99911 15.8311 9.99902ZM8.33105 10.001C8.79114 10.0012 9.16406 10.3739 9.16406 10.834C9.16406 11.2941 8.79114 11.6668 8.33105 11.667H6.66406C6.20382 11.667 5.83105 11.2942 5.83105 10.834C5.83105 10.3737 6.20382 10.001 6.66406 10.001H8.33105ZM8.33105 6.66699C8.79114 6.66717 9.16406 7.03987 9.16406 7.5C9.16406 7.96013 8.79114 8.33283 8.33105 8.33301H6.66406C6.20382 8.33301 5.83105 7.96024 5.83105 7.5C5.83105 7.03976 6.20382 6.66699 6.66406 6.66699H8.33105Z" fill="black" fill-opacity="0.5"/>
</svg>
