<svg width="16" height="16" viewBox="0 0 16 16" fill="none" xmlns="http://www.w3.org/2000/svg">
<path d="M3.14697 10.7041C3.14697 11.0381 3.27964 11.3584 3.5158 11.5945C3.75196 11.8307 4.07226 11.9633 4.40623 11.9633C4.74021 11.9633 5.06051 11.8307 5.29666 11.5945C5.53282 11.3584 5.66549 11.0381 5.66549 10.7041C5.66549 10.3701 5.53282 10.0498 5.29666 9.81365C5.06051 9.5775 4.74021 9.44482 4.40623 9.44482C4.07226 9.44482 3.75196 9.5775 3.5158 9.81365C3.27964 10.0498 3.14697 10.3701 3.14697 10.7041Z" stroke="black" stroke-width="1.25926" stroke-linecap="round" stroke-linejoin="round"/>
<path d="M9.44458 10.7041C9.44458 11.0381 9.57725 11.3584 9.81341 11.5945C10.0496 11.8307 10.3699 11.9633 10.7038 11.9633C11.0378 11.9633 11.3581 11.8307 11.5943 11.5945C11.8304 11.3584 11.9631 11.0381 11.9631 10.7041C11.9631 10.3701 11.8304 10.0498 11.5943 9.81365C11.3581 9.5775 11.0378 9.44482 10.7038 9.44482C10.3699 9.44482 10.0496 9.5775 9.81341 9.81365C9.57725 10.0498 9.44458 10.3701 9.44458 10.7041Z" stroke="black" stroke-width="1.25926" stroke-linecap="round" stroke-linejoin="round"/>
<path d="M3.14818 10.7038H1.88892V6.92598M1.88892 6.92598L3.14818 3.77783H8.81484L11.3334 6.92598M1.88892 6.92598H11.3334M11.3334 6.92598H11.963C12.297 6.92598 12.6173 7.05865 12.8534 7.29481C13.0896 7.53097 13.2222 7.85126 13.2222 8.18524V10.7038H11.963M9.44447 10.7038H5.66669M7.55558 6.92598V3.77783" stroke="black" stroke-width="1.25926" stroke-linecap="round" stroke-linejoin="round"/>
</svg>
