<svg width="20" height="20" viewBox="0 0 20 20" fill="none" xmlns="http://www.w3.org/2000/svg">
<path d="M9.69043 3.39355C9.88904 3.31415 10.111 3.31415 10.3096 3.39355L18.6436 6.72656C18.9595 6.85323 19.1669 7.15961 19.167 7.5V12.5C19.1669 12.9599 18.7939 13.3337 18.334 13.334C17.8738 13.334 17.5001 12.9601 17.5 12.5V8.73145L15.833 9.39746V13.333C15.833 14.4715 14.949 15.3252 13.9082 15.8457C12.8283 16.3857 11.4221 16.666 10 16.666C8.5779 16.666 7.17173 16.3857 6.0918 15.8457C5.05096 15.3252 4.16699 14.4715 4.16699 13.333V9.39746L1.35742 8.27441C1.04112 8.14789 0.834089 7.84065 0.833984 7.5C0.834116 7.1594 1.04117 6.85309 1.35742 6.72656L9.69043 3.39355ZM10.3096 11.6074C10.1111 11.6868 9.88895 11.6867 9.69043 11.6074L5.83301 10.0645V13.333C5.83301 13.5205 6.00272 13.9383 6.83691 14.3555C7.63235 14.7532 8.76994 15 10 15C11.2301 15 12.3677 14.7532 13.1631 14.3555C13.9973 13.9383 14.167 13.5205 14.167 13.333V10.0645L10.3096 11.6074ZM3.91113 7.5L10 9.93555L16.0889 7.5L10 5.06348L3.91113 7.5Z" fill="black"/>
</svg>
