<svg width="20" height="20" viewBox="0 0 20 20" fill="none" xmlns="http://www.w3.org/2000/svg">
<path d="M9.16699 2.50024C9.62701 2.50038 9.99982 2.87325 10 3.33325V5.83325C9.99994 6.71714 9.64937 7.56562 9.02441 8.19067C8.59978 8.61531 8.07171 8.91317 7.5 9.06079V17.5002C7.49988 17.9603 7.12704 18.3331 6.66699 18.3333C6.20683 18.3333 5.8341 17.9604 5.83398 17.5002V9.06079C5.26231 8.91321 4.73421 8.61523 4.30957 8.19067C3.6846 7.56562 3.33404 6.71715 3.33398 5.83325V3.33325C3.33416 2.87316 3.70686 2.50024 4.16699 2.50024C4.62701 2.50038 4.99982 2.87325 5 3.33325V5.83325C5.00006 6.27512 5.17587 6.69947 5.48828 7.01196C5.59191 7.11555 5.70928 7.20258 5.83398 7.27466V3.33325C5.83416 2.87316 6.20686 2.50024 6.66699 2.50024C7.12701 2.50038 7.49982 2.87325 7.5 3.33325V7.27466C7.62476 7.20254 7.74204 7.11563 7.8457 7.01196C8.1581 6.69947 8.33393 6.27512 8.33398 5.83325V3.33325C8.33416 2.87316 8.70686 2.50024 9.16699 2.50024ZM15.2588 1.89771C15.5 1.6676 15.8546 1.60352 16.1611 1.73462C16.4675 1.86592 16.667 2.16687 16.667 2.50024V17.5002C16.6669 17.9602 16.2939 18.3329 15.834 18.3333H15C14.54 18.3331 14.1671 17.9603 14.167 17.5002V15.0002C14.167 14.5401 14.5399 14.1674 15 14.1672V13.3333H11.667C11.2089 13.3333 10.837 12.9632 10.834 12.5051C10.8243 10.9601 10.8591 9.29987 11.4473 7.52368C12.0395 5.73518 13.1705 3.8897 15.2588 1.89771ZM15 4.60767C13.9796 5.84338 13.383 6.97913 13.0293 8.04712C12.6237 9.27207 12.5226 10.4481 12.5039 11.6672H15V4.60767Z" fill="black"/>
</svg>
