<svg width="20" height="20" viewBox="0 0 20 20" fill="none" xmlns="http://www.w3.org/2000/svg">
<path d="M15.9141 1.6709C16.1841 1.69715 16.4274 1.85423 16.5615 2.0957L18.6455 5.8457C18.8258 6.1708 18.7687 6.5759 18.5059 6.83887L17.2559 8.08887C17.0022 8.3425 16.6148 8.40553 16.2939 8.24512L15.3721 7.78418L15.0459 8.43652L16.375 14.082C16.4339 14.0348 16.4947 13.989 16.5537 13.9404C16.909 13.6479 17.434 13.6994 17.7266 14.0547C18.0187 14.4099 17.9684 14.9351 17.6133 15.2275C15.1478 17.2579 12.6051 18.3339 10 18.334C7.39509 18.3339 4.85303 17.2576 2.3877 15.2275C2.03262 14.9351 1.9814 14.4099 2.27344 14.0547C2.5659 13.6996 3.09103 13.6482 3.44629 13.9404C3.49698 13.9822 3.54899 14.0218 3.59961 14.0625L4.80371 8.34473C4.43394 8.38859 4.08723 8.55535 3.82129 8.82129C3.50873 9.13385 3.33301 9.55797 3.33301 10C3.33301 10.4602 2.96024 10.833 2.5 10.833C2.03976 10.833 1.66699 10.4602 1.66699 10C1.66699 9.11595 2.01746 8.2677 2.64258 7.64258C3.2677 7.01746 4.11595 6.66699 5 6.66699H9.41211C9.7765 5.64679 10.2241 4.5247 11.0312 3.61816C12.0374 2.48815 13.5163 1.76544 15.7979 1.66699L15.9141 1.6709ZM7.7002 16.3252C8.47548 16.5538 9.24164 16.6679 10 16.668C10.7582 16.6679 11.5238 16.5537 12.2988 16.3252L11.1025 13.333H8.89844L7.7002 16.3252ZM15.3623 3.36816C13.7578 3.5242 12.8647 4.0659 12.2764 4.72656C11.58 5.50869 11.2219 6.54047 10.7861 7.77734C10.6686 8.11056 10.3534 8.33301 10 8.33301H6.50977L5.08008 15.1221C5.43818 15.3453 5.79507 15.542 6.14941 15.7158L7.55957 12.1904L7.61523 12.0771C7.76332 11.8255 8.03582 11.667 8.33398 11.667H11.667L11.793 11.6758C12.0815 11.7199 12.3297 11.9138 12.4404 12.1904L13.8506 15.7148C14.2014 15.5428 14.5547 15.3485 14.9092 15.1279L13.3555 8.52441C13.3109 8.33479 13.3339 8.13521 13.4209 7.96094L14.2549 6.29395L14.2969 6.21973C14.523 5.86304 14.9872 5.72796 15.373 5.9209L16.502 6.48535L16.8828 6.10449L15.3623 3.36816Z" fill="black" fill-opacity="0.5"/>
</svg>
