<svg width="24" height="24" viewBox="0 0 24 24" fill="none" xmlns="http://www.w3.org/2000/svg">
<path d="M11.3691 2.22461C11.7619 1.90426 12.3409 1.92685 12.707 2.29297L21.707 11.293C21.9929 11.579 22.0786 12.0092 21.9238 12.3828C21.769 12.7563 21.4043 13 21 13H20V19C19.9999 19.7956 19.6836 20.5585 19.1211 21.1211C18.5585 21.6836 17.7956 22 17 22H7C6.20441 22 5.4415 21.6836 4.87891 21.1211C4.31635 20.5585 4.00006 19.7956 4 19V13H3C2.59566 13 2.23103 12.7563 2.07617 12.3828C1.92141 12.0092 2.00705 11.579 2.29297 11.293L11.293 2.29297L11.3691 2.22461ZM5.34961 11.0635C5.35057 11.0638 5.35158 11.0641 5.35254 11.0645C5.44077 11.0977 5.52236 11.1437 5.59668 11.1992C5.60431 11.2049 5.61168 11.2109 5.61914 11.2168C5.65268 11.2434 5.68499 11.2712 5.71484 11.3018C5.72129 11.3084 5.72713 11.3155 5.7334 11.3223C5.76041 11.3515 5.78617 11.3818 5.80957 11.4141C5.81286 11.4186 5.81612 11.4231 5.81934 11.4277C5.84325 11.4619 5.86423 11.498 5.88379 11.5352C5.89126 11.5493 5.89847 11.5636 5.90527 11.5781C5.91851 11.6065 5.93083 11.6353 5.94141 11.665C5.94524 11.6758 5.94966 11.6863 5.95312 11.6973C5.96677 11.7403 5.97661 11.7847 5.98438 11.8301C5.9857 11.8378 5.98616 11.8457 5.9873 11.8535C5.99433 11.9013 6 11.9502 6 12V19L6.00488 19.0986C6.02762 19.3275 6.12888 19.5429 6.29297 19.707C6.48049 19.8945 6.73485 20 7 20H8V15C8 14.2044 8.31636 13.4415 8.87891 12.8789C9.44151 12.3163 10.2043 12 11 12H13C13.7956 12 14.5585 12.3163 15.1211 12.8789C15.6836 13.4415 16 14.2044 16 15V20H17C17.2652 20 17.5195 19.8945 17.707 19.707C17.8945 19.5196 17.9999 19.2651 18 19V12C18 11.9503 18.0047 11.9013 18.0117 11.8535C18.0129 11.8457 18.0133 11.8378 18.0146 11.8301C18.0224 11.7845 18.0321 11.7396 18.0459 11.6963C18.0477 11.6906 18.0508 11.6853 18.0527 11.6797C18.0659 11.6407 18.0819 11.6031 18.0996 11.5664C18.1037 11.558 18.107 11.5493 18.1113 11.541C18.1317 11.5017 18.1545 11.4638 18.1797 11.4277C18.1829 11.4231 18.1862 11.4186 18.1895 11.4141C18.2128 11.3818 18.2387 11.3515 18.2656 11.3223C18.2697 11.3179 18.2732 11.3129 18.2773 11.3086L18.293 11.293C18.3189 11.267 18.3464 11.2427 18.375 11.2197C18.3793 11.2163 18.3833 11.2124 18.3877 11.209L18.4404 11.1709C18.5034 11.1283 18.5715 11.0929 18.6436 11.0654C18.6455 11.0647 18.6475 11.0642 18.6494 11.0635L12 4.41406L5.34961 11.0635ZM11 14C10.7348 14 10.4805 14.1054 10.293 14.293C10.1055 14.4805 10 14.7348 10 15V20H14V15C14 14.7348 13.8945 14.4805 13.707 14.293C13.5195 14.1054 13.2652 14 13 14H11Z" fill="black"/>
</svg>
