<svg width="20" height="20" viewBox="0 0 20 20" fill="none" xmlns="http://www.w3.org/2000/svg">
<path d="M14.3545 2.80688C14.6454 2.45042 15.1698 2.39705 15.5264 2.68774C15.8829 2.97859 15.9362 3.50298 15.6455 3.85962L11.0742 9.46216L12.5391 11.2581C13.0322 10.9824 13.592 10.8333 14.167 10.8333C15.0509 10.8333 15.8994 11.1838 16.5244 11.8088C17.1494 12.4339 17.4999 13.2824 17.5 14.1663C17.5 15.0502 17.1493 15.8986 16.5244 16.5237C15.8994 17.1487 15.051 17.4992 14.167 17.4993C13.2829 17.4993 12.4347 17.1488 11.8096 16.5237C11.1845 15.8986 10.834 15.0503 10.834 14.1663C10.8341 13.5422 11.0083 12.9358 11.3311 12.4133L9.99902 10.7805L8.66797 12.4133C8.76202 12.5655 8.84434 12.725 8.91309 12.8909C9.08045 13.295 9.16596 13.7288 9.16602 14.1663C9.16602 14.6038 9.08042 15.0374 8.91309 15.4417C8.74559 15.846 8.49991 16.2142 8.19043 16.5237C7.8809 16.8332 7.51282 17.0788 7.1084 17.2463C6.7041 17.4137 6.2706 17.4993 5.83301 17.4993C5.39548 17.4992 4.96186 17.4137 4.55762 17.2463C4.15334 17.0788 3.78502 16.8331 3.47559 16.5237C3.16622 16.2142 2.92038 15.8459 2.75293 15.4417C2.58564 15.0375 2.5 14.6037 2.5 14.1663C2.50006 13.7288 2.58557 13.295 2.75293 12.8909C2.92044 12.4866 3.16613 12.1183 3.47559 11.8088C3.78508 11.4994 4.15326 11.2537 4.55762 11.0862C4.96186 10.9188 5.39548 10.8333 5.83301 10.8333C6.27049 10.8333 6.70419 10.9189 7.1084 11.0862C7.22911 11.1362 7.34631 11.1945 7.45996 11.2581L8.92383 9.46216L4.35449 3.85962C4.06379 3.50298 4.11706 2.97859 4.47363 2.68774C4.83023 2.39705 5.35464 2.45042 5.64551 2.80688L9.99902 8.14478L14.3545 2.80688ZM5.83301 12.4993C5.61428 12.4993 5.3974 12.5425 5.19531 12.6262C4.99317 12.71 4.80903 12.8328 4.6543 12.9875C4.49961 13.1422 4.37672 13.3265 4.29297 13.5286C4.20932 13.7306 4.16607 13.9476 4.16602 14.1663C4.16602 14.3849 4.20939 14.6019 4.29297 14.804C4.37666 15.006 4.4997 15.1903 4.6543 15.345C4.80897 15.4996 4.99325 15.6225 5.19531 15.7063C5.3974 15.79 5.61429 15.8332 5.83301 15.8333C6.0518 15.8333 6.26856 15.79 6.4707 15.7063C6.67291 15.6225 6.85695 15.4997 7.01172 15.345C7.16643 15.1902 7.28931 15.0061 7.37305 14.804C7.45668 14.6019 7.5 14.385 7.5 14.1663C7.49994 13.9476 7.4567 13.7306 7.37305 13.5286C7.28929 13.3265 7.16636 13.1422 7.01172 12.9875C6.85703 12.8329 6.67276 12.7099 6.4707 12.6262C6.26865 12.5426 6.05168 12.4993 5.83301 12.4993ZM14.167 12.4993C13.7251 12.4993 13.3008 12.6752 12.9883 12.9875C12.6758 13.3 12.5001 13.7244 12.5 14.1663C12.5 14.6082 12.6758 15.0324 12.9883 15.345C13.3008 15.6575 13.725 15.8333 14.167 15.8333C14.6089 15.8332 15.0332 15.6575 15.3457 15.345C15.658 15.0324 15.834 14.6081 15.834 14.1663C15.8339 13.7244 15.6582 13.3 15.3457 12.9875C15.0332 12.6751 14.6089 12.4993 14.167 12.4993Z" fill="black"/>
</svg>
