<svg width="24" height="24" viewBox="0 0 24 24" fill="none" xmlns="http://www.w3.org/2000/svg">
<path d="M12 1.5C17.7991 1.5 22.5 6.20085 22.5 12C22.5 14.7848 21.3938 17.4555 19.4246 19.4246C17.4555 21.3938 14.7848 22.5 12 22.5C9.21523 22.5 6.54451 21.3938 4.57538 19.4246C2.60625 17.4555 1.5 14.7848 1.5 12C1.5 6.20085 6.20085 1.5 12 1.5ZM14.1 6.75C13.3281 6.74987 12.5831 7.03317 12.0063 7.5461C11.4294 8.05903 11.0611 8.76589 10.971 9.5325L10.9552 9.7152L10.95 9.9L10.9552 10.0848C10.9752 10.4197 11.0466 10.74 11.1621 11.0382L11.2566 11.2576L7.5816 14.9326L7.4955 15.0313C7.35263 15.2155 7.27509 15.4419 7.27509 15.675C7.27509 15.9081 7.35263 16.1345 7.4955 16.3187L7.58265 16.4173L9.15765 17.9923L9.25635 18.0795C9.44049 18.2224 9.66693 18.2999 9.9 18.2999C10.1331 18.2999 10.3595 18.2224 10.5436 18.0795L10.6423 17.9923L10.7295 17.8937C10.8724 17.7095 10.9499 17.4831 10.9499 17.25C10.9499 17.0169 10.8724 16.7905 10.7295 16.6063L10.6423 16.5076L9.81075 15.675L10.425 15.0607L11.2576 15.8923L11.3563 15.9795C11.5584 16.1361 11.8106 16.2136 12.0657 16.1975C12.3208 16.1814 12.5613 16.0728 12.7421 15.8921C12.9228 15.7113 13.0314 15.4708 13.0475 15.2157C13.0636 14.9606 12.9861 14.7084 12.8295 14.5063L12.7423 14.4076L11.9107 13.575L12.7423 12.7434C13.169 12.9468 13.6359 13.0516 14.1085 13.05C14.5811 13.0484 15.0473 12.9405 15.4725 12.7342C15.8978 12.528 16.2712 12.2287 16.565 11.8585C16.8589 11.4884 17.0657 11.0569 17.1701 10.5959C17.2745 10.135 17.2739 9.65646 17.1682 9.1958C17.0625 8.73514 16.8546 8.30417 16.5597 7.93481C16.2649 7.56544 15.8907 7.26716 15.4649 7.06207C15.0391 6.85697 14.5726 6.75031 14.1 6.75ZM14.1 8.85C14.3785 8.85 14.6455 8.96062 14.8425 9.15754C15.0394 9.35445 15.15 9.62152 15.15 9.9C15.15 10.1785 15.0394 10.4455 14.8425 10.6425C14.6455 10.8394 14.3785 10.95 14.1 10.95C13.8215 10.95 13.5545 10.8394 13.3575 10.6425C13.1606 10.4455 13.05 10.1785 13.05 9.9C13.05 9.62152 13.1606 9.35445 13.3575 9.15754C13.5545 8.96062 13.8215 8.85 14.1 8.85Z" fill="#0B3A2A"/>
</svg>
