<svg width="20" height="20" viewBox="0 0 20 20" fill="none" xmlns="http://www.w3.org/2000/svg">
<path d="M11.667 2.5C12.3298 2.50006 12.9658 2.76287 13.4346 3.23145C13.9034 3.70023 14.1669 4.33705 14.167 5V5.83398H15C15.6628 5.83407 16.2988 6.09677 16.7676 6.56543C17.2364 7.03427 17.5 7.67094 17.5 8.33398V15C17.4999 15.663 17.2364 16.2998 16.7676 16.7686C16.2989 17.2371 15.6627 17.4999 15 17.5H5C4.33705 17.4999 3.70023 17.2373 3.23145 16.7686C2.76266 16.2998 2.50006 15.663 2.5 15V8.33398C2.5 7.67106 2.76276 7.03425 3.23145 6.56543C3.70023 6.09665 4.33705 5.83405 5 5.83398H5.83398V5C5.83405 4.33705 6.09665 3.70023 6.56543 3.23145C7.03425 2.76276 7.67106 2.5 8.33398 2.5H11.667ZM5 7.5C4.77907 7.50006 4.56638 7.58792 4.41016 7.74414C4.25403 7.9004 4.16602 8.11309 4.16602 8.33398V15C4.16608 15.2209 4.25393 15.4336 4.41016 15.5898C4.56638 15.7461 4.77907 15.8339 5 15.834H15C15.2207 15.8339 15.4327 15.7458 15.5889 15.5898C15.7451 15.4336 15.8329 15.2209 15.833 15V8.33398C15.833 8.11297 15.7451 7.90042 15.5889 7.74414C15.4327 7.58804 15.2208 7.50009 15 7.5H5ZM10 9.16699C10.4602 9.16699 10.833 9.53976 10.833 10V10.834H11.666C12.1263 10.834 12.5 11.2068 12.5 11.667C12.4999 12.1271 12.1262 12.5 11.666 12.5H10.833V13.333C10.833 13.7932 10.4602 14.167 10 14.167C9.53976 14.167 9.16699 13.7932 9.16699 13.333V12.5H8.33301C7.87296 12.4999 7.50013 12.127 7.5 11.667C7.5 11.2068 7.87288 10.8341 8.33301 10.834H9.16699V10C9.16699 9.53976 9.53976 9.16699 10 9.16699ZM8.33398 4.16602C8.11309 4.16602 7.9004 4.25403 7.74414 4.41016C7.58792 4.56638 7.50006 4.77907 7.5 5V5.83398H12.5V5C12.4999 4.77907 12.4121 4.56638 12.2559 4.41016C12.0997 4.25414 11.8878 4.16608 11.667 4.16602H8.33398Z" fill="black"/>
</svg>
