<svg width="24" height="24" viewBox="0 0 24 24" fill="none" xmlns="http://www.w3.org/2000/svg">
<path d="M15.1406 5.00977C15.4628 5.05546 15.7464 5.25641 15.8945 5.55273L19.1191 12.0029C20.1368 12.0333 21.1061 12.4499 21.8281 13.1719C22.5783 13.922 23 14.9391 23 16L22.9951 16.1982C22.9461 17.1869 22.5314 18.1248 21.8281 18.8281C21.1248 19.5314 20.1869 19.9461 19.1982 19.9951L19 20C17.9391 20 16.922 19.5783 16.1719 18.8281C15.4686 18.1248 15.0539 17.1869 15.0049 16.1982L15 16C15 14.9391 15.4217 13.922 16.1719 13.1719C16.4534 12.8904 16.7723 12.6548 17.1172 12.4707L16.5586 11.3545L13.207 14.707C13.0195 14.8946 12.7652 15 12.5 15H8.87207C8.95581 15.324 9 15.6596 9 16C9 17.0609 8.57827 18.078 7.82812 18.8281C7.12484 19.5314 6.18693 19.9461 5.19824 19.9951L5 20C3.93913 20 2.92202 19.5783 2.17188 18.8281C1.46859 18.1248 1.0539 17.1869 1.00488 16.1982L1 16C1 14.9391 1.42173 13.922 2.17188 13.1719C2.92202 12.4217 3.93913 12 5 12C5.84267 12 6.65742 12.2665 7.33301 12.752L9.08594 11H6C5.44772 11 5 10.5523 5 10C5 9.44772 5.44772 9 6 9H15.3818L14.3818 7H13C12.4477 7 12 6.55228 12 6C12 5.44772 12.4477 5 13 5H15L15.1406 5.00977ZM5 14C4.46957 14 3.96101 14.2109 3.58594 14.5859C3.21087 14.961 3 15.4696 3 16L3.00977 16.1973C3.05515 16.6553 3.25765 17.0858 3.58594 17.4141C3.96101 17.7891 4.46957 18 5 18L5.19727 17.9902C5.65526 17.9449 6.08578 17.7423 6.41406 17.4141C6.78913 17.039 7 16.5304 7 16C7 15.4696 6.78913 14.961 6.41406 14.5859C6.03899 14.2109 5.53043 14 5 14ZM19 14C18.4696 14 17.961 14.2109 17.5859 14.5859C17.2109 14.961 17 15.4696 17 16L17.0098 16.1973C17.0551 16.6553 17.2577 17.0858 17.5859 17.4141C17.961 17.7891 18.4696 18 19 18L19.1973 17.9902C19.6553 17.9449 20.0858 17.7423 20.4141 17.4141C20.7891 17.039 21 16.5304 21 16L20.9902 15.8027C20.9449 15.3447 20.7423 14.9142 20.4141 14.5859C20.039 14.2109 19.5304 14 19 14ZM9.91406 13H12.0859L14.0859 11H11.9141L9.91406 13Z" fill="black"/>
</svg>
