<svg width="20" height="20" viewBox="0 0 20 20" fill="none" xmlns="http://www.w3.org/2000/svg">
<path d="M10.4609 1.75488C10.7191 1.62589 11.0259 1.63937 11.2715 1.79102C11.5171 1.94285 11.667 2.21128 11.667 2.5V5.3877L16.2949 8.47363C16.5267 8.62813 16.6659 8.88849 16.666 9.16699V16.667H17.5C17.9602 16.667 18.3329 17.0398 18.333 17.5C18.333 17.9602 17.9602 18.333 17.5 18.333H15.8496C15.8442 18.3331 15.8385 18.334 15.833 18.334C15.8275 18.334 15.8219 18.3331 15.8164 18.333H2.5C2.03976 18.333 1.66699 17.9602 1.66699 17.5C1.66705 17.0398 2.0398 16.667 2.5 16.667H3.33398V5.83301C3.33415 5.51763 3.51191 5.22903 3.79395 5.08789L10.4609 1.75488ZM5 6.34863V16.667H10V3.84766L5 6.34863ZM11.667 16.667H15V9.6123L11.667 7.39062V16.667ZM7.5 14.167C7.9602 14.167 8.33295 14.5398 8.33301 15V15.0088C8.33276 15.4688 7.96009 15.8418 7.5 15.8418C7.03991 15.8418 6.66724 15.4688 6.66699 15.0088V15C6.66705 14.5398 7.0398 14.167 7.5 14.167ZM7.5 11.667C7.9602 11.667 8.33295 12.0398 8.33301 12.5V12.5088C8.33276 12.9688 7.96009 13.3418 7.5 13.3418C7.03991 13.3418 6.66724 12.9688 6.66699 12.5088V12.5C6.66705 12.0398 7.0398 11.667 7.5 11.667ZM7.5 9.16699C7.9602 9.16699 8.33295 9.53982 8.33301 10V10.0088C8.33276 10.4688 7.96009 10.8418 7.5 10.8418C7.03991 10.8418 6.66724 10.4688 6.66699 10.0088V10C6.66705 9.53982 7.0398 9.16699 7.5 9.16699ZM7.5 6.66699C7.9602 6.66699 8.33295 7.03982 8.33301 7.5V7.50879C8.33276 7.96882 7.96009 8.3418 7.5 8.3418C7.03991 8.3418 6.66724 7.96882 6.66699 7.50879V7.5C6.66705 7.03982 7.0398 6.66699 7.5 6.66699Z" fill="black" fill-opacity="0.5"/>
</svg>
