<svg width="20" height="20" viewBox="0 0 20 20" fill="none" xmlns="http://www.w3.org/2000/svg">
<path d="M12.5 1.66699C13.3841 1.66699 14.2323 2.01746 14.8574 2.64258C15.4825 3.2677 15.833 4.11595 15.833 5C15.833 5.46024 15.4602 5.83301 15 5.83301C14.5398 5.83301 14.167 5.46024 14.167 5C14.167 4.55797 13.9913 4.13385 13.6787 3.82129C13.3661 3.50873 12.942 3.33301 12.5 3.33301C12.058 3.33301 11.6339 3.50873 11.3213 3.82129C11.0087 4.13385 10.833 4.55797 10.833 5V12.5H11.667V9.16699C11.667 8.50395 11.9296 7.86728 12.3984 7.39844C12.8673 6.9296 13.504 6.66699 14.167 6.66699C14.8298 6.66708 15.4658 6.92978 15.9346 7.39844C16.4034 7.86728 16.667 8.50395 16.667 9.16699C16.6668 9.62708 16.2931 10 15.833 10C15.373 9.99982 15.0002 9.62697 15 9.16699C15 8.94598 14.9121 8.73343 14.7559 8.57715C14.5997 8.42105 14.3878 8.33309 14.167 8.33301C13.946 8.33301 13.7334 8.42087 13.5771 8.57715C13.4209 8.73343 13.333 8.94598 13.333 9.16699V12.5H17.5C17.9601 12.5 18.3328 12.8729 18.333 13.333V15C18.3329 15.8837 17.9821 16.7314 17.3574 17.3564C16.7323 17.9816 15.8841 18.333 15 18.333H5C4.11595 18.333 3.2677 17.9816 2.64258 17.3564C2.01785 16.7314 1.66708 15.8837 1.66699 15V13.333C1.66719 12.8729 2.03988 12.5 2.5 12.5H6.66699V9.16699C6.66699 8.94604 6.57906 8.73342 6.42285 8.57715C6.26672 8.4211 6.05472 8.33316 5.83398 8.33301C5.61303 8.33301 5.40041 8.42094 5.24414 8.57715C5.08786 8.73343 5 8.94598 5 9.16699C4.99982 9.627 4.62701 9.99987 4.16699 10C3.70686 10 3.33416 9.62708 3.33398 9.16699C3.33398 8.50395 3.59659 7.86728 4.06543 7.39844C4.53426 6.92967 5.171 6.66699 5.83398 6.66699C6.49674 6.66714 7.13287 6.92983 7.60156 7.39844C8.07033 7.86727 8.33398 8.50401 8.33398 9.16699V12.5H9.16699V5C9.16699 4.55797 8.99127 4.13385 8.67871 3.82129C8.36615 3.50873 7.94203 3.33301 7.5 3.33301C7.05797 3.33301 6.63385 3.50873 6.32129 3.82129C6.00873 4.13385 5.83301 4.55797 5.83301 5C5.83301 5.46024 5.46024 5.83301 5 5.83301C4.53976 5.83301 4.16699 5.46024 4.16699 5C4.16699 4.11594 4.51746 3.2677 5.14258 2.64258C5.7677 2.01746 6.61594 1.66699 7.5 1.66699C8.38405 1.66699 9.2323 2.01746 9.85742 2.64258C9.90676 2.69192 9.95412 2.74289 10 2.79492C10.0459 2.74289 10.0932 2.69192 10.1426 2.64258C10.7677 2.01746 11.6159 1.66699 12.5 1.66699ZM3.33301 15C3.33309 15.4417 3.50912 15.8653 3.82129 16.1777C4.13385 16.4903 4.55797 16.666 5 16.666H15C15.442 16.666 15.8662 16.4903 16.1787 16.1777C16.4909 15.8653 16.6669 15.4417 16.667 15V14.166H12.5215C12.5143 14.1662 12.5072 14.167 12.5 14.167C12.4928 14.167 12.4857 14.1662 12.4785 14.166H10.0215C10.0143 14.1662 10.0072 14.167 10 14.167C9.99281 14.167 9.98566 14.1662 9.97852 14.166H7.52148C7.51434 14.1662 7.50719 14.167 7.5 14.167C7.49289 14.167 7.48558 14.1662 7.47852 14.166H3.33301V15Z" fill="black" />
</svg>
