<svg width="24" height="24" viewBox="0 0 24 24" fill="none" xmlns="http://www.w3.org/2000/svg">
<path d="M13.667 4.5V7.83333C13.667 8.05435 13.7548 8.26631 13.9111 8.42259C14.0674 8.57887 14.2793 8.66667 14.5003 8.66667H17.8337" stroke="black" stroke-width="2" stroke-linecap="round" stroke-linejoin="round"/>
<path d="M6.16699 12V6.16667C6.16699 5.72464 6.34259 5.30072 6.65515 4.98816C6.96771 4.67559 7.39163 4.5 7.83366 4.5H13.667L17.8337 8.66667V12" stroke="black" stroke-width="2" stroke-linecap="round" stroke-linejoin="round"/>
<path d="M6.16699 17H7.41699C7.74851 17 8.06646 16.8683 8.30088 16.6339C8.5353 16.3995 8.66699 16.0815 8.66699 15.75C8.66699 15.4185 8.5353 15.1005 8.30088 14.8661C8.06646 14.6317 7.74851 14.5 7.41699 14.5H6.16699V19.5" stroke="black" stroke-width="2" stroke-linecap="round" stroke-linejoin="round"/>
<path d="M16.167 17H17.8337" stroke="black" stroke-width="2" stroke-linecap="round" stroke-linejoin="round"/>
<path d="M18.667 14.5H16.167V19.5" stroke="black" stroke-width="2" stroke-linecap="round" stroke-linejoin="round"/>
<path d="M11.167 14.5V19.5H12.0003C12.4424 19.5 12.8663 19.3244 13.1788 19.0118C13.4914 18.6993 13.667 18.2754 13.667 17.8333V16.1667C13.667 15.7246 13.4914 15.3007 13.1788 14.9882C12.8663 14.6756 12.4424 14.5 12.0003 14.5H11.167Z" stroke="black" stroke-width="2" stroke-linecap="round" stroke-linejoin="round"/>
</svg>
