<svg width="20" height="20" viewBox="0 0 20 20" fill="none" xmlns="http://www.w3.org/2000/svg">
<path d="M5.41699 11.8333C5.92532 11.8333 6.41302 12.0354 6.77246 12.3948C7.1319 12.7543 7.33398 13.242 7.33398 13.7503C7.33392 14.2586 7.13185 14.7464 6.77246 15.1058C6.41304 15.4651 5.92522 15.6673 5.41699 15.6673H4.83398V17.5003C4.83386 17.8684 4.53511 18.1673 4.16699 18.1673C3.79897 18.1672 3.50012 17.8683 3.5 17.5003V12.5003C3.5 12.1322 3.7989 11.8334 4.16699 11.8333H5.41699ZM10 11.8333C10.6188 11.8333 11.2128 12.0793 11.6504 12.5169C12.088 12.9545 12.334 13.5485 12.334 14.1673V15.8333C12.3339 16.4521 12.0879 17.0462 11.6504 17.4837C11.2128 17.9212 10.6187 18.1673 10 18.1673H9.16699C8.79897 18.1672 8.50012 17.8683 8.5 17.5003V12.5003C8.5 12.1322 8.7989 11.8334 9.16699 11.8333H10ZM16.667 11.8333C17.0352 11.8333 17.334 12.1321 17.334 12.5003C17.3339 12.8684 17.0351 13.1673 16.667 13.1673H14.834V14.3333H15.834C16.202 14.3335 16.5 14.6322 16.5 15.0003C16.4999 15.3683 16.2019 15.6671 15.834 15.6673H14.834V17.5003C14.8339 17.8684 14.5351 18.1673 14.167 18.1673C13.799 18.1672 13.5001 17.8683 13.5 17.5003V12.5003C13.5 12.1322 13.7989 11.8334 14.167 11.8333H16.667ZM9.83398 16.8333H10C10.2651 16.8333 10.5195 16.7277 10.707 16.5403C10.8945 16.3529 10.9999 16.0984 11 15.8333V14.1673C11 13.9021 10.8946 13.6478 10.707 13.4603C10.5195 13.2727 10.2652 13.1673 10 13.1673H9.83398V16.8333ZM4.83398 14.3333H5.41699C5.5716 14.3333 5.71973 14.2717 5.8291 14.1624C5.93845 14.0531 5.99994 13.9049 6 13.7503C6 13.5956 5.93849 13.4476 5.8291 13.3382C5.71971 13.2288 5.5717 13.1673 5.41699 13.1673H4.83398V14.3333ZM11.8018 1.84698C11.8114 1.84896 11.8206 1.85241 11.8301 1.8548C11.8566 1.86147 11.8827 1.86939 11.9082 1.87921C11.9243 1.88548 11.9396 1.89324 11.9551 1.9007C11.974 1.90973 11.9927 1.91918 12.0107 1.92999C12.0243 1.93819 12.0379 1.94627 12.0508 1.95538C12.0819 1.97718 12.1114 2.0014 12.1387 2.02863L16.2998 6.19073C16.3634 6.25307 16.4145 6.3279 16.4492 6.41144C16.4825 6.49174 16.5 6.57875 16.5 6.6673V10.0003C16.4999 10.3683 16.2019 10.6671 15.834 10.6673C15.466 10.6672 15.1671 10.3683 15.167 10.0003V7.33331H12.5C12.1024 7.33317 11.7206 7.17503 11.4395 6.89386C11.1584 6.61264 11.0001 6.2309 11 5.83331V3.1673H5.83398C5.56884 3.16735 5.31444 3.27278 5.12695 3.46027C4.93955 3.64778 4.83398 3.90218 4.83398 4.1673V10.0003C4.83386 10.3684 4.53511 10.6673 4.16699 10.6673C3.79897 10.6672 3.50012 10.3683 3.5 10.0003V4.1673C3.5 3.54856 3.74614 2.95447 4.18359 2.51691C4.62113 2.07937 5.21522 1.83337 5.83398 1.83331H11.667L11.8018 1.84698ZM12.334 5.83331C12.334 5.87744 12.3516 5.92027 12.3828 5.95148C12.4139 5.9825 12.4561 6.00017 12.5 6.00031H14.2246L12.334 4.10968V5.83331Z" fill="#0B3A2A"/>
</svg>
