<svg width="24" height="24" viewBox="0 0 24 24" fill="none" xmlns="http://www.w3.org/2000/svg">
<path d="M6.5 14C7.16304 14 7.79874 14.2636 8.26758 14.7324C8.73642 15.2013 9 15.837 9 16.5C9 17.163 8.73642 17.7987 8.26758 18.2676C7.79874 18.7364 7.16304 19 6.5 19H6V21C6 21.5523 5.55228 22 5 22C4.44772 22 4 21.5523 4 21V15C4 14.4477 4.44772 14 5 14H6.5ZM12 14C12.7957 14 13.5585 14.3163 14.1211 14.8789C14.6837 15.4415 15 16.2043 15 17V19C15 19.7957 14.6837 20.5585 14.1211 21.1211C13.5585 21.6837 12.7957 22 12 22H11C10.4477 22 10 21.5523 10 21V15C10 14.4477 10.4477 14 11 14H12ZM20 14C20.5523 14 21 14.4477 21 15C21 15.5523 20.5523 16 20 16H18V17H19C19.5523 17 20 17.4477 20 18C20 18.5523 19.5523 19 19 19H18V21C18 21.5523 17.5523 22 17 22C16.4477 22 16 21.5523 16 21V15C16 14.4477 16.4477 14 17 14H20ZM12 20C12.2652 20 12.5195 19.8946 12.707 19.707C12.8946 19.5195 13 19.2652 13 19V17C13 16.7348 12.8946 16.4805 12.707 16.293C12.5195 16.1054 12.2652 16 12 16V20ZM6 17H6.5C6.63261 17 6.75975 16.9473 6.85352 16.8535C6.94728 16.7597 7 16.6326 7 16.5C7 16.3674 6.94728 16.2403 6.85352 16.1465C6.78311 16.0761 6.69389 16.0289 6.59766 16.0098L6.5 16H6V17ZM14 2C14.0864 2 14.17 2.01163 14.25 2.03223C14.2588 2.0345 14.2676 2.03655 14.2764 2.03906C14.3259 2.0533 14.3738 2.0714 14.4199 2.09277C14.4252 2.09522 14.4303 2.09805 14.4355 2.10059C14.4819 2.12307 14.5263 2.14864 14.5684 2.17773C14.5747 2.1821 14.5807 2.18689 14.5869 2.19141C14.6295 2.22234 14.6699 2.25586 14.707 2.29297L19.707 7.29297C19.888 7.47393 20 7.72386 20 8V12C20 12.5523 19.5523 13 19 13C18.4477 13 18 12.5523 18 12V9H15C14.4696 9 13.961 8.78913 13.5859 8.41406C13.2109 8.03899 13 7.53043 13 7V4H7C6.73478 4 6.4805 4.10543 6.29297 4.29297C6.10543 4.4805 6 4.73478 6 5V12C6 12.5523 5.55228 13 5 13C4.44772 13 4 12.5523 4 12V5C4 4.20435 4.3163 3.44152 4.87891 2.87891C5.44152 2.3163 6.20435 2 7 2H14ZM15 7H16.5859L15 5.41406V7Z" fill="black" fill-opacity="0.5"/>
</svg>
