<svg width="20" height="20" viewBox="0 0 20 20" fill="none" xmlns="http://www.w3.org/2000/svg">
<path d="M4.16602 14.4447V5.55582C4.16602 4.82285 4.16602 4.45596 4.32026 4.23909C4.45488 4.04981 4.66238 3.92554 4.89274 3.89582C5.15659 3.86179 5.48019 4.03438 6.12646 4.37906L14.4598 8.82351L14.4628 8.82485C15.177 9.20576 15.5343 9.39631 15.6515 9.65027C15.7537 9.87182 15.7537 10.1276 15.6515 10.3491C15.5341 10.6034 15.176 10.7948 14.4598 11.1768L6.12646 15.6212C5.47972 15.9661 5.15668 16.138 4.89274 16.104C4.66238 16.0743 4.45488 15.95 4.32026 15.7608C4.16602 15.5439 4.16602 15.1777 4.16602 14.4447Z" stroke="#F4F1EC" stroke-width="1.5" stroke-linecap="round" stroke-linejoin="round"/>
</svg>
