<svg width="20" height="20" viewBox="0 0 20 20" fill="none" xmlns="http://www.w3.org/2000/svg">
<path d="M6.66699 2.5C6.96254 2.50004 7.24945 2.58006 7.50098 2.72559C7.75204 2.58045 8.0379 2.50006 8.33301 2.5H10C10.4419 2.5 10.8662 2.67583 11.1787 2.98828C11.1883 2.99785 11.1967 3.00878 11.2061 3.01855L11.2568 3.00391C11.2729 2.99896 11.2893 2.99421 11.3057 2.99023L13.126 2.54883L13.1279 2.54785C14.0106 2.33586 14.9447 2.83995 15.1943 3.74707L18.2734 14.9287L18.2754 14.9365C18.3829 15.3418 18.335 15.7725 18.1416 16.1445C17.9481 16.5165 17.623 16.8035 17.2295 16.9482C17.2158 16.9533 17.2015 16.9576 17.1875 16.9619L17.0762 16.9961C17.06 17.0011 17.0438 17.0058 17.0273 17.0098L15.207 17.4512L15.2051 17.4521C14.3775 17.6507 13.5047 17.2201 13.1934 16.418L13.1387 16.2529L11.667 10.9082V15.833C11.667 16.275 11.4912 16.6992 11.1787 17.0117C10.8661 17.3243 10.442 17.5 10 17.5H8.33301C8.03761 17.4999 7.75134 17.4199 7.5 17.2744C7.24858 17.4198 6.96237 17.5 6.66699 17.5H5C4.55824 17.4999 4.13472 17.324 3.82227 17.0117C3.50973 16.6992 3.33398 16.275 3.33398 15.833V4.16602C3.33416 3.72423 3.50986 3.30069 3.82227 2.98828C4.13472 2.67598 4.55823 2.50009 5 2.5H6.66699ZM5 15.833H6.66699V7.49902H5V15.833ZM8.33398 15.833H10V14.166H8.33398V15.833ZM14.2373 13.9658L14.7461 15.8105L14.748 15.8145C14.7498 15.8166 14.7538 15.8203 14.7607 15.8242C14.7681 15.8284 14.7767 15.8317 14.7861 15.833L14.8164 15.8311L16.5938 15.3994L16.6572 15.3809C16.6594 15.3794 16.6618 15.3783 16.6631 15.376C16.6649 15.3725 16.6659 15.3681 16.665 15.3643V15.3633L16.1484 13.4883L14.2373 13.9658ZM8.33398 12.5H10V4.16602H8.33398V12.5ZM12.627 8.11719L13.7949 12.3584L15.7061 11.8809L14.5381 7.63965L12.627 8.11719ZM13.5176 4.16895L13.5166 4.16797L11.7207 4.60449L11.6758 4.61816C11.6735 4.61967 11.6712 4.62159 11.6699 4.62402C11.6682 4.62751 11.6681 4.63194 11.6689 4.63574L12.1846 6.50977L14.0947 6.03223L13.5879 4.18945H13.5869C13.5866 4.18826 13.587 4.18702 13.5859 4.18555C13.5843 4.18351 13.5801 4.17976 13.5732 4.17578C13.5587 4.16746 13.5391 4.16386 13.5176 4.16895ZM5 5.83301H6.66699V4.16602H5V5.83301Z" fill="black" fill-opacity="0.5"/>
</svg>
