<svg width="20" height="20" viewBox="0 0 20 20" fill="none" xmlns="http://www.w3.org/2000/svg">
<path d="M10 1.66699C11.0943 1.66699 12.1784 1.88199 13.1895 2.30078C14.2004 2.71957 15.1188 3.33367 15.8926 4.10742C16.6663 4.88117 17.2804 5.79961 17.6992 6.81055C18.118 7.82159 18.333 8.90565 18.333 10C18.333 11.0943 18.118 12.1784 17.6992 13.1895C17.2804 14.2004 16.6663 15.1188 15.8926 15.8926C15.1188 16.6663 14.2004 17.2804 13.1895 17.6992C12.1784 18.118 11.0943 18.333 10 18.333C8.90565 18.333 7.82159 18.118 6.81055 17.6992C5.79961 17.2804 4.88117 16.6663 4.10742 15.8926C3.33367 15.1188 2.71957 14.2004 2.30078 13.1895C1.88199 12.1784 1.66699 11.0943 1.66699 10C1.66699 8.90565 1.88199 7.82159 2.30078 6.81055C2.71957 5.79961 3.33367 4.88117 4.10742 4.10742C4.88117 3.33367 5.79961 2.71957 6.81055 2.30078C7.82159 1.88199 8.90565 1.66699 10 1.66699ZM8.95117 12.2246C9.97725 13.4794 10.6128 15.0071 10.7842 16.6182C11.3901 16.5462 11.9848 16.3936 12.5508 16.1592C13.1015 15.9311 13.6159 15.6277 14.085 15.2637L9.99902 11.1777L8.95117 12.2246ZM5.91309 15.2637C6.38245 15.6281 6.898 15.9309 7.44922 16.1592C7.98053 16.3792 8.53712 16.5274 9.10449 16.6045C8.94666 15.4411 8.48439 14.3399 7.76367 13.4121L5.91309 15.2637ZM3.39453 10.8945C3.47157 11.4623 3.62064 12.0191 3.84082 12.5508C4.06887 13.1013 4.37151 13.616 4.73535 14.085L6.58496 12.2344C5.65743 11.5147 4.55718 11.0521 3.39453 10.8945ZM11.1777 9.99902L15.2637 14.085C15.6277 13.6159 15.9311 13.1015 16.1592 12.5508C16.3936 11.9848 16.5462 11.3901 16.6182 10.7842C15.0071 10.6128 13.4794 9.97725 12.2246 8.95117L11.1777 9.99902ZM4.73535 5.91309C4.37109 6.38232 4.06907 6.89818 3.84082 7.44922C3.60652 8.01497 3.45285 8.60924 3.38086 9.21484C4.9912 9.38594 6.51793 10.0219 7.77246 11.0469L8.82129 9.99902L4.73535 5.91309ZM13.4121 7.76367C14.3399 8.48439 15.4411 8.94666 16.6045 9.10449C16.5274 8.53712 16.3792 7.98053 16.1592 7.44922C15.9309 6.898 15.6281 6.38245 15.2637 5.91309L13.4121 7.76367ZM9.21484 3.38086C8.60924 3.45285 8.01497 3.60652 7.44922 3.84082C6.89818 4.06907 6.38232 4.37109 5.91309 4.73535L9.99902 8.82129L11.0469 7.77246C10.0219 6.51793 9.38594 4.9912 9.21484 3.38086ZM10.8945 3.39453C11.0521 4.55718 11.5147 5.65743 12.2344 6.58496L14.085 4.73535C13.616 4.37151 13.1013 4.06887 12.5508 3.84082C12.0191 3.62064 11.4623 3.47157 10.8945 3.39453Z" fill="black"/>
</svg>
