<svg width="24" height="24" viewBox="0 0 24 24" fill="none" xmlns="http://www.w3.org/2000/svg">
<path d="M11.627 2.07227C11.9062 1.95995 12.2239 1.9791 12.4902 2.12891L20.4902 6.62891C20.4935 6.63077 20.4967 6.63287 20.5 6.63477C20.5714 6.67598 20.638 6.72626 20.6982 6.78516C20.7029 6.78966 20.7074 6.79424 20.7119 6.79883C20.7343 6.82157 20.7551 6.84594 20.7754 6.87109C20.784 6.88173 20.7926 6.89235 20.8008 6.90332C20.8155 6.92314 20.8294 6.94368 20.8428 6.96484C20.8514 6.97843 20.8602 6.99187 20.8682 7.00586C20.8689 7.0072 20.8703 7.00842 20.8711 7.00977C20.8887 7.04111 20.9041 7.07317 20.918 7.10547C20.9231 7.1173 20.927 7.12956 20.9316 7.1416C20.9409 7.16561 20.9497 7.18952 20.957 7.21387C20.9621 7.23066 20.9666 7.24756 20.9707 7.26465C20.9761 7.28667 20.9796 7.30889 20.9834 7.33105C20.9862 7.34729 20.9892 7.36345 20.9912 7.37988C20.9958 7.41769 20.9988 7.4554 20.999 7.49316C20.999 7.49536 21 7.4978 21 7.5V16.5C20.9999 16.8611 20.8049 17.194 20.4902 17.3711L12.4902 21.8711C12.4891 21.8717 12.4875 21.8714 12.4863 21.8721C12.3812 21.9308 12.2648 21.9708 12.1406 21.9883C12.1331 21.9893 12.1257 21.9903 12.1182 21.9912C12.0793 21.9958 12.04 22 12 22C11.9596 22 11.92 21.9959 11.8809 21.9912C11.8734 21.9903 11.8659 21.9894 11.8584 21.9883C11.7343 21.9707 11.6178 21.9309 11.5127 21.8721C11.5118 21.8716 11.5106 21.8716 11.5098 21.8711L3.50977 17.3711C3.19507 17.194 3.00009 16.8611 3 16.5V7.48438C3.00051 7.44956 3.00361 7.41472 3.00781 7.37988C3.0098 7.36346 3.01284 7.34728 3.01562 7.33105C3.01942 7.30891 3.02298 7.28665 3.02832 7.26465C3.03246 7.24758 3.03698 7.23064 3.04199 7.21387C3.04928 7.18954 3.05814 7.16559 3.06738 7.1416C3.09117 7.07977 3.12084 7.02062 3.15625 6.96484C3.16963 6.94369 3.18354 6.92314 3.19824 6.90332C3.20641 6.89235 3.21501 6.88173 3.22363 6.87109C3.30181 6.77429 3.39524 6.69475 3.49902 6.63477C3.50255 6.63272 3.50621 6.63091 3.50977 6.62891L11.5098 2.12891L11.627 2.07227ZM5 15.915L11 19.29V12.584L5 9.20898V15.915ZM13 12.584V19.29L19 15.915V9.20898L13 12.584ZM10.0381 9.74902L11.999 10.8525L17.9609 7.49902L16 6.39648L10.0381 9.74902ZM6.03809 7.49902L8 8.60254L13.9609 5.24902L12 4.14648L6.03809 7.49902Z" fill="black"/>
</svg>
