<svg width="20" height="20" viewBox="0 0 20 20" fill="none" xmlns="http://www.w3.org/2000/svg">
<path d="M5 1.66699C5.44203 1.66699 5.86615 1.84271 6.17871 2.15527C6.49099 2.46773 6.66691 2.89125 6.66699 3.33301V6.66699C6.66691 7.10875 6.49099 7.53227 6.17871 7.84473C5.86615 8.15729 5.44203 8.33301 5 8.33301V16.667C4.99982 17.127 4.62701 17.4999 4.16699 17.5C3.70686 17.5 3.33416 17.1271 3.33398 16.667V8.33301H3.33301C2.8911 8.33292 2.46776 8.15721 2.15527 7.84473C1.84279 7.53224 1.66708 7.1089 1.66699 6.66699V3.33301C1.66708 2.8911 1.84279 2.46776 2.15527 2.15527C2.46776 1.84279 2.8911 1.66708 3.33301 1.66699H5ZM14.166 3.33398C15.6554 3.33398 16.9261 4.18082 17.791 5.3916C18.6567 6.60387 19.166 8.2359 19.166 10V14.167C19.1658 14.6271 18.7931 15 18.333 15H17.3535C17.2303 15.3479 17.0335 15.6687 16.7676 15.9346C16.2988 16.4033 15.6629 16.6669 15 16.667C14.337 16.6669 13.7002 16.4034 13.2314 15.9346C12.9657 15.6687 12.7694 15.3478 12.6465 15H6.66699C6.20688 15 5.83418 14.6271 5.83398 14.167C5.83398 13.7068 6.20675 13.334 6.66699 13.334H12.6465C12.7694 12.9858 12.9655 12.6644 13.2314 12.3984C13.7002 11.9297 14.337 11.6671 15 11.667C15.6628 11.6671 16.2988 11.9299 16.7676 12.3984C17.0337 12.6645 17.2313 12.9856 17.3545 13.334H17.5V10.834H14.583C14.1903 10.8339 13.851 10.5588 13.7686 10.1748L13.5527 9.16602H10.0166C10.0111 9.16612 10.0055 9.16699 10 9.16699C9.99445 9.16699 9.98892 9.16612 9.9834 9.16602H7.91699C7.45675 9.16602 7.08398 8.79325 7.08398 8.33301C7.08418 7.87294 7.45688 7.5 7.91699 7.5H9.16699V5H8.33301C7.873 4.99987 7.5002 4.62698 7.5 4.16699C7.5 3.70684 7.87288 3.33412 8.33301 3.33398H14.166ZM15 13.333C14.7791 13.3331 14.5664 13.4209 14.4102 13.5771C14.2563 13.7311 14.1686 13.9398 14.166 14.1572C14.166 14.1604 14.167 14.1639 14.167 14.167C14.167 14.1699 14.166 14.1729 14.166 14.1758C14.1684 14.3934 14.2562 14.6018 14.4102 14.7559C14.5664 14.9121 14.7791 14.9999 15 15C15.2208 14.9999 15.4327 14.912 15.5889 14.7559C15.7451 14.5997 15.8329 14.3879 15.833 14.167C15.833 13.946 15.7451 13.7334 15.5889 13.5771C15.4327 13.4211 15.2208 13.3331 15 13.333ZM15.2559 9.16699H17.4531C17.3262 8.05577 16.951 7.08347 16.4346 6.36035C15.844 5.53354 15.1096 5.07872 14.3652 5.00977L15.2559 9.16699ZM10.833 7.5H13.1953L12.6592 5H10.833V7.5ZM3.33301 6.66699H5V3.33301H3.33301V6.66699Z" fill="black"/>
</svg>
