<svg width="180" height="181" viewBox="0 0 180 181" fill="none" xmlns="http://www.w3.org/2000/svg">
<path d="M105.138 144.216H104.715C104.69 144.094 104.646 143.987 104.583 143.894C104.522 143.802 104.446 143.725 104.358 143.662C104.27 143.598 104.173 143.55 104.066 143.519C103.958 143.487 103.847 143.471 103.731 143.471C103.519 143.471 103.327 143.524 103.155 143.631C102.984 143.738 102.848 143.896 102.747 144.105C102.646 144.313 102.596 144.569 102.596 144.872C102.596 145.175 102.646 145.43 102.747 145.639C102.848 145.847 102.984 146.005 103.155 146.112C103.327 146.219 103.519 146.273 103.731 146.273C103.847 146.273 103.958 146.257 104.066 146.225C104.173 146.193 104.27 146.146 104.358 146.083C104.446 146.019 104.522 145.941 104.583 145.849C104.646 145.755 104.69 145.648 104.715 145.528H105.138C105.107 145.707 105.048 145.867 104.964 146.008C104.88 146.149 104.775 146.269 104.65 146.368C104.525 146.466 104.384 146.541 104.228 146.592C104.073 146.643 103.907 146.669 103.731 146.669C103.432 146.669 103.167 146.596 102.935 146.45C102.702 146.304 102.519 146.097 102.386 145.828C102.253 145.56 102.186 145.241 102.186 144.872C102.186 144.503 102.253 144.184 102.386 143.915C102.519 143.646 102.702 143.439 102.935 143.293C103.167 143.147 103.432 143.074 103.731 143.074C103.907 143.074 104.073 143.1 104.228 143.151C104.384 143.203 104.525 143.278 104.65 143.377C104.775 143.475 104.88 143.594 104.964 143.736C105.048 143.876 105.107 144.036 105.138 144.216ZM107.005 142.958L105.878 147.147H105.509L106.636 142.958H107.005ZM107.743 147.605C107.675 147.605 107.614 147.599 107.56 147.588C107.507 147.578 107.47 147.568 107.449 147.557L107.552 147.202C107.65 147.227 107.736 147.236 107.811 147.229C107.886 147.222 107.953 147.189 108.011 147.128C108.07 147.069 108.124 146.973 108.173 146.84L108.249 146.635L107.278 143.997H107.716L108.44 146.088H108.467L109.192 143.997H109.629L108.515 147.004C108.465 147.139 108.403 147.252 108.329 147.34C108.255 147.43 108.169 147.497 108.071 147.54C107.974 147.584 107.865 147.605 107.743 147.605Z" fill="black"/>
<path d="M102.549 152.204V151.856L104.086 149.423H104.339V149.963H104.168L103.007 151.801V151.828H105.077V152.204H102.549ZM104.196 152.922V152.098V151.936V149.423H104.599V152.922H104.196ZM106.161 152.444L106.134 152.628C106.115 152.758 106.085 152.897 106.045 153.045C106.006 153.193 105.966 153.332 105.924 153.463C105.882 153.594 105.847 153.699 105.82 153.776H105.512C105.527 153.703 105.546 153.607 105.57 153.487C105.594 153.368 105.618 153.234 105.642 153.086C105.667 152.939 105.687 152.789 105.703 152.635L105.724 152.444H106.161ZM107.904 152.97C107.678 152.97 107.477 152.931 107.301 152.854C107.126 152.776 106.986 152.668 106.882 152.531C106.78 152.392 106.724 152.231 106.715 152.047H107.145C107.155 152.16 107.193 152.257 107.262 152.339C107.33 152.42 107.419 152.483 107.53 152.527C107.64 152.572 107.763 152.594 107.897 152.594C108.048 152.594 108.181 152.568 108.297 152.515C108.413 152.463 108.504 152.39 108.57 152.297C108.636 152.203 108.669 152.095 108.669 151.972C108.669 151.843 108.637 151.73 108.574 151.632C108.51 151.533 108.417 151.455 108.294 151.4C108.171 151.344 108.02 151.316 107.843 151.316H107.562V150.94H107.843C107.981 150.94 108.103 150.915 108.208 150.865C108.314 150.815 108.397 150.744 108.456 150.653C108.516 150.562 108.546 150.455 108.546 150.332C108.546 150.213 108.52 150.11 108.468 150.023C108.415 149.935 108.341 149.867 108.246 149.818C108.151 149.769 108.04 149.744 107.911 149.744C107.79 149.744 107.676 149.766 107.569 149.811C107.463 149.854 107.377 149.917 107.309 150C107.242 150.082 107.206 150.182 107.2 150.298H106.79C106.797 150.114 106.852 149.954 106.956 149.816C107.059 149.677 107.195 149.569 107.362 149.491C107.531 149.414 107.716 149.375 107.918 149.375C108.134 149.375 108.32 149.419 108.475 149.507C108.63 149.593 108.749 149.708 108.832 149.85C108.915 149.992 108.956 150.146 108.956 150.311C108.956 150.508 108.905 150.676 108.801 150.815C108.698 150.954 108.559 151.051 108.382 151.104V151.131C108.603 151.168 108.776 151.262 108.9 151.413C109.024 151.564 109.086 151.75 109.086 151.972C109.086 152.162 109.034 152.333 108.931 152.485C108.828 152.635 108.688 152.753 108.511 152.84C108.333 152.926 108.131 152.97 107.904 152.97Z" fill="black"/>
<path d="M55.3174 151.433L54.1147 149.827H53.6842V151.433H53.2605V147.934H53.6842V149.451H53.8687L55.2696 147.934H55.7753L54.3607 149.471L55.8231 151.433H55.3174ZM57.1894 151.487C56.9525 151.487 56.7447 151.431 56.5658 151.318C56.3882 151.205 56.2492 151.048 56.149 150.845C56.0499 150.642 56.0004 150.405 56.0004 150.134C56.0004 149.861 56.0499 149.622 56.149 149.418C56.2492 149.215 56.3882 149.056 56.5658 148.943C56.7447 148.831 56.9525 148.774 57.1894 148.774C57.4263 148.774 57.6336 148.831 57.8113 148.943C57.9901 149.056 58.1291 149.215 58.2282 149.418C58.3284 149.622 58.3785 149.861 58.3785 150.134C58.3785 150.405 58.3284 150.642 58.2282 150.845C58.1291 151.048 57.9901 151.205 57.8113 151.318C57.6336 151.431 57.4263 151.487 57.1894 151.487ZM57.1894 151.125C57.3694 151.125 57.5174 151.079 57.6336 150.987C57.7498 150.894 57.8358 150.773 57.8916 150.623C57.9474 150.472 57.9753 150.31 57.9753 150.134C57.9753 149.959 57.9474 149.795 57.8916 149.644C57.8358 149.492 57.7498 149.37 57.6336 149.277C57.5174 149.183 57.3694 149.136 57.1894 149.136C57.0095 149.136 56.8614 149.183 56.7452 149.277C56.6291 149.37 56.5431 149.492 56.4873 149.644C56.4315 149.795 56.4035 149.959 56.4035 150.134C56.4035 150.31 56.4315 150.472 56.4873 150.623C56.5431 150.773 56.6291 150.894 56.7452 150.987C56.8614 151.079 57.0095 151.125 57.1894 151.125ZM58.994 152.417V148.808H59.3835V149.225H59.4313C59.4609 149.18 59.5019 149.122 59.5543 149.051C59.6079 148.979 59.6842 148.916 59.7832 148.86C59.8835 148.803 60.019 148.774 60.1899 148.774C60.4108 148.774 60.6056 148.83 60.7741 148.94C60.9427 149.05 61.0743 149.207 61.1688 149.41C61.2633 149.613 61.3106 149.852 61.3106 150.127C61.3106 150.405 61.2633 150.646 61.1688 150.85C61.0743 151.053 60.9433 151.21 60.7758 151.322C60.6084 151.432 60.4154 151.487 60.1967 151.487C60.0281 151.487 59.8932 151.459 59.7918 151.404C59.6904 151.347 59.6124 151.282 59.5577 151.211C59.5031 151.138 59.4609 151.077 59.4313 151.029H59.3971V152.417H58.994ZM59.3903 150.121C59.3903 150.319 59.4194 150.494 59.4774 150.645C59.5355 150.795 59.6204 150.913 59.732 150.999C59.8436 151.083 59.9803 151.125 60.142 151.125C60.3106 151.125 60.4512 151.081 60.564 150.992C60.6779 150.902 60.7633 150.781 60.8203 150.63C60.8784 150.477 60.9074 150.307 60.9074 150.121C60.9074 149.936 60.8789 149.77 60.822 149.622C60.7662 149.472 60.6813 149.355 60.5674 149.268C60.4547 149.18 60.3129 149.136 60.142 149.136C59.978 149.136 59.8402 149.178 59.7286 149.261C59.617 149.343 59.5327 149.458 59.4757 149.606C59.4188 149.753 59.3903 149.925 59.3903 150.121ZM62.3288 150.838L63.593 148.808H64.0577V151.433H63.6546V149.403L62.3971 151.433H61.9256V148.808H62.3288V150.838ZM64.516 152.184V151.057H64.7347C64.7882 151.001 64.8344 150.941 64.8731 150.876C64.9118 150.811 64.9454 150.734 64.9739 150.645C65.0035 150.555 65.0286 150.446 65.0491 150.317C65.0696 150.187 65.0878 150.031 65.1037 149.847L65.1926 148.808H66.86V151.057H67.2632V152.184H66.86V151.433H64.9192V152.184H64.516ZM65.1926 151.057H66.4568V149.184H65.5684L65.5001 149.847C65.4716 150.122 65.4363 150.361 65.3942 150.566C65.352 150.771 65.2848 150.935 65.1926 151.057ZM68.8644 151.487C68.6275 151.487 68.4197 151.431 68.2408 151.318C68.0632 151.205 67.9242 151.048 67.824 150.845C67.7249 150.642 67.6753 150.405 67.6753 150.134C67.6753 149.861 67.7249 149.622 67.824 149.418C67.9242 149.215 68.0632 149.056 68.2408 148.943C68.4197 148.831 68.6275 148.774 68.8644 148.774C69.1013 148.774 69.3086 148.831 69.4863 148.943C69.6651 149.056 69.804 149.215 69.9031 149.418C70.0034 149.622 70.0535 149.861 70.0535 150.134C70.0535 150.405 70.0034 150.642 69.9031 150.845C69.804 151.048 69.6651 151.205 69.4863 151.318C69.3086 151.431 69.1013 151.487 68.8644 151.487ZM68.8644 151.125C69.0444 151.125 69.1924 151.079 69.3086 150.987C69.4248 150.894 69.5108 150.773 69.5666 150.623C69.6224 150.472 69.6503 150.31 69.6503 150.134C69.6503 149.959 69.6224 149.795 69.5666 149.644C69.5108 149.492 69.4248 149.37 69.3086 149.277C69.1924 149.183 69.0444 149.136 68.8644 149.136C68.6845 149.136 68.5364 149.183 68.4202 149.277C68.304 149.37 68.2181 149.492 68.1622 149.644C68.1064 149.795 68.0785 149.959 68.0785 150.134C68.0785 150.31 68.1064 150.472 68.1622 150.623C68.2181 150.773 68.304 150.894 68.4202 150.987C68.5364 151.079 68.6845 151.125 68.8644 151.125ZM70.6689 152.417V148.808H71.0585V149.225H71.1063C71.1359 149.18 71.1769 149.122 71.2293 149.051C71.2828 148.979 71.3591 148.916 71.4582 148.86C71.5585 148.803 71.694 148.774 71.8648 148.774C72.0858 148.774 72.2806 148.83 72.4491 148.94C72.6177 149.05 72.7492 149.207 72.8438 149.41C72.9383 149.613 72.9856 149.852 72.9856 150.127C72.9856 150.405 72.9383 150.646 72.8438 150.85C72.7492 151.053 72.6183 151.21 72.4508 151.322C72.2834 151.432 72.0904 151.487 71.8717 151.487C71.7031 151.487 71.5681 151.459 71.4668 151.404C71.3654 151.347 71.2874 151.282 71.2327 151.211C71.1781 151.138 71.1359 151.077 71.1063 151.029H71.0721V152.417H70.6689ZM71.0653 150.121C71.0653 150.319 71.0943 150.494 71.1524 150.645C71.2105 150.795 71.2954 150.913 71.407 150.999C71.5186 151.083 71.6553 151.125 71.817 151.125C71.9856 151.125 72.1262 151.081 72.239 150.992C72.3529 150.902 72.4383 150.781 72.4953 150.63C72.5533 150.477 72.5824 150.307 72.5824 150.121C72.5824 149.936 72.5539 149.77 72.497 149.622C72.4412 149.472 72.3563 149.355 72.2424 149.268C72.1297 149.18 71.9879 149.136 71.817 149.136C71.653 149.136 71.5152 149.178 71.4036 149.261C71.292 149.343 71.2077 149.458 71.1507 149.606C71.0938 149.753 71.0653 149.925 71.0653 150.121Z" fill="black"/>
<path d="M59.7467 157.016V156.667L61.2842 154.235H61.5371V154.774H61.3662L60.2045 156.613V156.64H62.2751V157.016H59.7467ZM61.3936 157.733V156.91V156.748V154.235H61.7968V157.733H61.3936ZM63.3591 157.255L63.3318 157.44C63.3124 157.569 63.2828 157.708 63.243 157.856C63.2042 158.004 63.1638 158.144 63.1217 158.275C63.0795 158.406 63.0448 158.51 63.0174 158.588H62.7099C62.7247 158.515 62.7441 158.418 62.768 158.299C62.7919 158.179 62.8159 158.045 62.8398 157.897C62.8648 157.75 62.8853 157.6 62.9013 157.446L62.9218 157.255H63.3591ZM64.0512 157.733V157.426L65.2061 156.162C65.3416 156.014 65.4533 155.885 65.541 155.776C65.6287 155.665 65.6936 155.561 65.7357 155.465C65.779 155.367 65.8006 155.264 65.8006 155.157C65.8006 155.034 65.771 154.928 65.7118 154.838C65.6537 154.748 65.574 154.678 65.4726 154.629C65.3712 154.58 65.2574 154.556 65.1309 154.556C64.9965 154.556 64.8792 154.584 64.779 154.639C64.6799 154.694 64.603 154.771 64.5484 154.87C64.4948 154.969 64.4681 155.085 64.4681 155.219H64.0649C64.0649 155.014 64.1121 154.834 64.2067 154.679C64.3012 154.524 64.4299 154.403 64.5928 154.317C64.7568 154.23 64.9407 154.187 65.1446 154.187C65.3496 154.187 65.5313 154.23 65.6896 154.317C65.8479 154.403 65.972 154.52 66.062 154.667C66.152 154.814 66.197 154.977 66.197 155.157C66.197 155.286 66.1736 155.412 66.1269 155.535C66.0814 155.657 66.0017 155.793 65.8878 155.943C65.775 156.092 65.6184 156.274 65.4179 156.49L64.6321 157.33V157.358H66.2585V157.733H64.0512Z" fill="black"/>
<mask id="path-5-inside-1_4639_12424" fill="white">
<path d="M110.567 119.07H110.565V119.071H83.2031V104.037H95.5332V81.7852H110.567V119.07Z"/>
</mask>
<path d="M110.567 119.07H110.565V119.071H83.2031V104.037H95.5332V81.7852H110.567V119.07Z" fill="white"/>
<path d="M110.567 119.07V119.371H110.868V119.07H110.567ZM110.565 119.07V118.77H110.265V119.07H110.565ZM110.565 119.071V119.372H110.866V119.071H110.565ZM83.2031 119.071H82.9024V119.372H83.2031V119.071ZM83.2031 104.037V103.736H82.9024V104.037H83.2031ZM95.5332 104.037V104.338H95.8339V104.037H95.5332ZM95.5332 81.7852V81.4845H95.2325V81.7852H95.5332ZM110.567 81.7852H110.868V81.4845H110.567V81.7852ZM110.567 119.07V118.77H110.565V119.07V119.371H110.567V119.07ZM110.565 119.07H110.265V119.071H110.565H110.866V119.07H110.565ZM110.565 119.071V118.771H83.2031V119.071V119.372H110.565V119.071ZM83.2031 119.071H83.5038V104.037H83.2031H82.9024V119.071H83.2031ZM83.2031 104.037V104.338H95.5332V104.037V103.736H83.2031V104.037ZM95.5332 104.037H95.8339V81.7852H95.5332H95.2325V104.037H95.5332ZM95.5332 81.7852V82.0858H110.567V81.7852V81.4845H95.5332V81.7852ZM110.567 81.7852H110.267V119.07H110.567H110.868V81.7852H110.567Z" fill="black" mask="url(#path-5-inside-1_4639_12424)"/>
<rect x="43.3632" y="81.9355" width="14.7335" height="36.9841" fill="white" stroke="black" stroke-width="0.300684"/>
<rect x="100.343" y="81.186" width="9.92257" height="0.601368" fill="#999999"/>
<rect x="85.9102" y="81.186" width="9.92257" height="0.601368" fill="#999999"/>
<rect x="71.4756" y="81.186" width="9.92257" height="0.601368" fill="#999999"/>
<rect x="57.043" y="81.186" width="9.92257" height="0.601368" fill="#999999"/>
<rect x="42.6113" y="81.186" width="9.92257" height="0.601368" fill="#999999"/>
<path d="M71.9301 56.4175L70.7274 54.8116H70.2969V56.4175H69.8732V52.9186H70.2969V54.4357H70.4814L71.8823 52.9186H72.388L70.9734 54.4562L72.4358 56.4175H71.9301ZM73.8022 56.4722C73.5653 56.4722 73.3574 56.4158 73.1786 56.303C73.0009 56.1903 72.862 56.0325 72.7617 55.8298C72.6626 55.627 72.6131 55.3901 72.6131 55.1191C72.6131 54.8457 72.6626 54.6071 72.7617 54.4032C72.862 54.1994 73.0009 54.0411 73.1786 53.9283C73.3574 53.8155 73.5653 53.7592 73.8022 53.7592C74.0391 53.7592 74.2464 53.8155 74.424 53.9283C74.6028 54.0411 74.7418 54.1994 74.8409 54.4032C74.9411 54.6071 74.9912 54.8457 74.9912 55.1191C74.9912 55.3901 74.9411 55.627 74.8409 55.8298C74.7418 56.0325 74.6028 56.1903 74.424 56.303C74.2464 56.4158 74.0391 56.4722 73.8022 56.4722ZM73.8022 56.11C73.9821 56.11 74.1302 56.0638 74.2464 55.9716C74.3625 55.8793 74.4485 55.758 74.5043 55.6077C74.5601 55.4573 74.588 55.2945 74.588 55.1191C74.588 54.9437 74.5601 54.7802 74.5043 54.6288C74.4485 54.4773 74.3625 54.3548 74.2464 54.2614C74.1302 54.168 73.9821 54.1213 73.8022 54.1213C73.6222 54.1213 73.4741 54.168 73.358 54.2614C73.2418 54.3548 73.1558 54.4773 73.1 54.6288C73.0442 54.7802 73.0163 54.9437 73.0163 55.1191C73.0163 55.2945 73.0442 55.4573 73.1 55.6077C73.1558 55.758 73.2418 55.8793 73.358 55.9716C73.4741 56.0638 73.6222 56.11 73.8022 56.11ZM77.0418 55.8708L77.9575 53.7933H78.3402L77.2058 56.4175H76.8778L75.7639 53.7933H76.1397L77.0418 55.8708ZM76.0099 53.7933V56.4175H75.6067V53.7933H76.0099ZM78.0737 56.4175V53.7933H78.4769V56.4175H78.0737ZM80.9712 54.9209V55.2967H79.5224V54.9209H80.9712ZM79.6181 53.7933V56.4175H79.2149V53.7933H79.6181ZM81.2787 53.7933V56.4175H80.8755V53.7933H81.2787ZM82.7872 56.479C82.6209 56.479 82.47 56.4477 82.3345 56.385C82.199 56.3212 82.0913 56.2296 82.0116 56.11C81.9319 55.9892 81.892 55.8434 81.892 55.6726C81.892 55.5223 81.9216 55.4004 81.9808 55.307C82.0401 55.2125 82.1192 55.1384 82.2183 55.0849C82.3174 55.0314 82.4267 54.9915 82.5463 54.9653C82.6671 54.938 82.7884 54.9163 82.9102 54.9004C83.0697 54.8799 83.199 54.8645 83.298 54.8543C83.3983 54.8429 83.4712 54.8241 83.5167 54.7979C83.5634 54.7717 83.5868 54.7261 83.5868 54.6612V54.6475C83.5868 54.479 83.5406 54.348 83.4484 54.2546C83.3573 54.1612 83.2189 54.1145 83.0332 54.1145C82.8408 54.1145 82.6898 54.1567 82.5805 54.2409C82.4712 54.3252 82.3943 54.4152 82.3499 54.5109L81.9672 54.3742C82.0355 54.2147 82.1266 54.0906 82.2405 54.0018C82.3556 53.9118 82.4808 53.8491 82.6164 53.8138C82.7531 53.7774 82.8875 53.7592 83.0196 53.7592C83.1039 53.7592 83.2007 53.7694 83.31 53.7899C83.4205 53.8093 83.527 53.8497 83.6295 53.9112C83.7331 53.9727 83.8191 54.0655 83.8875 54.1897C83.9558 54.3138 83.99 54.4801 83.99 54.6885V56.4175H83.5868V56.0621H83.5663C83.5389 56.1191 83.4934 56.18 83.4296 56.2449C83.3658 56.3098 83.281 56.3651 83.175 56.4106C83.0691 56.4562 82.9398 56.479 82.7872 56.479ZM82.8487 56.1168C83.0082 56.1168 83.1426 56.0855 83.2519 56.0228C83.3624 55.9602 83.4455 55.8793 83.5013 55.7802C83.5583 55.6811 83.5868 55.5769 83.5868 55.4676V55.0986C83.5697 55.1191 83.5321 55.1379 83.474 55.155C83.4171 55.1709 83.351 55.1851 83.2758 55.1977C83.2018 55.2091 83.1295 55.2193 83.0589 55.2284C82.9894 55.2364 82.933 55.2432 82.8897 55.2489C82.7849 55.2626 82.687 55.2848 82.5959 55.3155C82.5059 55.3452 82.433 55.3901 82.3772 55.4505C82.3225 55.5097 82.2952 55.5906 82.2952 55.6931C82.2952 55.8332 82.347 55.9391 82.4507 56.0109C82.5554 56.0815 82.6881 56.1168 82.8487 56.1168ZM84.3688 54.1692V53.7933H86.5009V54.1692H85.6399V56.4175H85.2367V54.1692H84.3688ZM87.725 56.479C87.5587 56.479 87.4078 56.4477 87.2723 56.385C87.1367 56.3212 87.0291 56.2296 86.9494 56.11C86.8697 55.9892 86.8298 55.8434 86.8298 55.6726C86.8298 55.5223 86.8594 55.4004 86.9186 55.307C86.9779 55.2125 87.057 55.1384 87.1561 55.0849C87.2552 55.0314 87.3645 54.9915 87.4841 54.9653C87.6049 54.938 87.7262 54.9163 87.848 54.9004C88.0075 54.8799 88.1367 54.8645 88.2358 54.8543C88.3361 54.8429 88.409 54.8241 88.4545 54.7979C88.5012 54.7717 88.5246 54.7261 88.5246 54.6612V54.6475C88.5246 54.479 88.4784 54.348 88.3862 54.2546C88.2951 54.1612 88.1567 54.1145 87.971 54.1145C87.7785 54.1145 87.6276 54.1567 87.5183 54.2409C87.409 54.3252 87.3321 54.4152 87.2877 54.5109L86.905 54.3742C86.9733 54.2147 87.0644 54.0906 87.1783 54.0018C87.2934 53.9118 87.4186 53.8491 87.5542 53.8138C87.6908 53.7774 87.8252 53.7592 87.9574 53.7592C88.0416 53.7592 88.1385 53.7694 88.2478 53.7899C88.3583 53.8093 88.4648 53.8497 88.5673 53.9112C88.6709 53.9727 88.7569 54.0655 88.8252 54.1897C88.8936 54.3138 88.9278 54.4801 88.9278 54.6885V56.4175H88.5246V56.0621H88.5041C88.4767 56.1191 88.4312 56.18 88.3674 56.2449C88.3036 56.3098 88.2188 56.3651 88.1128 56.4106C88.0069 56.4562 87.8776 56.479 87.725 56.479ZM87.7865 56.1168C87.946 56.1168 88.0804 56.0855 88.1897 56.0228C88.3002 55.9602 88.3833 55.8793 88.4391 55.7802C88.4961 55.6811 88.5246 55.5769 88.5246 55.4676V55.0986C88.5075 55.1191 88.4699 55.1379 88.4118 55.155C88.3549 55.1709 88.2888 55.1851 88.2136 55.1977C88.1396 55.2091 88.0673 55.2193 87.9967 55.2284C87.9272 55.2364 87.8708 55.2432 87.8275 55.2489C87.7227 55.2626 87.6248 55.2848 87.5337 55.3155C87.4437 55.3452 87.3708 55.3901 87.315 55.4505C87.2603 55.5097 87.233 55.5906 87.233 55.6931C87.233 55.8332 87.2848 55.9391 87.3885 56.0109C87.4932 56.0815 87.6259 56.1168 87.7865 56.1168Z" fill="black"/>
<path d="M76.3254 59.2194V62.7183H75.9017V59.6636H75.8812L75.027 60.2308V59.8003L75.9017 59.2194H76.3254ZM78.4729 62.7661C78.2155 62.7661 77.9963 62.6961 77.8152 62.556C77.6341 62.4147 77.4957 62.2103 77.4 61.9426C77.3044 61.6738 77.2565 61.3492 77.2565 60.9688C77.2565 60.5907 77.3044 60.2678 77.4 60.0001C77.4968 59.7314 77.6358 59.5263 77.8169 59.3851C77.9991 59.2427 78.2178 59.1716 78.4729 59.1716C78.7281 59.1716 78.9462 59.2427 79.1273 59.3851C79.3095 59.5263 79.4484 59.7314 79.5441 60.0001C79.6409 60.2678 79.6893 60.5907 79.6893 60.9688C79.6893 61.3492 79.6415 61.6738 79.5458 61.9426C79.4502 62.2103 79.3118 62.4147 79.1307 62.556C78.9496 62.6961 78.7303 62.7661 78.4729 62.7661ZM78.4729 62.3902C78.7281 62.3902 78.9262 62.2672 79.0675 62.0212C79.2087 61.7752 79.2793 61.4244 79.2793 60.9688C79.2793 60.6659 79.2469 60.4079 79.1819 60.1949C79.1181 59.9819 79.0259 59.8196 78.9052 59.708C78.7856 59.5964 78.6415 59.5406 78.4729 59.5406C78.2201 59.5406 78.0225 59.6653 77.8801 59.9147C77.7377 60.163 77.6666 60.5144 77.6666 60.9688C77.6666 61.2718 77.6984 61.5292 77.7622 61.741C77.826 61.9529 77.9177 62.114 78.0373 62.2245C78.158 62.335 78.3032 62.3902 78.4729 62.3902ZM80.8246 62.2399L80.7973 62.4244C80.7779 62.5543 80.7483 62.6932 80.7084 62.8413C80.6697 62.9893 80.6293 63.1289 80.5871 63.2598C80.545 63.3908 80.5102 63.495 80.4829 63.5725H80.1754C80.1902 63.4996 80.2096 63.4033 80.2335 63.2838C80.2574 63.1642 80.2813 63.0303 80.3052 62.8823C80.3303 62.7353 80.3508 62.585 80.3667 62.4312L80.3872 62.2399H80.8246ZM82.5396 62.7661C82.3391 62.7661 82.1586 62.7262 81.998 62.6465C81.8374 62.5668 81.7087 62.4574 81.6119 62.3185C81.5151 62.1795 81.4621 62.0212 81.453 61.8435H81.863C81.879 62.0019 81.9507 62.1328 82.0783 62.2365C82.207 62.339 82.3608 62.3902 82.5396 62.3902C82.6831 62.3902 82.8106 62.3566 82.9223 62.2894C83.035 62.2222 83.1233 62.13 83.1871 62.0127C83.252 61.8942 83.2845 61.7604 83.2845 61.6112C83.2845 61.4586 83.2509 61.3225 83.1837 61.2029C83.1176 61.0822 83.0265 60.9871 82.9103 60.9176C82.7941 60.8481 82.6614 60.8128 82.5122 60.8117C82.4052 60.8105 82.2953 60.827 82.1825 60.8612C82.0698 60.8942 81.9769 60.9369 81.904 60.9893L81.5077 60.9415L81.7195 59.2194H83.5373V59.5953H82.0749L81.9519 60.6271H81.9724C82.0441 60.5702 82.1341 60.5229 82.2423 60.4853C82.3505 60.4478 82.4633 60.429 82.5806 60.429C82.7947 60.429 82.9855 60.4802 83.1529 60.5827C83.3215 60.6841 83.4536 60.823 83.5493 60.9996C83.6461 61.1761 83.6945 61.3777 83.6945 61.6044C83.6945 61.8276 83.6444 62.0269 83.5441 62.2023C83.445 62.3766 83.3084 62.5144 83.1341 62.6158C82.9599 62.716 82.7617 62.7661 82.5396 62.7661Z" fill="black"/>
<path d="M79.0728 23.1383V27.9492H78.0557V24.1038H78.0275L76.9258 24.7944V23.8923L78.1168 23.1383H79.0728ZM82.1026 28.0549C81.6985 28.0534 81.3509 27.9539 81.0596 27.7566C80.7699 27.5593 80.5467 27.2735 80.3901 26.8992C80.235 26.5249 80.1583 26.0746 80.1599 25.5484C80.1599 25.0238 80.2374 24.5767 80.3924 24.2071C80.549 23.8375 80.7722 23.5564 81.0619 23.3638C81.3532 23.1696 81.7001 23.0725 82.1026 23.0725C82.5051 23.0725 82.8512 23.1696 83.1409 23.3638C83.4322 23.558 83.6561 23.8399 83.8127 24.2095C83.9693 24.5775 84.0468 25.0238 84.0453 25.5484C84.0453 26.0762 83.967 26.5272 83.8104 26.9015C83.6553 27.2758 83.4329 27.5616 83.1432 27.7589C82.8535 27.9563 82.5066 28.0549 82.1026 28.0549ZM82.1026 27.2116C82.3782 27.2116 82.5982 27.073 82.7627 26.7958C82.9271 26.5186 83.0085 26.1028 83.007 25.5484C83.007 25.1836 82.9694 24.8797 82.8942 24.637C82.8206 24.3943 82.7157 24.2118 82.5794 24.0897C82.4448 23.9675 82.2858 23.9064 82.1026 23.9064C81.8285 23.9064 81.6093 24.0435 81.4448 24.3175C81.2804 24.5916 81.1974 25.0019 81.1958 25.5484C81.1958 25.918 81.2326 26.2266 81.3062 26.474C81.3814 26.7199 81.4871 26.9047 81.6234 27.0284C81.7596 27.1505 81.9193 27.2116 82.1026 27.2116ZM85.6738 27.2915L85.6479 27.5499C85.6276 27.7566 85.5884 27.9625 85.5305 28.1677C85.4741 28.3744 85.4146 28.5615 85.352 28.7291C85.2909 28.8967 85.2416 29.0282 85.204 29.1238H84.5556C84.5791 29.0314 84.6112 28.9022 84.6519 28.7362C84.6926 28.5717 84.731 28.3869 84.767 28.1818C84.8031 27.9766 84.8258 27.7676 84.8352 27.5546L84.8469 27.2915H85.6738ZM88.2316 28.015C87.8996 28.015 87.6036 27.9539 87.3436 27.8318C87.0852 27.7096 86.8801 27.5413 86.7282 27.3267C86.5762 27.1122 86.4972 26.8663 86.4909 26.5891H87.4775C87.4885 26.7755 87.5668 26.9266 87.7124 27.0425C87.8581 27.1584 88.0311 27.2163 88.2316 27.2163C88.3913 27.2163 88.5323 27.1811 88.6544 27.1106C88.7781 27.0386 88.8744 26.9391 88.9433 26.8123C89.0138 26.6838 89.0491 26.5366 89.0491 26.3706C89.0491 26.2015 89.013 26.0527 88.941 25.9243C88.8705 25.7959 88.7726 25.6957 88.6474 25.6236C88.5221 25.5516 88.3788 25.5148 88.2175 25.5132C88.0765 25.5132 87.9395 25.5422 87.8064 25.6001C87.6748 25.6581 87.5723 25.7372 87.4987 25.8374L86.5943 25.6753L86.8221 23.1383H89.7632V23.9699H87.6607L87.5362 25.1749H87.5644C87.649 25.0559 87.7766 24.9573 87.9473 24.879C88.118 24.8007 88.3091 24.7615 88.5205 24.7615C88.8102 24.7615 89.0686 24.8296 89.2957 24.9659C89.5228 25.1021 89.7021 25.2893 89.8337 25.5273C89.9652 25.7638 90.0302 26.0363 90.0286 26.3448C90.0302 26.669 89.955 26.9571 89.8031 27.2093C89.6528 27.4598 89.4421 27.6571 89.1712 27.8012C88.9018 27.9437 88.5886 28.015 88.2316 28.015Z" fill="black"/>
<path d="M77.8812 39.0752V38.3423L79.5936 36.7566C79.7393 36.6157 79.8614 36.4888 79.9601 36.3761C80.0603 36.2633 80.1363 36.1529 80.188 36.0449C80.2396 35.9352 80.2655 35.817 80.2655 35.6902C80.2655 35.5492 80.2334 35.4278 80.1692 35.326C80.105 35.2227 80.0173 35.1436 79.9061 35.0888C79.7949 35.0324 79.6688 35.0042 79.5279 35.0042C79.3807 35.0042 79.2522 35.034 79.1426 35.0935C79.033 35.153 78.9484 35.2383 78.8889 35.3495C78.8294 35.4607 78.7997 35.5931 78.7997 35.7465H77.8342C77.8342 35.4318 77.9054 35.1585 78.0479 34.9267C78.1905 34.6949 78.3901 34.5156 78.647 34.3888C78.9038 34.2619 79.1998 34.1985 79.5349 34.1985C79.8795 34.1985 80.1794 34.2596 80.4346 34.3817C80.6915 34.5023 80.8911 34.6699 81.0336 34.8844C81.1762 35.099 81.2474 35.3448 81.2474 35.622C81.2474 35.8037 81.2114 35.983 81.1394 36.16C81.0689 36.3369 80.9428 36.5335 80.7611 36.7496C80.5795 36.9641 80.3234 37.2218 79.993 37.5224L79.2906 38.2107V38.2436H81.3108V39.0752H77.8812ZM81.8717 38.2295V37.4285L83.8802 34.2643H84.5708V35.373H84.162L82.8959 37.3768V37.4144H85.75V38.2295H81.8717ZM84.1808 39.0752V37.9852L84.1996 37.6305V34.2643H85.1534V39.0752H84.1808ZM87.4343 38.4174L87.4085 38.6758C87.3881 38.8826 87.349 39.0885 87.291 39.2937C87.2347 39.5004 87.1751 39.6875 87.1125 39.8551C87.0514 40.0227 87.0021 40.1542 86.9645 40.2497H86.3162C86.3397 40.1573 86.3718 40.0281 86.4125 39.8621C86.4532 39.6977 86.4916 39.5129 86.5276 39.3078C86.5636 39.1026 86.5863 38.8935 86.5957 38.6805L86.6075 38.4174H87.4343ZM90.0324 39.1809C89.6284 39.1793 89.2807 39.0799 88.9894 38.8826C88.6997 38.6852 88.4765 38.3994 88.3199 38.0252C88.1649 37.6509 88.0882 37.2006 88.0897 36.6744C88.0897 36.1498 88.1672 35.7027 88.3223 35.3331C88.4789 34.9635 88.7021 34.6824 88.9918 34.4898C89.2831 34.2956 89.6299 34.1985 90.0324 34.1985C90.4349 34.1985 90.781 34.2956 91.0707 34.4898C91.362 34.684 91.586 34.9658 91.7426 35.3354C91.8992 35.7035 91.9767 36.1498 91.9751 36.6744C91.9751 37.2022 91.8968 37.6532 91.7402 38.0275C91.5852 38.4018 91.3628 38.6876 91.0731 38.8849C90.7834 39.0822 90.4365 39.1809 90.0324 39.1809ZM90.0324 38.3376C90.3081 38.3376 90.5281 38.199 90.6925 37.9218C90.857 37.6446 90.9384 37.2288 90.9368 36.6744C90.9368 36.3095 90.8992 36.0057 90.8241 35.763C90.7505 35.5202 90.6455 35.3378 90.5093 35.2156C90.3746 35.0935 90.2157 35.0324 90.0324 35.0324C89.7584 35.0324 89.5391 35.1694 89.3747 35.4435C89.2102 35.7176 89.1272 36.1279 89.1257 36.6744C89.1257 37.044 89.1625 37.3525 89.2361 37.6C89.3113 37.8458 89.417 38.0306 89.5532 38.1544C89.6895 38.2765 89.8492 38.3376 90.0324 38.3376Z" fill="black"/>
<path d="M67.3443 28.5514V33.3623H66.3272V29.5168H66.299L65.1972 30.2075V29.3054L66.3882 28.5514H67.3443ZM69.6505 31.2575L69.7093 30.3484L68.9482 30.8582L68.6334 30.3038L69.4532 29.9044L68.6334 29.5051L68.9482 28.9507L69.7093 29.4605L69.6505 28.5514H70.2824L70.2214 29.4605L70.9825 28.9507L71.2973 29.5051L70.4798 29.9044L71.2973 30.3038L70.9825 30.8582L70.2214 30.3484L70.2824 31.2575H69.6505Z" fill="black"/>
<rect x="62.1562" y="21.0487" width="31.2711" height="21.0479" stroke="black" stroke-width="0.601368"/>
<rect x="73.5801" y="31.2715" width="20.1458" height="0.601368" fill="black"/>
<rect x="74.1826" y="20.748" width="21.6492" height="0.601367" transform="rotate(90 74.1826 20.748)" fill="black"/>
<path d="M95.834 131.549L92.2256 131.549C90.316 131.549 88.7686 130.001 88.7686 128.091L88.7686 122.679C88.7686 122.596 88.8352 122.529 88.918 122.529L99.1416 122.529C99.2246 122.529 99.292 122.596 99.292 122.679L99.292 128.091C99.292 130.001 97.7437 131.549 95.834 131.549Z" stroke="black" stroke-width="0.300684"/>
<path d="M95.2334 130.647L92.8281 130.647C91.4166 130.647 90.2725 129.503 90.2725 128.091L90.2725 125.084C90.2725 125.002 90.3391 124.934 90.4219 124.934L97.6387 124.934C97.7217 124.934 97.7891 125.001 97.7891 125.084L97.7891 128.091C97.789 129.503 96.6449 130.647 95.2334 130.647Z" stroke="black" stroke-width="0.300684"/>
<path d="M94.0288 127.339C93.6137 127.339 93.2769 127.002 93.2769 126.587C93.277 126.172 93.6138 125.835 94.0288 125.835C94.4439 125.835 94.7807 126.172 94.7808 126.587C94.7808 127.002 94.444 127.339 94.0288 127.339Z" stroke="black" stroke-width="0.300684"/>
<path d="M124.245 146.433C124.245 145.686 124.852 145.08 125.599 145.08L126.5 145.08C126.583 145.08 126.65 145.147 126.65 145.23L126.65 147.636C126.65 147.719 126.583 147.786 126.5 147.786L125.599 147.786C124.851 147.786 124.245 147.18 124.245 146.433Z" stroke="black" stroke-width="0.300684"/>
<circle cx="133.416" cy="146.434" r="0.451026" transform="rotate(-90 133.416 146.434)" stroke="black" stroke-width="0.300684"/>
<path d="M121.541 147.034L121.541 145.832C121.541 143.922 123.089 142.374 124.999 142.374L132.816 142.374C134.061 142.374 135.071 143.383 135.071 144.628L135.071 148.237C135.071 149.482 134.061 150.492 132.816 150.492L124.999 150.492C123.089 150.492 121.541 148.943 121.541 147.034Z" stroke="black" stroke-width="0.300684"/>
<path d="M122.742 146.433C122.742 145.022 123.886 143.877 125.297 143.877L127.703 143.877C128.782 143.877 129.658 144.752 129.658 145.832L129.658 147.035C129.658 148.114 128.782 148.989 127.703 148.989L125.297 148.989C123.886 148.989 122.742 147.845 122.742 146.433Z" stroke="black" stroke-width="0.300684"/>
<rect x="131.461" y="149.891" width="6.91573" height="3.60821" rx="1.65376" transform="rotate(-90 131.461 149.891)" stroke="black" stroke-width="0.300684"/>
<path d="M109.212 128.993C109.212 129.408 108.875 129.745 108.46 129.745C108.045 129.745 107.708 129.408 107.708 128.993C107.708 128.578 108.045 128.241 108.46 128.241C108.875 128.241 109.212 128.578 109.212 128.993Z" stroke="black" stroke-width="0.300684"/>
<rect x="135.071" y="122.528" width="12.9294" height="30.9704" transform="rotate(90 135.071 122.528)" stroke="black" stroke-width="0.300684"/>
<path d="M134.167 127.79L134.167 130.195C134.167 132.271 132.484 133.954 130.408 133.954L107.557 133.954C106.145 133.954 105.001 132.81 105.001 131.398L105.001 126.587C105.001 125.175 106.145 124.031 107.557 124.031L130.408 124.031C132.484 124.031 134.167 125.714 134.167 127.79Z" stroke="black" stroke-width="0.300684"/>
<path d="M99.4395 4.66113V9.77246H55.3896V4.66113H99.4395Z" fill="white" stroke="black" stroke-width="0.300684"/>
<rect x="56.7421" y="1.20371" width="3.00684" height="18.9431" transform="rotate(90 56.7421 1.20371)" fill="#999999" stroke="black" stroke-width="0.601368"/>
<rect x="56.7441" y="0.300781" width="18.9431" height="0.300685" transform="rotate(180 56.7441 0.300781)" fill="black"/>
<rect x="115.976" y="1.20371" width="3.00684" height="17.4397" transform="rotate(90 115.976 1.20371)" fill="#999999" stroke="black" stroke-width="0.601368"/>
<rect x="115.979" y="0.300781" width="17.7403" height="0.300685" transform="rotate(180 115.979 0.300781)" fill="black"/>
<path d="M64.7275 97.9111L63.5247 96.3052H63.0942V97.9111H62.6705V94.4123H63.0942V95.9294H63.2787L64.6796 94.4123H65.1853L63.7707 95.9499L65.2332 97.9111H64.7275ZM65.7931 98.8952C65.7248 98.8952 65.6638 98.8895 65.6103 98.8781C65.5568 98.8679 65.5197 98.8576 65.4992 98.8474L65.6018 98.492C65.6997 98.5171 65.7863 98.5262 65.8614 98.5193C65.9366 98.5125 66.0032 98.4789 66.0613 98.4185C66.1205 98.3593 66.1746 98.2631 66.2236 98.1298L66.2988 97.9248L65.3284 95.287H65.7658L66.4901 97.3781H66.5175L67.2418 95.287H67.6792L66.5653 98.2938C66.5152 98.4294 66.4531 98.5415 66.3791 98.6304C66.3051 98.7204 66.2191 98.787 66.1211 98.8303C66.0243 98.8735 65.915 98.8952 65.7931 98.8952ZM68.5121 95.287L69.1408 96.3599L69.7695 95.287H70.2342L69.3868 96.5991L70.2342 97.9111H69.7695L69.1408 96.8929L68.5121 97.9111H68.0474L68.8811 96.5991L68.0474 95.287H68.5121ZM72.5657 96.4145V96.7904H71.117V96.4145H72.5657ZM71.2127 95.287V97.9111H70.8095V95.287H71.2127ZM72.8733 95.287V97.9111H72.4701V95.287H72.8733ZM75.1882 97.9111V95.656H74.4911C74.334 95.656 74.2104 95.6925 74.1204 95.7653C74.0304 95.8382 73.9854 95.9385 73.9854 96.066C73.9854 96.1913 74.0259 96.2898 74.1067 96.3616C74.1888 96.4333 74.3009 96.4692 74.4433 96.4692H75.2907V96.8451H74.4433C74.2656 96.8451 74.1124 96.8138 73.9837 96.7511C73.855 96.6885 73.7559 96.5991 73.6865 96.4829C73.617 96.3656 73.5823 96.2266 73.5823 96.066C73.5823 95.9043 73.6187 95.7653 73.6916 95.6492C73.7645 95.533 73.8687 95.4436 74.0042 95.3809C74.1409 95.3183 74.3032 95.287 74.4911 95.287H75.5709V97.9111H75.1882ZM73.4387 97.9111L74.1836 96.6059H74.621L73.8761 97.9111H73.4387ZM77.8145 96.2232V96.5991H76.2837V96.2232H77.8145ZM80.2802 96.4145V96.7904H78.8314V96.4145H80.2802ZM78.9271 95.287V97.9111H78.5239V95.287H78.9271ZM80.5877 95.287V97.9111H80.1845V95.287H80.5877ZM81.7272 97.3166L82.9914 95.287H83.4561V97.9111H83.0529V95.8815L81.7955 97.9111H81.324V95.287H81.7272V97.3166ZM84.1946 95.287H84.5978V97.5353H85.5887V95.287H85.9919V97.5353H86.9828V95.287H87.386V97.9111H84.1946V95.287ZM88.8945 97.9726C88.7282 97.9726 88.5773 97.9413 88.4418 97.8787C88.3062 97.8149 88.1986 97.7232 88.1189 97.6036C88.0391 97.4829 87.9993 97.3371 87.9993 97.1663C87.9993 97.0159 88.0289 96.894 88.0881 96.8007C88.1473 96.7061 88.2265 96.6321 88.3256 96.5786C88.4247 96.525 88.534 96.4852 88.6536 96.459C88.7743 96.4316 88.8956 96.41 89.0175 96.394C89.177 96.3735 89.3062 96.3582 89.4053 96.3479C89.5055 96.3365 89.5784 96.3177 89.624 96.2915C89.6707 96.2653 89.694 96.2198 89.694 96.1549V96.1412C89.694 95.9726 89.6479 95.8417 89.5557 95.7483C89.4645 95.6549 89.3262 95.6082 89.1405 95.6082C88.948 95.6082 88.7971 95.6503 88.6878 95.7346C88.5784 95.8189 88.5016 95.9089 88.4571 96.0045L88.0744 95.8678C88.1428 95.7084 88.2339 95.5843 88.3478 95.4954C88.4628 95.4054 88.5881 95.3428 88.7237 95.3075C88.8603 95.271 88.9947 95.2528 89.1268 95.2528C89.2111 95.2528 89.3079 95.2631 89.4173 95.2836C89.5278 95.3029 89.6342 95.3434 89.7368 95.4049C89.8404 95.4664 89.9264 95.5592 89.9947 95.6833C90.0631 95.8075 90.0972 95.9738 90.0972 96.1822V97.9111H89.694V97.5558H89.6735C89.6462 97.6127 89.6006 97.6737 89.5369 97.7386C89.4731 97.8035 89.3882 97.8587 89.2823 97.9043C89.1764 97.9499 89.0471 97.9726 88.8945 97.9726ZM88.956 97.6104C89.1155 97.6104 89.2498 97.5791 89.3592 97.5165C89.4697 97.4538 89.5528 97.373 89.6086 97.2739C89.6656 97.1748 89.694 97.0706 89.694 96.9612V96.5922C89.677 96.6127 89.6394 96.6315 89.5813 96.6486C89.5243 96.6645 89.4583 96.6788 89.3831 96.6913C89.3091 96.7027 89.2368 96.713 89.1661 96.7221C89.0967 96.73 89.0403 96.7369 88.997 96.7426C88.8922 96.7562 88.7943 96.7784 88.7032 96.8092C88.6132 96.8388 88.5403 96.8838 88.4845 96.9442C88.4298 97.0034 88.4025 97.0843 88.4025 97.1868C88.4025 97.3268 88.4543 97.4328 88.5579 97.5045C88.6627 97.5751 88.7954 97.6104 88.956 97.6104Z" fill="black"/>
<path d="M74.3209 104.26C74.1204 104.26 73.9399 104.22 73.7793 104.14C73.6187 104.06 73.49 103.951 73.3932 103.812C73.2964 103.673 73.2434 103.515 73.2343 103.337H73.6443C73.6603 103.496 73.732 103.626 73.8596 103.73C73.9883 103.833 74.142 103.884 74.3209 103.884C74.4644 103.884 74.5919 103.85 74.7036 103.783C74.8163 103.716 74.9046 103.624 74.9684 103.506C75.0333 103.388 75.0657 103.254 75.0657 103.105C75.0657 102.952 75.0321 102.816 74.9649 102.697C74.8989 102.576 74.8078 102.481 74.6916 102.411C74.5754 102.342 74.4427 102.306 74.2935 102.305C74.1865 102.304 74.0766 102.321 73.9638 102.355C73.851 102.388 73.7582 102.431 73.6853 102.483L73.289 102.435L73.5008 100.713H75.3186V101.089H73.8562L73.7332 102.121H73.7537C73.8254 102.064 73.9154 102.017 74.0236 101.979C74.1318 101.941 74.2446 101.923 74.3619 101.923C74.576 101.923 74.7668 101.974 74.9342 102.076C75.1028 102.178 75.2349 102.317 75.3305 102.493C75.4274 102.67 75.4758 102.871 75.4758 103.098C75.4758 103.321 75.4256 103.521 75.3254 103.696C75.2263 103.87 75.0897 104.008 74.9154 104.109C74.7411 104.21 74.543 104.26 74.3209 104.26ZM76.6311 103.734L76.6038 103.918C76.5844 104.048 76.5548 104.187 76.5149 104.335C76.4762 104.483 76.4358 104.623 76.3936 104.753C76.3515 104.884 76.3167 104.989 76.2894 105.066H75.9819C75.9967 104.993 76.0161 104.897 76.04 104.777C76.0639 104.658 76.0878 104.524 76.1117 104.376C76.1368 104.229 76.1573 104.079 76.1732 103.925L76.1937 103.734H76.6311ZM78.3422 104.26C78.0848 104.26 77.8656 104.19 77.6845 104.05C77.5034 103.908 77.365 103.704 77.2693 103.436C77.1737 103.167 77.1258 102.843 77.1258 102.462C77.1258 102.084 77.1737 101.761 77.2693 101.494C77.3662 101.225 77.5051 101.02 77.6862 100.879C77.8684 100.736 78.0871 100.665 78.3422 100.665C78.5974 100.665 78.8155 100.736 78.9966 100.879C79.1788 101.02 79.3178 101.225 79.4134 101.494C79.5102 101.761 79.5586 102.084 79.5586 102.462C79.5586 102.843 79.5108 103.167 79.4151 103.436C79.3195 103.704 79.1811 103.908 79 104.05C78.8189 104.19 78.5996 104.26 78.3422 104.26ZM78.3422 103.884C78.5974 103.884 78.7955 103.761 78.9368 103.515C79.078 103.269 79.1486 102.918 79.1486 102.462C79.1486 102.16 79.1162 101.902 79.0512 101.689C78.9875 101.476 78.8952 101.313 78.7745 101.202C78.6549 101.09 78.5108 101.034 78.3422 101.034C78.0894 101.034 77.8918 101.159 77.7494 101.408C77.607 101.657 77.5359 102.008 77.5359 102.462C77.5359 102.765 77.5677 103.023 77.6315 103.235C77.6953 103.447 77.787 103.608 77.9066 103.718C78.0273 103.829 78.1725 103.884 78.3422 103.884Z" fill="black"/>
<rect x="58.0966" y="118.921" width="2.70615" height="14.7335" transform="rotate(90 58.0966 118.921)" fill="#D9D9D9" stroke="black" stroke-width="0.300684"/>
<path d="M135.974 161.016L124.247 161.016L124.247 170.337L121.541 170.337L121.541 158.31L135.974 158.31L135.974 161.016Z" fill="#D9D9D9" stroke="black" stroke-width="0.300684"/>
<path d="M79.2455 172.15L61.4832 178.36L61.3414 178.41L61.8416 179.829L61.9834 179.779L79.3462 173.637L79.4453 173.601L79.4463 173.495L79.4456 172.292L79.4456 172.081L79.2455 172.15Z" stroke="black" stroke-width="0.300684"/>
<path d="M60.3524 171.39L60.0517 171.39C60.0517 174.457 60.6752 177.372 61.796 180L62.0662 179.868C60.9651 177.281 60.3524 174.412 60.3524 171.39Z" fill="black"/>
<path d="M83.663 153.9L89.873 136.138L89.923 135.996L91.3413 136.496L91.2913 136.638L85.1497 154L85.1137 154.1L85.0077 154.101L83.8047 154.1L83.5935 154.1L83.663 153.9Z" stroke="black" stroke-width="0.300684"/>
<path d="M82.9034 135.007V134.707C85.9711 134.707 88.8854 135.33 91.5137 136.451L91.3818 136.721C88.7944 135.62 85.9252 135.007 82.9034 135.007Z" fill="black"/>
<path d="M54.9385 4.20996V9.62207H43.2119V170.789H60.0508V176.201H37.7998V4.20996H54.9385ZM115.978 4.20996V116.064H141.536V175.9H79.5947V170.488H136.123V121.477H110.565V9.62207H99.7412V4.20996H115.978Z" fill="#D9D9D9" stroke="black" stroke-width="0.601368"/>
<path d="M105.904 170.337L105.904 160.715L85.7578 160.715L85.7578 170.337L83.0518 170.337L83.0518 153.5L85.7578 153.5L85.7578 158.009L108.61 158.009L108.61 170.337L105.904 170.337Z" fill="#D9D9D9" stroke="black" stroke-width="0.300684"/>
<path d="M83.0537 134.857L83.0537 118.921L110.416 118.921L110.416 121.627L85.7598 121.627L85.7598 134.857L83.0537 134.857Z" fill="#D9D9D9" stroke="black" stroke-width="0.300684"/>
<path d="M101.846 4.51074L115.979 4.51074L115.979 9.92305L101.846 9.92305L101.846 4.51074Z" fill="black"/>
<path d="M110.266 112.154L110.266 81.7852L115.678 81.7852L115.678 112.154H110.266Z" fill="black"/>
<path d="M141.234 175.9L89.2158 175.9L89.2158 170.488L141.234 170.488L141.234 175.9Z" fill="black"/>
<path d="M43.5127 4.51086L43.5127 113.358L38.1004 113.358L38.1004 4.51086L43.5127 4.51086Z" fill="black"/>
<rect x="43.3637" y="118.921" width="14.7335" height="14.7335" transform="rotate(-90 43.3637 118.921)" fill="white" stroke="black" stroke-width="0.300684"/>
<path d="M49.5268 112.756L51.9322 110.35M49.5268 110.35L51.9322 112.756M50.7295 113.057L50.7295 110.05M49.2261 111.553L52.2329 111.553" stroke="black" stroke-width="0.300684"/>
<rect x="105.906" y="116.815" width="20.1458" height="10.5239" rx="3.45786" transform="rotate(180 105.906 116.815)" fill="white" stroke="black" stroke-width="0.300684"/>
<rect x="95.0811" y="115.612" width="8.11846" height="8.11846" rx="1.95444" transform="rotate(180 95.0811 115.612)" fill="white" stroke="black" stroke-width="0.300684"/>
<rect x="104.702" y="115.612" width="8.11846" height="8.11846" rx="1.95444" transform="rotate(180 104.702 115.612)" fill="white" stroke="black" stroke-width="0.300684"/>
<rect x="104.553" y="114.561" width="7.81778" height="0.300684" transform="rotate(180 104.553 114.561)" fill="black"/>
<rect x="104.552" y="113.358" width="7.81778" height="0.300684" transform="rotate(180 104.552 113.358)" fill="black"/>
<rect x="104.553" y="112.155" width="7.81778" height="0.300684" transform="rotate(180 104.553 112.155)" fill="black"/>
<rect x="104.552" y="110.952" width="7.81778" height="0.300684" transform="rotate(180 104.552 110.952)" fill="black"/>
<rect x="104.553" y="109.75" width="7.81778" height="0.300684" transform="rotate(180 104.553 109.75)" fill="black"/>
<path d="M104.37 108.547L96.8848 108.547L96.8848 108.247L104.37 108.247L104.37 108.547Z" fill="black"/>
<circle cx="91.0212" cy="113.659" r="0.75171" transform="rotate(180 91.0212 113.659)" stroke="black" stroke-width="0.300684"/>
<rect x="95.6806" y="100.278" width="14.7335" height="14.7335" transform="rotate(-90 95.6806 100.278)" fill="white" stroke="black" stroke-width="0.300684"/>
<circle cx="106.655" cy="96.5184" r="2.25513" transform="rotate(-90 106.655 96.5184)" fill="white" stroke="black" stroke-width="0.300684"/>
<circle cx="99.4397" cy="96.5184" r="2.25513" transform="rotate(-90 99.4397 96.5184)" fill="white" stroke="black" stroke-width="0.300684"/>
<circle cx="106.656" cy="89.303" r="2.25513" transform="rotate(-90 106.656 89.303)" fill="white" stroke="black" stroke-width="0.300684"/>
<circle cx="99.4397" cy="89.3025" r="2.25513" transform="rotate(-90 99.4397 89.3025)" fill="white" stroke="black" stroke-width="0.300684"/>
<rect x="51.0292" y="59.2343" width="12.6287" height="12.6287" rx="6.31436" fill="white"/>
<rect x="51.0292" y="59.2343" width="12.6287" height="12.6287" rx="6.31436" stroke="black" stroke-width="0.601368"/>
<path d="M54.6177 67.1026C54.3307 67.1026 54.0751 67.0533 53.8509 66.9547C53.6279 66.8547 53.4517 66.7176 53.3223 66.5433C53.1942 66.3678 53.1282 66.1654 53.1244 65.936H53.9623C53.9675 66.0321 53.9989 66.1167 54.0565 66.1897C54.1155 66.2615 54.1936 66.3172 54.291 66.3569C54.3884 66.3966 54.4979 66.4165 54.6197 66.4165C54.7465 66.4165 54.8586 66.3941 54.956 66.3492C55.0534 66.3044 55.1296 66.2422 55.1847 66.1628C55.2398 66.0834 55.2674 65.9917 55.2674 65.8879C55.2674 65.7829 55.2379 65.69 55.179 65.6093C55.1213 65.5273 55.038 65.4632 54.9291 65.4171C54.8215 65.3709 54.6933 65.3479 54.5447 65.3479H54.1776V64.7367H54.5447C54.6703 64.7367 54.7811 64.7149 54.8772 64.6713C54.9746 64.6278 55.0502 64.5675 55.104 64.4907C55.1578 64.4125 55.1847 64.3215 55.1847 64.2177C55.1847 64.1191 55.161 64.0326 55.1136 63.9583C55.0675 63.8827 55.0021 63.8237 54.9176 63.7815C54.8343 63.7392 54.7369 63.718 54.6254 63.718C54.5127 63.718 54.4095 63.7385 54.316 63.7795C54.2225 63.8193 54.1475 63.8763 54.0911 63.9506C54.0347 64.0249 54.0046 64.112 54.0008 64.212H53.2032C53.207 63.9852 53.2717 63.7853 53.3973 63.6123C53.5229 63.4393 53.692 63.3042 53.9047 63.2068C54.1187 63.1081 54.3602 63.0588 54.6293 63.0588C54.9009 63.0588 55.1386 63.1081 55.3423 63.2068C55.5461 63.3054 55.7043 63.4387 55.8171 63.6066C55.9311 63.7731 55.9875 63.9602 55.9862 64.1678C55.9875 64.3882 55.9189 64.572 55.7805 64.7194C55.6434 64.8667 55.4647 64.9603 55.2443 65V65.0307C55.5339 65.0679 55.7543 65.1685 55.9055 65.3325C56.0579 65.4952 56.1335 65.699 56.1323 65.9437C56.1335 66.1679 56.0688 66.3672 55.9381 66.5414C55.8087 66.7157 55.63 66.8528 55.4019 66.9527C55.1738 67.0527 54.9124 67.1026 54.6177 67.1026ZM58.443 63.1126V67.0488H57.6108V63.9025H57.5877L56.6863 64.4676V63.7296L57.6607 63.1126H58.443ZM61.091 63.1126V67.0488H60.2588V63.9025H60.2357L59.3343 64.4676V63.7296L60.3087 63.1126H61.091Z" fill="black"/>
</svg>
