<svg width="500" height="344" viewBox="0 0 500 344" fill="none" xmlns="http://www.w3.org/2000/svg">
<path d="M279.192 273.871H278.386C278.339 273.64 278.255 273.436 278.136 273.26C278.019 273.085 277.876 272.937 277.707 272.818C277.54 272.697 277.355 272.606 277.151 272.545C276.947 272.485 276.735 272.454 276.514 272.454C276.111 272.454 275.746 272.556 275.419 272.76C275.094 272.963 274.835 273.264 274.642 273.66C274.451 274.057 274.356 274.543 274.356 275.12C274.356 275.696 274.451 276.182 274.642 276.579C274.835 276.976 275.094 277.276 275.419 277.479C275.746 277.683 276.111 277.785 276.514 277.785C276.735 277.785 276.947 277.755 277.151 277.694C277.355 277.633 277.54 277.543 277.707 277.424C277.876 277.303 278.019 277.154 278.136 276.979C278.255 276.801 278.339 276.597 278.386 276.368H279.192C279.132 276.708 279.021 277.012 278.861 277.281C278.701 277.55 278.501 277.778 278.263 277.967C278.024 278.153 277.757 278.295 277.46 278.393C277.165 278.49 276.85 278.539 276.514 278.539C275.946 278.539 275.441 278.4 274.999 278.123C274.557 277.846 274.209 277.451 273.956 276.94C273.702 276.428 273.576 275.822 273.576 275.12C273.576 274.417 273.702 273.811 273.956 273.299C274.209 272.788 274.557 272.394 274.999 272.116C275.441 271.839 275.946 271.7 276.514 271.7C276.85 271.7 277.165 271.749 277.46 271.846C277.757 271.944 278.024 272.087 278.263 272.275C278.501 272.462 278.701 272.689 278.861 272.958C279.021 273.225 279.132 273.529 279.192 273.871ZM282.744 271.479L280.599 279.449H279.897L282.042 271.479H282.744ZM284.148 280.32C284.018 280.32 283.902 280.309 283.8 280.288C283.698 280.268 283.628 280.249 283.589 280.229L283.784 279.553C283.97 279.601 284.135 279.618 284.278 279.605C284.421 279.592 284.548 279.528 284.658 279.413C284.771 279.301 284.874 279.118 284.967 278.864L285.11 278.474L283.264 273.455H284.096L285.474 277.434H285.526L286.904 273.455H287.736L285.617 279.176C285.522 279.434 285.403 279.647 285.263 279.816C285.122 279.988 284.958 280.114 284.772 280.197C284.588 280.279 284.38 280.32 284.148 280.32Z" fill="black"/>
<path d="M274.265 288.655V287.992L277.191 283.363H277.672V284.39H277.347L275.137 287.888V287.94H279.076V288.655H274.265ZM277.399 290.02V288.453V288.145V283.363H278.166V290.02H277.399ZM281.138 289.11L281.086 289.461C281.05 289.708 280.993 289.972 280.917 290.254C280.844 290.536 280.767 290.801 280.687 291.05C280.606 291.3 280.54 291.498 280.488 291.645H279.903C279.931 291.507 279.968 291.323 280.014 291.096C280.059 290.868 280.105 290.614 280.15 290.332C280.198 290.053 280.237 289.766 280.267 289.474L280.306 289.11H281.138ZM284.454 290.111C284.025 290.111 283.643 290.037 283.307 289.89C282.973 289.743 282.708 289.538 282.51 289.276C282.315 289.011 282.209 288.705 282.192 288.356H283.011C283.028 288.57 283.102 288.756 283.232 288.912C283.362 289.065 283.532 289.185 283.742 289.269C283.953 289.354 284.185 289.396 284.441 289.396C284.727 289.396 284.981 289.346 285.202 289.246C285.423 289.147 285.596 289.008 285.722 288.83C285.848 288.653 285.91 288.447 285.91 288.213C285.91 287.968 285.85 287.752 285.728 287.566C285.607 287.377 285.429 287.23 285.195 287.124C284.961 287.018 284.675 286.965 284.337 286.965H283.804V286.25H284.337C284.602 286.25 284.833 286.202 285.033 286.106C285.234 286.011 285.391 285.877 285.504 285.703C285.619 285.53 285.676 285.326 285.676 285.092C285.676 284.867 285.627 284.671 285.527 284.504C285.427 284.337 285.286 284.207 285.104 284.114C284.924 284.021 284.712 283.974 284.467 283.974C284.238 283.974 284.021 284.016 283.817 284.101C283.616 284.183 283.451 284.304 283.323 284.462C283.195 284.618 283.126 284.806 283.115 285.027H282.335C282.348 284.678 282.453 284.373 282.65 284.111C282.847 283.846 283.105 283.64 283.424 283.493C283.745 283.346 284.097 283.272 284.48 283.272C284.892 283.272 285.245 283.356 285.54 283.522C285.835 283.687 286.061 283.905 286.219 284.176C286.377 284.447 286.456 284.739 286.456 285.053C286.456 285.428 286.358 285.748 286.161 286.012C285.966 286.277 285.7 286.46 285.364 286.562V286.614C285.785 286.683 286.113 286.862 286.349 287.15C286.585 287.436 286.704 287.79 286.704 288.213C286.704 288.575 286.605 288.9 286.408 289.188C286.213 289.474 285.946 289.699 285.608 289.864C285.27 290.029 284.885 290.111 284.454 290.111Z" fill="black"/>
<path d="M183.535 287.601L181.247 284.546H180.428V287.601H179.621V280.944H180.428V283.831H180.779L183.444 280.944H184.406L181.715 283.87L184.497 287.601H183.535ZM187.097 287.705C186.646 287.705 186.25 287.598 185.91 287.384C185.572 287.169 185.308 286.869 185.117 286.483C184.929 286.097 184.834 285.647 184.834 285.131C184.834 284.611 184.929 284.157 185.117 283.769C185.308 283.381 185.572 283.08 185.91 282.865C186.25 282.651 186.646 282.544 187.097 282.544C187.547 282.544 187.942 282.651 188.28 282.865C188.62 283.08 188.884 283.381 189.073 283.769C189.264 284.157 189.359 284.611 189.359 285.131C189.359 285.647 189.264 286.097 189.073 286.483C188.884 286.869 188.62 287.169 188.28 287.384C187.942 287.598 187.547 287.705 187.097 287.705ZM187.097 287.016C187.439 287.016 187.721 286.928 187.942 286.753C188.163 286.577 188.326 286.347 188.433 286.061C188.539 285.775 188.592 285.465 188.592 285.131C188.592 284.797 188.539 284.486 188.433 284.198C188.326 283.91 188.163 283.677 187.942 283.499C187.721 283.322 187.439 283.233 187.097 283.233C186.754 283.233 186.473 283.322 186.252 283.499C186.03 283.677 185.867 283.91 185.761 284.198C185.655 284.486 185.601 284.797 185.601 285.131C185.601 285.465 185.655 285.775 185.761 286.061C185.867 286.347 186.03 286.577 186.252 286.753C186.473 286.928 186.754 287.016 187.097 287.016ZM190.53 289.474V282.609H191.271V283.402H191.362C191.418 283.315 191.496 283.205 191.596 283.07C191.698 282.934 191.843 282.812 192.032 282.706C192.222 282.598 192.48 282.544 192.805 282.544C193.226 282.544 193.596 282.649 193.917 282.859C194.238 283.069 194.488 283.367 194.668 283.753C194.848 284.139 194.938 284.594 194.938 285.118C194.938 285.647 194.848 286.105 194.668 286.493C194.488 286.879 194.239 287.178 193.92 287.39C193.602 287.6 193.234 287.705 192.818 287.705C192.498 287.705 192.241 287.652 192.048 287.546C191.855 287.438 191.707 287.315 191.603 287.179C191.499 287.04 191.418 286.925 191.362 286.834H191.297V289.474H190.53ZM191.284 285.105C191.284 285.482 191.339 285.815 191.45 286.103C191.56 286.389 191.722 286.613 191.934 286.776C192.146 286.936 192.407 287.016 192.714 287.016C193.035 287.016 193.303 286.932 193.517 286.763C193.734 286.592 193.896 286.362 194.005 286.074C194.115 285.783 194.17 285.46 194.17 285.105C194.17 284.754 194.116 284.438 194.008 284.156C193.902 283.872 193.74 283.648 193.524 283.483C193.309 283.316 193.039 283.233 192.714 283.233C192.402 283.233 192.14 283.312 191.928 283.47C191.715 283.626 191.555 283.845 191.447 284.127C191.338 284.406 191.284 284.732 191.284 285.105ZM196.875 286.47L199.28 282.609H200.164V287.601H199.397V283.74L197.005 287.601H196.108V282.609H196.875V286.47ZM201.036 289.032V286.886H201.452C201.554 286.78 201.642 286.665 201.715 286.542C201.789 286.418 201.853 286.272 201.907 286.103C201.964 285.932 202.011 285.724 202.05 285.479C202.089 285.232 202.124 284.934 202.154 284.585L202.323 282.609H205.496V286.886H206.263V289.032H205.496V287.601H201.803V289.032H201.036ZM202.323 286.886H204.729V283.324H203.038L202.908 284.585C202.854 285.107 202.787 285.563 202.707 285.953C202.627 286.343 202.499 286.654 202.323 286.886ZM209.309 287.705C208.859 287.705 208.463 287.598 208.123 287.384C207.785 287.169 207.521 286.869 207.33 286.483C207.141 286.097 207.047 285.647 207.047 285.131C207.047 284.611 207.141 284.157 207.33 283.769C207.521 283.381 207.785 283.08 208.123 282.865C208.463 282.651 208.859 282.544 209.309 282.544C209.76 282.544 210.154 282.651 210.492 282.865C210.833 283.08 211.097 283.381 211.286 283.769C211.476 284.157 211.572 284.611 211.572 285.131C211.572 285.647 211.476 286.097 211.286 286.483C211.097 286.869 210.833 287.169 210.492 287.384C210.154 287.598 209.76 287.705 209.309 287.705ZM209.309 287.016C209.652 287.016 209.933 286.928 210.154 286.753C210.375 286.577 210.539 286.347 210.645 286.061C210.751 285.775 210.805 285.465 210.805 285.131C210.805 284.797 210.751 284.486 210.645 284.198C210.539 283.91 210.375 283.677 210.154 283.499C209.933 283.322 209.652 283.233 209.309 283.233C208.967 283.233 208.685 283.322 208.464 283.499C208.243 283.677 208.08 283.91 207.973 284.198C207.867 284.486 207.814 284.797 207.814 285.131C207.814 285.465 207.867 285.775 207.973 286.061C208.08 286.347 208.243 286.577 208.464 286.753C208.685 286.928 208.967 287.016 209.309 287.016ZM212.743 289.474V282.609H213.484V283.402H213.575C213.631 283.315 213.709 283.205 213.809 283.07C213.911 282.934 214.056 282.812 214.244 282.706C214.435 282.598 214.693 282.544 215.018 282.544C215.438 282.544 215.809 282.649 216.13 282.859C216.45 283.069 216.701 283.367 216.88 283.753C217.06 284.139 217.15 284.594 217.15 285.118C217.15 285.647 217.06 286.105 216.88 286.493C216.701 286.879 216.451 287.178 216.133 287.39C215.814 287.6 215.447 287.705 215.031 287.705C214.71 287.705 214.453 287.652 214.261 287.546C214.068 287.438 213.919 287.315 213.815 287.179C213.711 287.04 213.631 286.925 213.575 286.834H213.51V289.474H212.743ZM213.497 285.105C213.497 285.482 213.552 285.815 213.662 286.103C213.773 286.389 213.934 286.613 214.147 286.776C214.359 286.936 214.619 287.016 214.927 287.016C215.248 287.016 215.515 286.932 215.73 286.763C215.946 286.592 216.109 286.362 216.217 286.074C216.328 285.783 216.383 285.46 216.383 285.105C216.383 284.754 216.329 284.438 216.221 284.156C216.114 283.872 215.953 283.648 215.736 283.483C215.522 283.316 215.252 283.233 214.927 283.233C214.615 283.233 214.353 283.312 214.14 283.47C213.928 283.626 213.768 283.845 213.659 284.127C213.551 284.406 213.497 284.732 213.497 285.105Z" fill="black"/>
<path d="M191.962 297.808V297.145L194.887 292.516H195.368V293.544H195.043L192.833 297.041V297.093H196.773V297.808H191.962ZM195.095 299.173V297.607V297.298V292.516H195.863V299.173H195.095ZM198.835 298.263L198.783 298.614C198.746 298.861 198.69 299.126 198.614 299.407C198.54 299.689 198.463 299.955 198.383 300.204C198.303 300.453 198.237 300.651 198.185 300.799H197.6C197.628 300.66 197.665 300.477 197.71 300.249C197.756 300.022 197.801 299.767 197.847 299.485C197.895 299.206 197.934 298.92 197.964 298.627L198.003 298.263H198.835ZM200.152 299.173V298.588L202.349 296.183C202.607 295.901 202.819 295.656 202.986 295.448C203.153 295.238 203.277 295.041 203.357 294.857C203.439 294.67 203.48 294.475 203.48 294.272C203.48 294.038 203.424 293.835 203.311 293.664C203.201 293.493 203.049 293.36 202.856 293.267C202.663 293.174 202.447 293.128 202.206 293.128C201.95 293.128 201.727 293.181 201.536 293.287C201.348 293.391 201.202 293.537 201.098 293.726C200.996 293.914 200.945 294.135 200.945 294.389H200.178C200.178 293.999 200.268 293.656 200.448 293.362C200.627 293.067 200.872 292.837 201.182 292.672C201.494 292.508 201.844 292.425 202.232 292.425C202.622 292.425 202.968 292.508 203.269 292.672C203.57 292.837 203.806 293.059 203.978 293.339C204.149 293.618 204.234 293.929 204.234 294.272C204.234 294.517 204.19 294.756 204.101 294.99C204.014 295.222 203.863 295.481 203.646 295.767C203.431 296.051 203.134 296.397 202.752 296.807L201.257 298.406V298.458H204.351V299.173H200.152Z" fill="black"/>
<mask id="path-5-inside-1_2893_18184" fill="white">
<path d="M289.129 226.542H289.127V226.543H237.068V197.94H260.525V155.605H289.129V226.542Z"/>
</mask>
<path d="M289.129 226.542H289.127V226.543H237.068V197.94H260.525V155.605H289.129V226.542Z" fill="white"/>
<path d="M289.129 226.542V227.114H289.701V226.542H289.129ZM289.127 226.542V225.97H288.555V226.542H289.127ZM289.127 226.543V227.115H289.699V226.543H289.127ZM237.068 226.543H236.496V227.115H237.068V226.543ZM237.068 197.94V197.368H236.496V197.94H237.068ZM260.525 197.94V198.512H261.097V197.94H260.525ZM260.525 155.605V155.033H259.953V155.605H260.525ZM289.129 155.605H289.701V155.033H289.129V155.605ZM289.129 226.542V225.97H289.127V226.542V227.114H289.129V226.542ZM289.127 226.542H288.555V226.543H289.127H289.699V226.542H289.127ZM289.127 226.543V225.971H237.068V226.543V227.115H289.127V226.543ZM237.068 226.543H237.64V197.94H237.068H236.496V226.543H237.068ZM237.068 197.94V198.512H260.525V197.94V197.368H237.068V197.94ZM260.525 197.94H261.097V155.605H260.525H259.953V197.94H260.525ZM260.525 155.605V156.177H289.129V155.605V155.033H260.525V155.605ZM289.129 155.605H288.557V226.542H289.129H289.701V155.605H289.129Z" fill="black" mask="url(#path-5-inside-1_2893_18184)"/>
<rect x="161.268" y="155.891" width="28.0318" height="70.3655" fill="white" stroke="black" stroke-width="0.572077"/>
<rect x="269.677" y="154.463" width="18.8785" height="1.14415" fill="#999999"/>
<rect x="242.218" y="154.463" width="18.8785" height="1.14415" fill="#999999"/>
<rect x="214.757" y="154.463" width="18.8785" height="1.14415" fill="#999999"/>
<rect x="187.297" y="154.463" width="18.8785" height="1.14415" fill="#999999"/>
<rect x="159.839" y="154.463" width="18.8785" height="1.14415" fill="#999999"/>
<path d="M215.594 106.825L213.306 103.77H212.487V106.825H211.68V100.169H212.487V103.055H212.838L215.503 100.169H216.465L213.774 103.094L216.556 106.825H215.594ZM219.156 106.929C218.705 106.929 218.309 106.822 217.969 106.608C217.631 106.393 217.367 106.093 217.176 105.707C216.988 105.322 216.893 104.871 216.893 104.355C216.893 103.835 216.988 103.381 217.176 102.993C217.367 102.605 217.631 102.304 217.969 102.09C218.309 101.875 218.705 101.768 219.156 101.768C219.606 101.768 220.001 101.875 220.339 102.09C220.679 102.304 220.943 102.605 221.132 102.993C221.323 103.381 221.418 103.835 221.418 104.355C221.418 104.871 221.323 105.322 221.132 105.707C220.943 106.093 220.679 106.393 220.339 106.608C220.001 106.822 219.606 106.929 219.156 106.929ZM219.156 106.24C219.498 106.24 219.78 106.153 220.001 105.977C220.222 105.802 220.385 105.571 220.492 105.285C220.598 104.999 220.651 104.689 220.651 104.355C220.651 104.021 220.598 103.71 220.492 103.422C220.385 103.134 220.222 102.901 220.001 102.723C219.78 102.546 219.498 102.457 219.156 102.457C218.813 102.457 218.532 102.546 218.311 102.723C218.09 102.901 217.926 103.134 217.82 103.422C217.714 103.71 217.66 104.021 217.66 104.355C217.66 104.689 217.714 104.999 217.82 105.285C217.926 105.571 218.09 105.802 218.311 105.977C218.532 106.153 218.813 106.24 219.156 106.24ZM225.319 105.785L227.062 101.833H227.79L225.631 106.825H225.007L222.888 101.833H223.603L225.319 105.785ZM223.356 101.833V106.825H222.589V101.833H223.356ZM227.283 106.825V101.833H228.05V106.825H227.283ZM232.795 103.978V104.693H230.039V103.978H232.795ZM230.221 101.833V106.825H229.454V101.833H230.221ZM233.38 101.833V106.825H232.613V101.833H233.38ZM236.251 106.942C235.934 106.942 235.647 106.883 235.389 106.764C235.131 106.642 234.927 106.468 234.775 106.24C234.623 106.011 234.547 105.733 234.547 105.408C234.547 105.122 234.604 104.89 234.716 104.713C234.829 104.533 234.98 104.392 235.168 104.29C235.357 104.188 235.565 104.112 235.792 104.063C236.022 104.011 236.253 103.969 236.485 103.939C236.788 103.9 237.034 103.871 237.222 103.851C237.413 103.83 237.552 103.794 237.638 103.744C237.727 103.694 237.772 103.608 237.772 103.484V103.458C237.772 103.137 237.684 102.888 237.508 102.71C237.335 102.533 237.072 102.444 236.719 102.444C236.352 102.444 236.065 102.524 235.857 102.684C235.649 102.845 235.503 103.016 235.418 103.198L234.69 102.938C234.82 102.635 234.994 102.398 235.21 102.229C235.429 102.058 235.668 101.939 235.926 101.872C236.186 101.802 236.441 101.768 236.693 101.768C236.853 101.768 237.037 101.787 237.245 101.826C237.455 101.863 237.658 101.94 237.853 102.057C238.05 102.174 238.214 102.351 238.344 102.587C238.474 102.823 238.539 103.139 238.539 103.536V106.825H237.772V106.149H237.733C237.681 106.258 237.594 106.374 237.473 106.497C237.351 106.621 237.19 106.726 236.988 106.812C236.787 106.899 236.541 106.942 236.251 106.942ZM236.368 106.253C236.671 106.253 236.927 106.194 237.135 106.075C237.345 105.955 237.503 105.802 237.609 105.613C237.718 105.425 237.772 105.226 237.772 105.018V104.316C237.739 104.355 237.668 104.391 237.557 104.423C237.449 104.454 237.323 104.481 237.18 104.505C237.039 104.526 236.902 104.546 236.767 104.563C236.635 104.578 236.528 104.591 236.446 104.602C236.246 104.628 236.06 104.67 235.887 104.729C235.715 104.785 235.577 104.871 235.47 104.986C235.366 105.098 235.314 105.252 235.314 105.447C235.314 105.714 235.413 105.915 235.61 106.052C235.81 106.186 236.062 106.253 236.368 106.253ZM239.26 102.548V101.833H243.316V102.548H241.678V106.825H240.911V102.548H239.26ZM245.645 106.942C245.329 106.942 245.042 106.883 244.784 106.764C244.526 106.642 244.321 106.468 244.169 106.24C244.018 106.011 243.942 105.733 243.942 105.408C243.942 105.122 243.998 104.89 244.111 104.713C244.224 104.533 244.374 104.392 244.563 104.29C244.751 104.188 244.959 104.112 245.187 104.063C245.417 104.011 245.647 103.969 245.879 103.939C246.183 103.9 246.428 103.871 246.617 103.851C246.808 103.83 246.946 103.794 247.033 103.744C247.122 103.694 247.166 103.608 247.166 103.484V103.458C247.166 103.137 247.079 102.888 246.903 102.71C246.73 102.533 246.466 102.444 246.113 102.444C245.747 102.444 245.46 102.524 245.252 102.684C245.044 102.845 244.898 103.016 244.813 103.198L244.085 102.938C244.215 102.635 244.388 102.398 244.605 102.229C244.824 102.058 245.062 101.939 245.32 101.872C245.58 101.802 245.836 101.768 246.087 101.768C246.248 101.768 246.432 101.787 246.64 101.826C246.85 101.863 247.053 101.94 247.248 102.057C247.445 102.174 247.608 102.351 247.738 102.587C247.868 102.823 247.933 103.139 247.933 103.536V106.825H247.166V106.149H247.127C247.075 106.258 246.989 106.374 246.867 106.497C246.746 106.621 246.585 106.726 246.383 106.812C246.181 106.899 245.936 106.942 245.645 106.942ZM245.762 106.253C246.066 106.253 246.321 106.194 246.529 106.075C246.739 105.955 246.898 105.802 247.004 105.613C247.112 105.425 247.166 105.226 247.166 105.018V104.316C247.134 104.355 247.062 104.391 246.952 104.423C246.843 104.454 246.718 104.481 246.575 104.505C246.434 104.526 246.296 104.546 246.162 104.563C246.03 104.578 245.923 104.591 245.84 104.602C245.641 104.628 245.454 104.67 245.281 104.729C245.11 104.785 244.971 104.871 244.865 104.986C244.761 105.098 244.709 105.252 244.709 105.447C244.709 105.714 244.808 105.915 245.005 106.052C245.204 106.186 245.457 106.253 245.762 106.253Z" fill="black"/>
<path d="M223.956 111.741V118.397H223.15V112.586H223.111L221.486 113.665V112.846L223.15 111.741H223.956ZM228.042 118.488C227.553 118.488 227.135 118.355 226.791 118.089C226.446 117.82 226.183 117.431 226.001 116.922C225.819 116.41 225.728 115.793 225.728 115.069C225.728 114.35 225.819 113.735 226.001 113.226C226.185 112.715 226.45 112.325 226.794 112.056C227.141 111.785 227.557 111.65 228.042 111.65C228.528 111.65 228.943 111.785 229.287 112.056C229.634 112.325 229.898 112.715 230.08 113.226C230.264 113.735 230.357 114.35 230.357 115.069C230.357 115.793 230.266 116.41 230.084 116.922C229.901 117.431 229.638 117.82 229.294 118.089C228.949 118.355 228.532 118.488 228.042 118.488ZM228.042 117.773C228.528 117.773 228.905 117.539 229.173 117.071C229.442 116.603 229.576 115.936 229.576 115.069C229.576 114.493 229.515 114.002 229.391 113.597C229.27 113.191 229.094 112.883 228.865 112.67C228.637 112.458 228.363 112.352 228.042 112.352C227.561 112.352 227.185 112.589 226.914 113.063C226.643 113.536 226.508 114.204 226.508 115.069C226.508 115.645 226.569 116.135 226.69 116.538C226.811 116.941 226.986 117.248 227.213 117.458C227.443 117.668 227.719 117.773 228.042 117.773ZM232.516 117.487L232.464 117.838C232.428 118.085 232.371 118.35 232.295 118.631C232.222 118.913 232.145 119.179 232.065 119.428C231.984 119.677 231.918 119.875 231.866 120.023H231.281C231.309 119.884 231.346 119.701 231.392 119.473C231.437 119.246 231.483 118.991 231.528 118.71C231.576 118.43 231.615 118.144 231.645 117.851L231.684 117.487H232.516ZM235.779 118.488C235.398 118.488 235.055 118.413 234.749 118.261C234.443 118.109 234.199 117.901 234.014 117.637C233.83 117.372 233.729 117.071 233.712 116.733H234.492C234.523 117.034 234.659 117.284 234.902 117.481C235.147 117.676 235.439 117.773 235.779 117.773C236.052 117.773 236.295 117.709 236.507 117.582C236.722 117.454 236.89 117.278 237.011 117.055C237.135 116.83 237.197 116.575 237.197 116.291C237.197 116.001 237.133 115.742 237.005 115.514C236.879 115.285 236.706 115.104 236.485 114.971C236.264 114.839 236.011 114.772 235.727 114.77C235.524 114.768 235.315 114.799 235.1 114.864C234.886 114.927 234.709 115.008 234.57 115.108L233.816 115.017L234.219 111.741H237.678V112.456H234.895L234.661 114.419H234.7C234.837 114.311 235.008 114.221 235.214 114.149C235.42 114.078 235.634 114.042 235.857 114.042C236.265 114.042 236.628 114.139 236.946 114.334C237.267 114.527 237.518 114.792 237.7 115.128C237.885 115.463 237.977 115.847 237.977 116.278C237.977 116.703 237.881 117.082 237.691 117.416C237.502 117.747 237.242 118.01 236.911 118.202C236.579 118.393 236.202 118.488 235.779 118.488Z" fill="black"/>
<path d="M229.208 44.6082V53.7615H227.272V46.4451H227.219L225.123 47.7591V46.0429L227.388 44.6082H229.208ZM234.972 53.9626C234.203 53.9596 233.542 53.7704 232.987 53.395C232.436 53.0196 232.012 52.4758 231.714 51.7637C231.419 51.0516 231.273 50.1949 231.276 49.1938C231.276 48.1956 231.423 47.345 231.718 46.6418C232.016 45.9386 232.441 45.4038 232.992 45.0373C233.546 44.6678 234.206 44.4831 234.972 44.4831C235.738 44.4831 236.396 44.6678 236.947 45.0373C237.502 45.4068 237.928 45.9431 238.226 46.6463C238.524 47.3465 238.671 48.1956 238.668 49.1938C238.668 50.1979 238.519 51.056 238.221 51.7681C237.926 52.4803 237.503 53.024 236.952 53.3995C236.401 53.7749 235.741 53.9626 234.972 53.9626ZM234.972 52.3581C235.496 52.3581 235.915 52.0944 236.228 51.567C236.541 51.0396 236.696 50.2486 236.693 49.1938C236.693 48.4996 236.621 47.9215 236.478 47.4597C236.338 46.9979 236.138 46.6507 235.879 46.4183C235.623 46.1859 235.32 46.0697 234.972 46.0697C234.45 46.0697 234.033 46.3304 233.72 46.8519C233.408 47.3733 233.25 48.1539 233.247 49.1938C233.247 49.897 233.317 50.4839 233.457 50.9547C233.6 51.4225 233.801 51.7741 234.06 52.0095C234.319 52.2419 234.623 52.3581 234.972 52.3581ZM241.766 52.5101L241.717 53.0017C241.678 53.395 241.604 53.7868 241.494 54.1771C241.386 54.5704 241.273 54.9265 241.154 55.2453C241.038 55.5641 240.944 55.8144 240.873 55.9962H239.639C239.684 55.8204 239.745 55.5745 239.822 55.2587C239.9 54.9459 239.973 54.5943 240.041 54.2039C240.11 53.8136 240.153 53.4158 240.171 53.0106L240.193 52.5101H241.766ZM246.633 53.8866C246.001 53.8866 245.438 53.7704 244.943 53.538C244.452 53.3056 244.061 52.9853 243.772 52.5771C243.483 52.1689 243.333 51.7011 243.321 51.1737H245.198C245.219 51.5283 245.368 51.8158 245.645 52.0363C245.922 52.2568 246.251 52.367 246.633 52.367C246.937 52.367 247.205 52.3 247.437 52.1659C247.673 52.0289 247.856 51.8397 247.987 51.5983C248.121 51.354 248.188 51.0739 248.188 50.7581C248.188 50.4363 248.12 50.1532 247.983 49.9089C247.848 49.6646 247.662 49.4739 247.424 49.3368C247.186 49.1998 246.913 49.1297 246.606 49.1268C246.338 49.1268 246.077 49.1819 245.824 49.2921C245.574 49.4024 245.378 49.5528 245.238 49.7435L243.518 49.4351L243.951 44.6082H249.547V46.1904H245.547L245.31 48.4832H245.364C245.524 48.2567 245.767 48.069 246.092 47.92C246.417 47.7711 246.78 47.6966 247.183 47.6966C247.734 47.6966 248.225 47.8262 248.657 48.0854C249.089 48.3446 249.431 48.7007 249.681 49.1536C249.931 49.6035 250.055 50.1219 250.052 50.7089C250.055 51.3257 249.912 51.8739 249.623 52.3536C249.337 52.8304 248.936 53.2058 248.421 53.4799C247.908 53.751 247.312 53.8866 246.633 53.8866Z" fill="black"/>
<path d="M226.942 74.928V73.5335L230.2 70.5167C230.477 70.2486 230.71 70.0072 230.897 69.7927C231.088 69.5782 231.233 69.3681 231.331 69.1625C231.429 68.9539 231.479 68.729 231.479 68.4876C231.479 68.2195 231.417 67.9886 231.295 67.7949C231.173 67.5982 231.006 67.4478 230.795 67.3435C230.583 67.2362 230.343 67.1826 230.075 67.1826C229.795 67.1826 229.551 67.2392 229.342 67.3524C229.134 67.4656 228.973 67.628 228.859 67.8396C228.746 68.0511 228.69 68.3029 228.69 68.5949H226.853C226.853 67.996 226.988 67.4761 227.259 67.0351C227.531 66.5941 227.91 66.253 228.399 66.0116C228.888 65.7703 229.451 65.6496 230.089 65.6496C230.744 65.6496 231.315 65.7658 231.8 65.9982C232.289 66.2276 232.669 66.5464 232.94 66.9547C233.211 67.3629 233.347 67.8306 233.347 68.358C233.347 68.7037 233.278 69.0448 233.141 69.3815C233.007 69.7182 232.767 70.0921 232.422 70.5033C232.076 70.9115 231.589 71.4017 230.96 71.9737L229.624 73.2833V73.3458H233.467V74.928H226.942ZM234.534 73.319V71.795L238.356 65.7747H239.67V67.8843H238.892L236.483 71.6966V71.7681H241.913V73.319H234.534ZM238.928 74.928V72.8542L238.964 72.1793V65.7747H240.778V74.928H238.928ZM245.118 73.6766L245.069 74.1682C245.03 74.5615 244.955 74.9533 244.845 75.3436C244.738 75.7369 244.625 76.093 244.506 76.4118C244.389 76.7306 244.295 76.9809 244.224 77.1627H242.99C243.035 76.9869 243.096 76.741 243.174 76.4252C243.251 76.1124 243.324 75.7608 243.393 75.3704C243.461 74.9801 243.504 74.5823 243.522 74.1771L243.545 73.6766H245.118ZM250.061 75.1291C249.292 75.1261 248.631 74.9369 248.077 74.5615C247.525 74.1861 247.101 73.6423 246.803 72.9302C246.508 72.2181 246.362 71.3614 246.365 70.3603C246.365 69.3621 246.512 68.5115 246.807 67.8083C247.105 67.1051 247.53 66.5703 248.081 66.2038C248.635 65.8343 249.295 65.6496 250.061 65.6496C250.827 65.6496 251.485 65.8343 252.036 66.2038C252.591 66.5733 253.017 67.1096 253.315 67.8128C253.613 68.513 253.76 69.3621 253.757 70.3603C253.757 71.3644 253.608 72.2225 253.31 72.9346C253.015 73.6468 252.592 74.1905 252.041 74.566C251.49 74.9414 250.83 75.1291 250.061 75.1291ZM250.061 73.5246C250.585 73.5246 251.004 73.2609 251.317 72.7335C251.63 72.2061 251.785 71.4151 251.782 70.3603C251.782 69.6661 251.71 69.088 251.567 68.6262C251.427 68.1644 251.227 67.8172 250.968 67.5848C250.712 67.3524 250.41 67.2362 250.061 67.2362C249.54 67.2362 249.122 67.4969 248.81 68.0184C248.497 68.5398 248.339 69.3204 248.336 70.3603C248.336 71.0635 248.406 71.6505 248.546 72.1212C248.689 72.589 248.89 72.9406 249.149 73.176C249.408 73.4084 249.712 73.5246 250.061 73.5246Z" fill="black"/>
<path d="M206.896 54.9056V64.0588H204.961V56.7425H204.907L202.811 58.0565V56.3403L205.077 54.9056H206.896ZM211.284 60.0543L211.396 58.3247L209.947 59.2945L209.349 58.2397L210.908 57.4799L209.349 56.7202L209.947 55.6654L211.396 56.6352L211.284 54.9056H212.486L212.37 56.6352L213.818 55.6654L214.417 56.7202L212.861 57.4799L214.417 58.2397L213.818 59.2945L212.37 58.3247L212.486 60.0543H211.284Z" fill="black"/>
<rect x="197.023" y="40.046" width="59.496" height="40.0454" stroke="black" stroke-width="1.14415"/>
<rect x="218.762" y="59.4968" width="38.3292" height="1.14415" fill="black"/>
<rect x="219.907" y="39.4736" width="41.1896" height="1.14415" transform="rotate(90 219.907 39.4736)" fill="black"/>
<path d="M261.096 250.284L254.231 250.284C250.598 250.284 247.652 247.339 247.652 243.705L247.652 233.408C247.652 233.25 247.781 233.122 247.938 233.122L267.389 233.122C267.547 233.122 267.675 233.25 267.675 233.408L267.675 243.705C267.675 247.339 264.729 250.284 261.096 250.284Z" stroke="black" stroke-width="0.572077"/>
<path d="M259.953 248.569L255.376 248.569C252.691 248.568 250.514 246.392 250.514 243.706L250.514 237.986C250.514 237.828 250.642 237.699 250.8 237.699L264.529 237.699C264.687 237.699 264.815 237.828 264.815 237.986L264.815 243.706C264.815 246.392 262.638 248.568 259.953 248.569Z" stroke="black" stroke-width="0.572077"/>
<path d="M257.663 242.275C256.873 242.274 256.233 241.634 256.233 240.844C256.234 240.054 256.874 239.415 257.663 239.414C258.453 239.414 259.094 240.054 259.094 240.844C259.094 241.634 258.453 242.275 257.663 242.275Z" stroke="black" stroke-width="0.572077"/>
<path d="M315.156 278.602C315.156 277.18 316.309 276.028 317.73 276.028L319.446 276.028C319.604 276.028 319.732 276.156 319.732 276.314L319.732 280.89C319.732 281.048 319.604 281.176 319.446 281.176L317.73 281.176C316.309 281.176 315.156 280.024 315.156 278.602Z" stroke="black" stroke-width="0.572077"/>
<circle cx="332.604" cy="278.603" r="0.858116" transform="rotate(-90 332.604 278.603)" stroke="black" stroke-width="0.572077"/>
<path d="M310.009 279.746L310.009 277.458C310.009 273.825 312.954 270.879 316.588 270.879L331.462 270.879C333.831 270.879 335.752 272.801 335.752 275.17L335.752 282.035C335.752 284.405 333.831 286.325 331.462 286.325L316.588 286.325C312.954 286.325 310.009 283.38 310.009 279.746Z" stroke="black" stroke-width="0.572077"/>
<path d="M312.297 278.602C312.297 275.916 314.474 273.739 317.159 273.739L321.736 273.739C323.79 273.739 325.454 275.404 325.454 277.457L325.454 279.745C325.454 281.799 323.79 283.464 321.736 283.464L317.159 283.464C314.474 283.464 312.297 281.287 312.297 278.602Z" stroke="black" stroke-width="0.572077"/>
<rect x="328.887" y="285.182" width="13.1578" height="6.86493" rx="3.14643" transform="rotate(-90 328.887 285.182)" stroke="black" stroke-width="0.572077"/>
<path d="M286.554 245.421C286.554 246.21 285.913 246.85 285.123 246.85C284.333 246.85 283.694 246.21 283.693 245.421C283.693 244.631 284.333 243.99 285.123 243.99C285.913 243.99 286.554 244.631 286.554 245.421Z" stroke="black" stroke-width="0.572077"/>
<rect x="335.751" y="233.121" width="24.5993" height="58.924" transform="rotate(90 335.751 233.121)" stroke="black" stroke-width="0.572077"/>
<path d="M334.034 243.131L334.034 247.708C334.034 251.657 330.833 254.859 326.884 254.86L283.405 254.86C280.72 254.86 278.543 252.682 278.543 249.996L278.543 240.843C278.543 238.158 280.72 235.981 283.405 235.981L326.884 235.981C330.833 235.981 334.034 239.182 334.034 243.131Z" stroke="black" stroke-width="0.572077"/>
<path d="M267.961 8.86792V18.5935H184.151V8.86792H267.961Z" fill="white" stroke="black" stroke-width="0.572077"/>
<rect x="186.725" y="2.28949" width="5.72077" height="36.0409" transform="rotate(90 186.725 2.28949)" fill="#999999" stroke="black" stroke-width="1.14415"/>
<rect x="186.727" y="0.572021" width="36.0409" height="0.572079" transform="rotate(180 186.727 0.572021)" fill="black"/>
<rect x="299.426" y="2.28949" width="5.72077" height="33.1805" transform="rotate(90 299.426 2.28949)" fill="#999999" stroke="black" stroke-width="1.14415"/>
<rect x="299.425" y="0.572021" width="33.7526" height="0.572079" transform="rotate(180 299.425 0.572021)" fill="black"/>
<path d="M201.328 185.773L199.04 182.718H198.22V185.773H197.414V179.116H198.22V182.003H198.571L201.237 179.116H202.199L199.508 182.042L202.29 185.773H201.328ZM203.355 187.645C203.225 187.645 203.109 187.635 203.008 187.613C202.906 187.593 202.835 187.574 202.796 187.554L202.991 186.878C203.178 186.926 203.342 186.943 203.485 186.93C203.628 186.917 203.755 186.853 203.866 186.739C203.978 186.626 204.081 186.443 204.174 186.189L204.317 185.799L202.471 180.781H203.303L204.682 184.759H204.734L206.112 180.781H206.944L204.825 186.501C204.729 186.759 204.611 186.973 204.47 187.142C204.329 187.313 204.166 187.44 203.979 187.522C203.795 187.604 203.587 187.645 203.355 187.645ZM208.528 180.781L209.725 182.822L210.921 180.781H211.805L210.193 183.277L211.805 185.773H210.921L209.725 183.836L208.528 185.773H207.644L209.231 183.277L207.644 180.781H208.528ZM216.241 182.926V183.641H213.485V182.926H216.241ZM213.667 180.781V185.773H212.899V180.781H213.667ZM216.826 180.781V185.773H216.059V180.781H216.826ZM221.23 185.773V181.483H219.904C219.605 181.483 219.37 181.552 219.199 181.691C219.028 181.829 218.942 182.02 218.942 182.263C218.942 182.501 219.019 182.689 219.173 182.825C219.329 182.962 219.542 183.03 219.813 183.03H221.425V183.745H219.813C219.475 183.745 219.184 183.685 218.939 183.566C218.694 183.447 218.505 183.277 218.373 183.056C218.241 182.833 218.175 182.568 218.175 182.263C218.175 181.955 218.244 181.691 218.383 181.47C218.522 181.249 218.72 181.078 218.978 180.959C219.238 180.84 219.547 180.781 219.904 180.781H221.958V185.773H221.23ZM217.902 185.773L219.319 183.29H220.151L218.734 185.773H217.902ZM226.227 182.562V183.277H223.315V182.562H226.227ZM230.918 182.926V183.641H228.162V182.926H230.918ZM228.344 180.781V185.773H227.577V180.781H228.344ZM231.503 180.781V185.773H230.736V180.781H231.503ZM233.671 184.642L236.077 180.781H236.961V185.773H236.194V181.912L233.801 185.773H232.904V180.781H233.671V184.642ZM238.366 180.781H239.133V185.058H241.018V180.781H241.785V185.058H243.671V180.781H244.438V185.773H238.366V180.781ZM247.308 185.89C246.991 185.89 246.704 185.831 246.446 185.711C246.189 185.59 245.984 185.416 245.832 185.188C245.68 184.958 245.605 184.681 245.605 184.356C245.605 184.07 245.661 183.838 245.774 183.66C245.886 183.481 246.037 183.34 246.225 183.238C246.414 183.136 246.622 183.06 246.849 183.01C247.079 182.958 247.31 182.917 247.542 182.887C247.845 182.848 248.091 182.819 248.28 182.799C248.47 182.777 248.609 182.742 248.696 182.692C248.785 182.642 248.829 182.555 248.829 182.432V182.406C248.829 182.085 248.741 181.836 248.566 181.658C248.392 181.48 248.129 181.392 247.776 181.392C247.41 181.392 247.122 181.472 246.914 181.632C246.706 181.792 246.56 181.964 246.476 182.146L245.748 181.886C245.878 181.582 246.051 181.346 246.268 181.177C246.486 181.006 246.725 180.887 246.983 180.82C247.243 180.75 247.498 180.716 247.75 180.716C247.91 180.716 248.094 180.735 248.302 180.774C248.513 180.811 248.715 180.888 248.91 181.005C249.107 181.122 249.271 181.298 249.401 181.535C249.531 181.771 249.596 182.087 249.596 182.484V185.773H248.829V185.097H248.79C248.738 185.205 248.651 185.321 248.53 185.445C248.409 185.568 248.247 185.674 248.046 185.76C247.844 185.847 247.598 185.89 247.308 185.89ZM247.425 185.201C247.728 185.201 247.984 185.142 248.192 185.022C248.402 184.903 248.56 184.749 248.666 184.561C248.775 184.372 248.829 184.174 248.829 183.966V183.264C248.796 183.303 248.725 183.339 248.614 183.371C248.506 183.401 248.38 183.429 248.237 183.452C248.097 183.474 247.959 183.494 247.825 183.511C247.692 183.526 247.585 183.539 247.503 183.55C247.303 183.576 247.117 183.618 246.944 183.677C246.773 183.733 246.634 183.819 246.528 183.933C246.424 184.046 246.372 184.2 246.372 184.395C246.372 184.662 246.47 184.863 246.667 185C246.867 185.134 247.119 185.201 247.425 185.201Z" fill="black"/>
<path d="M219.58 197.436C219.199 197.436 218.855 197.36 218.55 197.209C218.244 197.057 217.999 196.849 217.815 196.585C217.631 196.32 217.53 196.019 217.513 195.681H218.293C218.323 195.982 218.46 196.231 218.703 196.429C218.947 196.624 219.24 196.721 219.58 196.721C219.853 196.721 220.096 196.657 220.308 196.529C220.523 196.402 220.691 196.226 220.812 196.003C220.936 195.777 220.997 195.523 220.997 195.239C220.997 194.949 220.933 194.69 220.806 194.462C220.68 194.232 220.507 194.051 220.286 193.919C220.064 193.787 219.812 193.72 219.528 193.718C219.324 193.716 219.115 193.747 218.901 193.812C218.686 193.875 218.51 193.956 218.371 194.056L217.617 193.965L218.02 190.688H221.478V191.403H218.696L218.462 193.367H218.501C218.638 193.258 218.809 193.168 219.015 193.097C219.22 193.025 219.435 192.99 219.658 192.99C220.066 192.99 220.429 193.087 220.747 193.282C221.068 193.475 221.319 193.739 221.501 194.075C221.685 194.411 221.777 194.795 221.777 195.226C221.777 195.651 221.682 196.03 221.491 196.364C221.303 196.695 221.043 196.957 220.711 197.15C220.38 197.341 220.003 197.436 219.58 197.436ZM223.976 196.435L223.924 196.786C223.887 197.033 223.83 197.298 223.755 197.579C223.681 197.861 223.604 198.126 223.524 198.376C223.444 198.625 223.377 198.823 223.325 198.97H222.74C222.769 198.832 222.805 198.649 222.851 198.421C222.896 198.194 222.942 197.939 222.987 197.657C223.035 197.378 223.074 197.092 223.104 196.799L223.143 196.435H223.976ZM227.231 197.436C226.741 197.436 226.324 197.303 225.98 197.036C225.635 196.768 225.372 196.379 225.19 195.87C225.008 195.358 224.917 194.741 224.917 194.017C224.917 193.297 225.008 192.683 225.19 192.174C225.374 191.662 225.638 191.272 225.983 191.004C226.33 190.733 226.746 190.597 227.231 190.597C227.717 190.597 228.132 190.733 228.476 191.004C228.823 191.272 229.087 191.662 229.269 192.174C229.453 192.683 229.545 193.297 229.545 194.017C229.545 194.741 229.454 195.358 229.272 195.87C229.09 196.379 228.827 196.768 228.483 197.036C228.138 197.303 227.721 197.436 227.231 197.436ZM227.231 196.721C227.717 196.721 228.094 196.487 228.362 196.019C228.631 195.551 228.765 194.884 228.765 194.017C228.765 193.44 228.704 192.95 228.58 192.544C228.459 192.139 228.283 191.83 228.054 191.618C227.826 191.406 227.552 191.299 227.231 191.299C226.75 191.299 226.374 191.537 226.103 192.011C225.832 192.484 225.697 193.152 225.697 194.017C225.697 194.593 225.758 195.083 225.879 195.486C226 195.889 226.175 196.196 226.402 196.406C226.632 196.616 226.908 196.721 227.231 196.721Z" fill="black"/>
<rect x="189.301" y="226.257" width="5.1487" height="28.0318" transform="rotate(90 189.301 226.257)" fill="#D9D9D9" stroke="black" stroke-width="0.572077"/>
<path d="M337.468 306.348L315.156 306.348L315.156 324.082L310.008 324.082L310.008 301.199L337.468 301.199L337.468 306.348Z" fill="#D9D9D9" stroke="black" stroke-width="0.572077"/>
<path d="M229.537 327.53L195.743 339.345L195.472 339.44L196.424 342.138L196.694 342.043L229.727 330.358L229.917 330.291L229.917 330.088L229.917 327.8L229.918 327.396L229.537 327.53Z" stroke="black" stroke-width="0.572077"/>
<path d="M193.59 326.084L193.018 326.084C193.018 331.921 194.204 337.465 196.337 342.466L196.851 342.215C194.756 337.292 193.59 331.834 193.59 326.084Z" fill="black"/>
<path d="M237.942 292.808L249.757 259.014L249.852 258.743L252.55 259.694L252.455 259.964L240.77 292.997L240.703 293.188L240.5 293.188L238.212 293.188L237.808 293.188L237.942 292.808Z" stroke="black" stroke-width="0.572077"/>
<path d="M236.497 256.864V256.292C242.334 256.292 247.878 257.478 252.879 259.611L252.628 260.125C247.705 258.03 242.246 256.864 236.497 256.864Z" fill="black"/>
<path d="M183.294 8.00952V18.3074H160.983V324.94H193.02V335.238H150.686V8.00952H183.294ZM299.426 8.00952V220.823H348.053V334.666H230.204V324.369H337.755V231.12H289.129V18.3074H268.533V8.00952H299.426Z" fill="#D9D9D9" stroke="black" stroke-width="1.14415"/>
<path d="M280.261 324.082L280.261 305.776L241.931 305.776L241.931 324.082L236.782 324.082L236.782 292.046L241.931 292.046L241.931 300.627L285.409 300.627L285.409 324.082L280.261 324.082Z" fill="#D9D9D9" stroke="black" stroke-width="0.572077"/>
<path d="M236.782 256.577L236.782 226.257L288.842 226.257L288.842 231.406L241.931 231.406L241.931 256.577L236.782 256.577Z" fill="#D9D9D9" stroke="black" stroke-width="0.572077"/>
<path d="M272.537 8.58179L299.425 8.58179L299.425 18.8792L272.537 18.8792L272.537 8.58179Z" fill="black"/>
<path d="M288.556 213.385L288.556 155.605L298.853 155.605L298.853 213.385H288.556Z" fill="black"/>
<path d="M347.479 334.665L248.51 334.665L248.51 324.368L347.479 324.368L347.479 334.665Z" fill="black"/>
<path d="M161.554 8.5816L161.554 215.674L151.256 215.674L151.256 8.5816L161.554 8.5816Z" fill="black"/>
<rect x="161.268" y="226.257" width="28.0318" height="28.0318" transform="rotate(-90 161.268 226.257)" fill="white" stroke="black" stroke-width="0.572077"/>
<path d="M172.995 214.53L177.572 209.953M172.995 209.953L177.572 214.53M175.283 215.102L175.283 209.381M172.423 212.241L178.144 212.241" stroke="black" stroke-width="0.572077"/>
<rect x="280.262" y="222.252" width="38.3292" height="20.0227" rx="6.57889" transform="rotate(180 280.262 222.252)" fill="white" stroke="black" stroke-width="0.572077"/>
<rect x="259.666" y="219.964" width="15.4461" height="15.4461" rx="3.7185" transform="rotate(180 259.666 219.964)" fill="white" stroke="black" stroke-width="0.572077"/>
<rect x="277.972" y="219.964" width="15.4461" height="15.4461" rx="3.7185" transform="rotate(180 277.972 219.964)" fill="white" stroke="black" stroke-width="0.572077"/>
<rect x="277.687" y="217.963" width="14.874" height="0.572077" transform="rotate(180 277.687 217.963)" fill="black"/>
<rect x="277.687" y="215.673" width="14.874" height="0.572077" transform="rotate(180 277.687 215.673)" fill="black"/>
<rect x="277.687" y="213.384" width="14.874" height="0.572077" transform="rotate(180 277.687 213.384)" fill="black"/>
<rect x="277.687" y="211.096" width="14.874" height="0.572077" transform="rotate(180 277.687 211.096)" fill="black"/>
<rect x="277.687" y="208.809" width="14.874" height="0.572077" transform="rotate(180 277.687 208.809)" fill="black"/>
<path d="M277.34 206.52L263.098 206.52L263.098 205.948L277.34 205.948L277.34 206.52Z" fill="black"/>
<circle cx="251.943" cy="216.245" r="1.43019" transform="rotate(180 251.943 216.245)" stroke="black" stroke-width="0.572077"/>
<rect x="260.809" y="190.787" width="28.0318" height="28.0318" transform="rotate(-90 260.809 190.787)" fill="white" stroke="black" stroke-width="0.572077"/>
<circle cx="281.69" cy="183.636" r="4.29058" transform="rotate(-90 281.69 183.636)" fill="white" stroke="black" stroke-width="0.572077"/>
<circle cx="267.96" cy="183.636" r="4.29058" transform="rotate(-90 267.96 183.636)" fill="white" stroke="black" stroke-width="0.572077"/>
<circle cx="281.69" cy="169.907" r="4.29058" transform="rotate(-90 281.69 169.907)" fill="white" stroke="black" stroke-width="0.572077"/>
<circle cx="267.96" cy="169.907" r="4.29058" transform="rotate(-90 267.96 169.907)" fill="white" stroke="black" stroke-width="0.572077"/>
<rect x="175.856" y="112.7" width="24.0272" height="24.0272" rx="12.0136" fill="white"/>
<rect x="175.856" y="112.7" width="24.0272" height="24.0272" rx="12.0136" stroke="black" stroke-width="1.14415"/>
<path d="M182.745 128.816C182.199 128.816 181.713 128.722 181.286 128.534C180.862 128.344 180.527 128.083 180.281 127.752C180.037 127.418 179.911 127.032 179.904 126.596H181.498C181.508 126.779 181.568 126.94 181.678 127.079C181.79 127.215 181.938 127.321 182.124 127.397C182.309 127.473 182.517 127.51 182.749 127.51C182.99 127.51 183.204 127.468 183.389 127.382C183.574 127.297 183.719 127.179 183.824 127.028C183.929 126.876 183.981 126.702 183.981 126.505C183.981 126.305 183.925 126.128 183.813 125.974C183.703 125.818 183.545 125.697 183.338 125.609C183.133 125.521 182.889 125.477 182.606 125.477H181.908V124.314H182.606C182.845 124.314 183.056 124.273 183.239 124.19C183.424 124.107 183.568 123.993 183.67 123.846C183.773 123.698 183.824 123.524 183.824 123.327C183.824 123.139 183.779 122.975 183.689 122.833C183.601 122.69 183.477 122.577 183.316 122.497C183.157 122.416 182.972 122.376 182.76 122.376C182.545 122.376 182.349 122.415 182.171 122.493C181.993 122.569 181.851 122.677 181.743 122.819C181.636 122.96 181.579 123.126 181.571 123.316H180.054C180.061 122.885 180.184 122.504 180.423 122.175C180.662 121.846 180.984 121.589 181.389 121.404C181.796 121.216 182.255 121.122 182.767 121.122C183.284 121.122 183.736 121.216 184.124 121.404C184.511 121.591 184.813 121.845 185.027 122.164C185.244 122.481 185.351 122.837 185.349 123.232C185.351 123.651 185.221 124.001 184.958 124.281C184.697 124.562 184.357 124.74 183.937 124.815V124.874C184.488 124.944 184.908 125.136 185.195 125.448C185.485 125.758 185.629 126.145 185.627 126.611C185.629 127.037 185.506 127.416 185.257 127.748C185.011 128.08 184.671 128.34 184.237 128.531C183.803 128.721 183.306 128.816 182.745 128.816ZM190.023 121.224V128.713H188.44V122.727H188.396L186.681 123.802V122.398L188.535 121.224H190.023ZM195.061 121.224V128.713H193.478V122.727H193.434L191.719 123.802V122.398L193.573 121.224H195.061Z" fill="black"/>
</svg>
