<svg width="116" height="201" viewBox="0 0 116 201" fill="none" xmlns="http://www.w3.org/2000/svg">
<path d="M75.2102 159.685H74.7394C74.7116 159.549 74.6629 159.43 74.5933 159.328C74.5249 159.225 74.4414 159.139 74.3427 159.07C74.2453 158.999 74.1371 158.946 74.0181 158.91C73.8992 158.875 73.7751 158.857 73.6461 158.857C73.4107 158.857 73.1974 158.917 73.0063 159.035C72.8165 159.154 72.6653 159.33 72.5527 159.561C72.4413 159.793 72.3856 160.077 72.3856 160.414C72.3856 160.75 72.4413 161.034 72.5527 161.266C72.6653 161.498 72.8165 161.673 73.0063 161.792C73.1974 161.911 73.4107 161.97 73.6461 161.97C73.7751 161.97 73.8992 161.952 74.0181 161.917C74.1371 161.882 74.2453 161.829 74.3427 161.759C74.4414 161.689 74.5249 161.602 74.5933 161.499C74.6629 161.396 74.7116 161.277 74.7394 161.143H75.2102C75.1748 161.341 75.1102 161.519 75.0166 161.676C74.9229 161.833 74.8065 161.966 74.6673 162.076C74.5281 162.185 74.3718 162.268 74.1984 162.325C74.0263 162.382 73.8422 162.411 73.6461 162.411C73.3145 162.411 73.0196 162.33 72.7615 162.168C72.5033 162.006 72.3002 161.775 72.1521 161.477C72.0041 161.178 71.93 160.824 71.93 160.414C71.93 160.004 72.0041 159.649 72.1521 159.351C72.3002 159.052 72.5033 158.822 72.7615 158.66C73.0196 158.498 73.3145 158.417 73.6461 158.417C73.8422 158.417 74.0263 158.445 74.1984 158.502C74.3718 158.559 74.5281 158.643 74.6673 158.753C74.8065 158.861 74.9229 158.994 75.0166 159.151C75.1102 159.307 75.1748 159.485 75.2102 159.685ZM77.2845 158.288L76.0317 162.942H75.6217L76.8745 158.288H77.2845ZM78.1041 163.451C78.0282 163.451 77.9605 163.444 77.901 163.432C77.8415 163.42 77.8004 163.409 77.7776 163.398L77.8915 163.003C78.0003 163.031 78.0965 163.041 78.18 163.033C78.2636 163.026 78.3376 162.988 78.4021 162.921C78.4679 162.855 78.5281 162.748 78.5825 162.6L78.666 162.373L77.5878 159.442H78.0737L78.8786 161.765H78.909L79.7138 159.442H80.1998L78.9621 162.783C78.9064 162.933 78.8375 163.058 78.7552 163.157C78.673 163.257 78.5774 163.331 78.4686 163.379C78.361 163.427 78.2395 163.451 78.1041 163.451Z" fill="black"/>
<path d="M72.3328 167.894V167.507L74.0413 164.804H74.3222V165.404H74.1324L72.8416 167.446V167.477H75.1423V167.894H72.3328ZM74.1628 168.691V167.776V167.596V164.804H74.6108V168.691H74.1628ZM76.3467 168.16L76.3163 168.365C76.2948 168.509 76.2619 168.664 76.2176 168.828C76.1746 168.993 76.1297 169.148 76.0829 169.293C76.036 169.439 75.9974 169.554 75.9671 169.641H75.6254C75.6418 169.56 75.6633 169.453 75.6899 169.32C75.7165 169.187 75.7431 169.038 75.7696 168.874C75.7975 168.71 75.8203 168.543 75.838 168.372L75.8608 168.16H76.3467ZM78.2831 168.745C78.0325 168.745 77.8092 168.702 77.613 168.615C77.4181 168.529 77.2631 168.41 77.1479 168.257C77.0341 168.102 76.972 167.923 76.9619 167.719H77.4403C77.4504 167.845 77.4934 167.953 77.5694 168.044C77.6453 168.134 77.7446 168.204 77.8674 168.253C77.9901 168.302 78.1262 168.327 78.2755 168.327C78.4426 168.327 78.5906 168.298 78.7197 168.24C78.8488 168.181 78.95 168.1 79.0234 167.997C79.0968 167.893 79.1335 167.773 79.1335 167.636C79.1335 167.493 79.0981 167.367 79.0272 167.258C78.9564 167.148 78.8526 167.062 78.7159 167C78.5792 166.938 78.4122 166.907 78.2148 166.907H77.9035V166.489H78.2148C78.3692 166.489 78.5046 166.462 78.621 166.406C78.7387 166.35 78.8304 166.272 78.8962 166.171C78.9633 166.069 78.9968 165.95 78.9968 165.814C78.9968 165.682 78.9677 165.568 78.9095 165.47C78.8513 165.373 78.7691 165.297 78.6628 165.242C78.5577 165.188 78.4337 165.161 78.2907 165.161C78.1566 165.161 78.03 165.185 77.911 165.235C77.7934 165.283 77.6972 165.353 77.6225 165.445C77.5478 165.537 77.5073 165.647 77.501 165.776H77.0454C77.053 165.572 77.1144 165.394 77.2296 165.24C77.3447 165.086 77.4953 164.966 77.6814 164.88C77.8687 164.794 78.0743 164.751 78.2983 164.751C78.5387 164.751 78.745 164.799 78.9171 164.897C79.0892 164.993 79.2215 165.12 79.3139 165.278C79.4062 165.437 79.4524 165.607 79.4524 165.791C79.4524 166.01 79.3948 166.196 79.2797 166.351C79.1658 166.505 79.0108 166.612 78.8146 166.672V166.702C79.0601 166.743 79.2518 166.847 79.3898 167.015C79.5277 167.182 79.5967 167.389 79.5967 167.636C79.5967 167.847 79.5391 168.037 79.424 168.205C79.3101 168.372 79.1544 168.504 78.957 168.6C78.7596 168.696 78.5349 168.745 78.2831 168.745Z" fill="black"/>
<path d="M19.6309 167.703L18.2945 165.919H17.8162V167.703H17.3454V163.815H17.8162V165.501H18.0212L19.5777 163.815H20.1396L18.5679 165.524L20.1928 167.703H19.6309ZM21.7109 167.764C21.4477 167.764 21.2167 167.701 21.018 167.576C20.8206 167.451 20.6662 167.275 20.5549 167.05C20.4448 166.825 20.3897 166.562 20.3897 166.26C20.3897 165.957 20.4448 165.692 20.5549 165.465C20.6662 165.239 20.8206 165.063 21.018 164.937C21.2167 164.812 21.4477 164.749 21.7109 164.749C21.9741 164.749 22.2045 164.812 22.4019 164.937C22.6006 165.063 22.7549 165.239 22.865 165.465C22.9764 165.692 23.0321 165.957 23.0321 166.26C23.0321 166.562 22.9764 166.825 22.865 167.05C22.7549 167.275 22.6006 167.451 22.4019 167.576C22.2045 167.701 21.9741 167.764 21.7109 167.764ZM21.7109 167.361C21.9109 167.361 22.0754 167.31 22.2045 167.208C22.3335 167.105 22.4291 166.97 22.4911 166.803C22.5531 166.636 22.5841 166.455 22.5841 166.26C22.5841 166.066 22.5531 165.884 22.4911 165.716C22.4291 165.547 22.3335 165.411 22.2045 165.308C22.0754 165.204 21.9109 165.152 21.7109 165.152C21.511 165.152 21.3464 165.204 21.2174 165.308C21.0883 165.411 20.9927 165.547 20.9307 165.716C20.8687 165.884 20.8377 166.066 20.8377 166.26C20.8377 166.455 20.8687 166.636 20.9307 166.803C20.9927 166.97 21.0883 167.105 21.2174 167.208C21.3464 167.31 21.511 167.361 21.7109 167.361ZM23.7159 168.797V164.787H24.1487V165.251H24.2019C24.2348 165.2 24.2804 165.135 24.3386 165.057C24.398 164.977 24.4828 164.906 24.5929 164.844C24.7043 164.781 24.8549 164.749 25.0447 164.749C25.2902 164.749 25.5066 164.811 25.6939 164.934C25.8812 165.056 26.0274 165.23 26.1324 165.456C26.2375 165.681 26.29 165.947 26.29 166.253C26.29 166.562 26.2375 166.829 26.1324 167.056C26.0274 167.281 25.8818 167.456 25.6958 167.58C25.5098 167.702 25.2953 167.764 25.0523 167.764C24.865 167.764 24.7151 167.733 24.6024 167.671C24.4898 167.608 24.4031 167.536 24.3424 167.456C24.2816 167.375 24.2348 167.308 24.2019 167.255H24.1639V168.797H23.7159ZM24.1563 166.245C24.1563 166.465 24.1886 166.66 24.2531 166.828C24.3177 166.995 24.412 167.126 24.536 167.221C24.66 167.315 24.8119 167.361 24.9916 167.361C25.1789 167.361 25.3352 167.312 25.4604 167.213C25.587 167.113 25.6819 166.979 25.7452 166.811C25.8097 166.641 25.842 166.453 25.842 166.245C25.842 166.04 25.8103 165.855 25.7471 165.691C25.6851 165.525 25.5908 165.394 25.4642 165.298C25.3389 165.201 25.1814 165.152 24.9916 165.152C24.8093 165.152 24.6562 165.198 24.5322 165.29C24.4082 165.382 24.3145 165.509 24.2512 165.674C24.188 165.837 24.1563 166.028 24.1563 166.245ZM27.4213 167.043L28.826 164.787H29.3424V167.703H28.8944V165.448L27.4973 167.703H26.9733V164.787H27.4213V167.043ZM29.8516 168.538V167.286H30.0946C30.154 167.223 30.2053 167.156 30.2483 167.084C30.2913 167.012 30.3287 166.927 30.3603 166.828C30.3932 166.728 30.4211 166.607 30.4438 166.464C30.4666 166.319 30.4869 166.145 30.5046 165.942L30.6033 164.787H32.456V167.286H32.904V168.538H32.456V167.703H30.2996V168.538H29.8516ZM30.6033 167.286H32.008V165.205H31.0209L30.945 165.942C30.9133 166.247 30.8741 166.513 30.8273 166.741C30.7805 166.968 30.7058 167.15 30.6033 167.286ZM34.6831 167.764C34.4199 167.764 34.1889 167.701 33.9903 167.576C33.7928 167.451 33.6384 167.275 33.5271 167.05C33.417 166.825 33.3619 166.562 33.3619 166.26C33.3619 165.957 33.417 165.692 33.5271 165.465C33.6384 165.239 33.7928 165.063 33.9903 164.937C34.1889 164.812 34.4199 164.749 34.6831 164.749C34.9463 164.749 35.1767 164.812 35.3741 164.937C35.5728 165.063 35.7272 165.239 35.8373 165.465C35.9486 165.692 36.0043 165.957 36.0043 166.26C36.0043 166.562 35.9486 166.825 35.8373 167.05C35.7272 167.275 35.5728 167.451 35.3741 167.576C35.1767 167.701 34.9463 167.764 34.6831 167.764ZM34.6831 167.361C34.8831 167.361 35.0476 167.31 35.1767 167.208C35.3057 167.105 35.4013 166.97 35.4633 166.803C35.5253 166.636 35.5563 166.455 35.5563 166.26C35.5563 166.066 35.5253 165.884 35.4633 165.716C35.4013 165.547 35.3057 165.411 35.1767 165.308C35.0476 165.204 34.8831 165.152 34.6831 165.152C34.4832 165.152 34.3187 165.204 34.1896 165.308C34.0605 165.411 33.9649 165.547 33.9029 165.716C33.8409 165.884 33.8099 166.066 33.8099 166.26C33.8099 166.455 33.8409 166.636 33.9029 166.803C33.9649 166.97 34.0605 167.105 34.1896 167.208C34.3187 167.31 34.4832 167.361 34.6831 167.361ZM36.6881 168.797V164.787H37.121V165.251H37.1741C37.207 165.2 37.2526 165.135 37.3108 165.057C37.3703 164.977 37.455 164.906 37.5651 164.844C37.6765 164.781 37.8271 164.749 38.0169 164.749C38.2624 164.749 38.4788 164.811 38.6661 164.934C38.8534 165.056 38.9996 165.23 39.1046 165.456C39.2097 165.681 39.2622 165.947 39.2622 166.253C39.2622 166.562 39.2097 166.829 39.1046 167.056C38.9996 167.281 38.8541 167.456 38.668 167.58C38.482 167.702 38.2675 167.764 38.0245 167.764C37.8372 167.764 37.6873 167.733 37.5746 167.671C37.462 167.608 37.3753 167.536 37.3146 167.456C37.2538 167.375 37.207 167.308 37.1741 167.255H37.1361V168.797H36.6881ZM37.1285 166.245C37.1285 166.465 37.1608 166.66 37.2254 166.828C37.2899 166.995 37.3842 167.126 37.5082 167.221C37.6322 167.315 37.7841 167.361 37.9638 167.361C38.1511 167.361 38.3074 167.312 38.4326 167.213C38.5592 167.113 38.6541 166.979 38.7174 166.811C38.7819 166.641 38.8142 166.453 38.8142 166.245C38.8142 166.04 38.7826 165.855 38.7193 165.691C38.6573 165.525 38.563 165.394 38.4364 165.298C38.3112 165.201 38.1536 165.152 37.9638 165.152C37.7815 165.152 37.6284 165.198 37.5044 165.29C37.3804 165.382 37.2867 165.509 37.2235 165.674C37.1602 165.837 37.1285 166.028 37.1285 166.245Z" fill="black"/>
<path d="M24.5523 173.24V172.853L26.2607 170.149H26.5416V170.749H26.3518L25.061 172.792V172.822H27.3617V173.24H24.5523ZM26.3822 174.037V173.122V172.942V170.149H26.8302V174.037H26.3822ZM28.5661 173.506L28.5358 173.711C28.5143 173.855 28.4813 174.009 28.4371 174.174C28.394 174.338 28.3491 174.493 28.3023 174.639C28.2555 174.784 28.2169 174.9 28.1865 174.986H27.8448C27.8613 174.905 27.8828 174.798 27.9093 174.665C27.9359 174.533 27.9625 174.384 27.9891 174.219C28.0169 174.056 28.0397 173.889 28.0574 173.718L28.0802 173.506H28.5661ZM29.3351 174.037V173.695L30.6183 172.291C30.7689 172.126 30.8929 171.983 30.9904 171.862C31.0878 171.739 31.16 171.624 31.2068 171.516C31.2549 171.407 31.2789 171.293 31.2789 171.175C31.2789 171.038 31.246 170.92 31.1802 170.82C31.1157 170.72 31.0271 170.642 30.9144 170.588C30.8018 170.534 30.6753 170.506 30.5348 170.506C30.3855 170.506 30.2551 170.537 30.1438 170.599C30.0337 170.66 29.9482 170.746 29.8875 170.856C29.828 170.966 29.7983 171.095 29.7983 171.243H29.3503C29.3503 171.015 29.4028 170.815 29.5078 170.643C29.6129 170.471 29.7559 170.337 29.9368 170.241C30.1191 170.144 30.3235 170.096 30.55 170.096C30.7778 170.096 30.9796 170.144 31.1555 170.241C31.3314 170.337 31.4694 170.466 31.5693 170.63C31.6693 170.793 31.7193 170.975 31.7193 171.175C31.7193 171.318 31.6934 171.457 31.6415 171.594C31.5909 171.729 31.5023 171.881 31.3757 172.048C31.2504 172.214 31.0764 172.416 30.8537 172.655L29.9805 173.589V173.619H31.7876V174.037H29.3351Z" fill="black"/>
<mask id="path-5-inside-1_580_10595" fill="white">
<path d="M81.1846 132.302H50.7822V115.597H64.4805V90.873H81.1846V132.302Z"/>
</mask>
<path d="M81.1846 132.302H50.7822V115.597H64.4805V90.873H81.1846V132.302Z" fill="white"/>
<path d="M81.1846 132.302V132.636H81.5187V132.302H81.1846ZM50.7822 132.302H50.4481V132.636H50.7822V132.302ZM50.7822 115.597V115.263H50.4481V115.597H50.7822ZM64.4805 115.597V115.931H64.8146V115.597H64.4805ZM64.4805 90.873V90.539H64.1464V90.873H64.4805ZM81.1846 90.873H81.5187V90.539H81.1846V90.873ZM81.1846 132.302V131.968H50.7822V132.302V132.636H81.1846V132.302ZM50.7822 132.302H51.1163V115.597H50.7822H50.4481V132.302H50.7822ZM50.7822 115.597V115.931H64.4805V115.597V115.263H50.7822V115.597ZM64.4805 115.597H64.8146V90.873H64.4805H64.1464V115.597H64.4805ZM64.4805 90.873V91.2071H81.1846V90.873V90.539H64.4805V90.873ZM81.1846 90.873H80.8505V132.302H81.1846H81.5187V90.873H81.1846Z" fill="black" mask="url(#path-5-inside-1_580_10595)"/>
<rect x="6.5147" y="91.0401" width="16.3706" height="41.0934" fill="white" stroke="black" stroke-width="0.334093"/>
<rect x="69.8252" y="90.2061" width="11.0251" height="0.668186" fill="#999999"/>
<rect x="53.7891" y="90.2061" width="11.0251" height="0.668186" fill="#999999"/>
<rect x="37.7529" y="90.2061" width="11.0251" height="0.668186" fill="#999999"/>
<rect x="21.7158" y="90.2061" width="11.0251" height="0.668186" fill="#999999"/>
<rect x="5.67969" y="90.2061" width="11.0251" height="0.668186" fill="#999999"/>
<path d="M38.6453 62.1299L37.3089 60.3455H36.8305V62.1299H36.3598V58.2423H36.8305V59.9279H37.0355L38.5921 58.2423H39.154L37.5822 59.9507L39.2071 62.1299H38.6453ZM40.7253 62.1906C40.462 62.1906 40.2311 62.128 40.0324 62.0027C39.835 61.8774 39.6806 61.7021 39.5692 61.4769C39.4591 61.2516 39.4041 60.9884 39.4041 60.6872C39.4041 60.3835 39.4591 60.1184 39.5692 59.8918C39.6806 59.6653 39.835 59.4894 40.0324 59.3641C40.2311 59.2388 40.462 59.1762 40.7253 59.1762C40.9885 59.1762 41.2188 59.2388 41.4162 59.3641C41.6149 59.4894 41.7693 59.6653 41.8794 59.8918C41.9908 60.1184 42.0465 60.3835 42.0465 60.6872C42.0465 60.9884 41.9908 61.2516 41.8794 61.4769C41.7693 61.7021 41.6149 61.8774 41.4162 62.0027C41.2188 62.128 40.9885 62.1906 40.7253 62.1906ZM40.7253 61.7882C40.9252 61.7882 41.0897 61.7369 41.2188 61.6344C41.3479 61.5319 41.4434 61.3972 41.5055 61.2301C41.5675 61.0631 41.5985 60.8821 41.5985 60.6872C41.5985 60.4923 41.5675 60.3107 41.5055 60.1424C41.4434 59.9741 41.3479 59.8381 41.2188 59.7343C41.0897 59.6305 40.9252 59.5786 40.7253 59.5786C40.5253 59.5786 40.3608 59.6305 40.2317 59.7343C40.1026 59.8381 40.0071 59.9741 39.9451 60.1424C39.8831 60.3107 39.8521 60.4923 39.8521 60.6872C39.8521 60.8821 39.8831 61.0631 39.9451 61.2301C40.0071 61.3972 40.1026 61.5319 40.2317 61.6344C40.3608 61.7369 40.5253 61.7882 40.7253 61.7882ZM44.3248 61.5224L45.3423 59.2142H45.7675L44.5071 62.1299H44.1426L42.9049 59.2142H43.3226L44.3248 61.5224ZM43.1783 59.2142V62.1299H42.7303V59.2142H43.1783ZM45.4714 62.1299V59.2142H45.9194V62.1299H45.4714ZM48.6908 60.467V60.8846H47.0811V60.467H48.6908ZM47.1874 59.2142V62.1299H46.7394V59.2142H47.1874ZM49.0325 59.2142V62.1299H48.5845V59.2142H49.0325ZM50.7087 62.1982C50.5239 62.1982 50.3562 62.1634 50.2056 62.0938C50.055 62.0229 49.9355 61.9211 49.8469 61.7882C49.7583 61.6541 49.714 61.4921 49.714 61.3022C49.714 61.1352 49.7469 60.9998 49.8127 60.896C49.8785 60.791 49.9665 60.7087 50.0766 60.6492C50.1867 60.5898 50.3081 60.5455 50.441 60.5164C50.5752 60.486 50.7099 60.4619 50.8454 60.4442C51.0225 60.4215 51.1662 60.4044 51.2763 60.393C51.3876 60.3803 51.4686 60.3594 51.5192 60.3303C51.5711 60.3012 51.5971 60.2506 51.5971 60.1785V60.1633C51.5971 59.976 51.5458 59.8305 51.4433 59.7267C51.3421 59.6229 51.1883 59.571 50.982 59.571C50.7682 59.571 50.6005 59.6179 50.479 59.7115C50.3575 59.8052 50.2721 59.9051 50.2227 60.0114L49.7975 59.8596C49.8734 59.6824 49.9747 59.5445 50.1012 59.4457C50.2291 59.3458 50.3683 59.2762 50.5189 59.2369C50.6707 59.1964 50.82 59.1762 50.9668 59.1762C51.0605 59.1762 51.1681 59.1876 51.2895 59.2104C51.4123 59.2319 51.5306 59.2768 51.6445 59.3451C51.7597 59.4135 51.8552 59.5166 51.9312 59.6546C52.0071 59.7925 52.0451 59.9773 52.0451 60.2088V62.1299H51.5971V61.735H51.5743C51.5439 61.7983 51.4933 61.866 51.4224 61.9382C51.3516 62.0103 51.2573 62.0717 51.1396 62.1223C51.0219 62.1729 50.8783 62.1982 50.7087 62.1982ZM50.777 61.7958C50.9542 61.7958 51.1035 61.761 51.225 61.6914C51.3478 61.6218 51.4401 61.5319 51.5021 61.4218C51.5654 61.3117 51.5971 61.1959 51.5971 61.0745V60.6644C51.5781 60.6872 51.5363 60.7081 51.4718 60.7271C51.4085 60.7448 51.3351 60.7606 51.2516 60.7745C51.1693 60.7872 51.089 60.7986 51.0105 60.8087C50.9333 60.8176 50.8707 60.8251 50.8226 60.8315C50.7061 60.8467 50.5973 60.8713 50.4961 60.9055C50.3961 60.9384 50.3151 60.9884 50.2531 61.0555C50.1924 61.1213 50.162 61.2111 50.162 61.325C50.162 61.4807 50.2196 61.5984 50.3347 61.6781C50.4511 61.7566 50.5986 61.7958 50.777 61.7958ZM52.466 59.6318V59.2142H54.835V59.6318H53.8783V62.1299H53.4303V59.6318H52.466ZM56.1951 62.1982C56.0103 62.1982 55.8427 62.1634 55.6921 62.0938C55.5415 62.0229 55.4219 61.9211 55.3333 61.7882C55.2447 61.6541 55.2004 61.4921 55.2004 61.3022C55.2004 61.1352 55.2333 60.9998 55.2991 60.896C55.3649 60.791 55.4529 60.7087 55.563 60.6492C55.6731 60.5898 55.7946 60.5455 55.9275 60.5164C56.0616 60.486 56.1964 60.4619 56.3318 60.4442C56.509 60.4215 56.6526 60.4044 56.7627 60.393C56.8741 60.3803 56.955 60.3594 57.0057 60.3303C57.0576 60.3012 57.0835 60.2506 57.0835 60.1785V60.1633C57.0835 59.976 57.0322 59.8305 56.9297 59.7267C56.8285 59.6229 56.6747 59.571 56.4685 59.571C56.2546 59.571 56.0869 59.6179 55.9654 59.7115C55.8439 59.8052 55.7585 59.9051 55.7092 60.0114L55.284 59.8596C55.3599 59.6824 55.4611 59.5445 55.5877 59.4457C55.7155 59.3458 55.8547 59.2762 56.0053 59.2369C56.1571 59.1964 56.3065 59.1762 56.4533 59.1762C56.5469 59.1762 56.6545 59.1876 56.776 59.2104C56.8987 59.2319 57.0171 59.2768 57.131 59.3451C57.2461 59.4135 57.3417 59.5166 57.4176 59.6546C57.4935 59.7925 57.5315 59.9773 57.5315 60.2088V62.1299H57.0835V61.735H57.0607C57.0303 61.7983 56.9797 61.866 56.9089 61.9382C56.838 62.0103 56.7437 62.0717 56.626 62.1223C56.5083 62.1729 56.3647 62.1982 56.1951 62.1982ZM56.2635 61.7958C56.4406 61.7958 56.59 61.761 56.7114 61.6914C56.8342 61.6218 56.9266 61.5319 56.9886 61.4218C57.0519 61.3117 57.0835 61.1959 57.0835 61.0745V60.6644C57.0645 60.6872 57.0228 60.7081 56.9582 60.7271C56.8949 60.7448 56.8215 60.7606 56.738 60.7745C56.6558 60.7872 56.5754 60.7986 56.4969 60.8087C56.4197 60.8176 56.3571 60.8251 56.309 60.8315C56.1926 60.8467 56.0837 60.8713 55.9825 60.9055C55.8825 60.9384 55.8015 60.9884 55.7395 61.0555C55.6788 61.1213 55.6484 61.2111 55.6484 61.325C55.6484 61.4807 55.706 61.5984 55.8212 61.6781C55.9376 61.7566 56.085 61.7958 56.2635 61.7958Z" fill="black"/>
<path d="M43.5289 64.5762V68.4639H43.0581V65.0698H43.0354L42.0862 65.7V65.2216L43.0581 64.5762H43.5289ZM45.915 68.517C45.629 68.517 45.3854 68.4392 45.1842 68.2835C44.983 68.1266 44.8292 67.8995 44.7229 67.6021C44.6166 67.3034 44.5635 66.9427 44.5635 66.5201C44.5635 66.0999 44.6166 65.7411 44.7229 65.4437C44.8305 65.1451 44.9849 64.9173 45.1861 64.7604C45.3886 64.6022 45.6315 64.5231 45.915 64.5231C46.1985 64.5231 46.4408 64.6022 46.6421 64.7604C46.8445 64.9173 46.9989 65.1451 47.1052 65.4437C47.2128 65.7411 47.2666 66.0999 47.2666 66.5201C47.2666 66.9427 47.2134 67.3034 47.1071 67.6021C47.0008 67.8995 46.8471 68.1266 46.6458 68.2835C46.4446 68.4392 46.201 68.517 45.915 68.517ZM45.915 68.0994C46.1985 68.0994 46.4187 67.9627 46.5756 67.6894C46.7325 67.416 46.811 67.0263 46.811 66.5201C46.811 66.1834 46.7749 65.8968 46.7028 65.6601C46.6319 65.4235 46.5294 65.2432 46.3953 65.1191C46.2624 64.9951 46.1023 64.9331 45.915 64.9331C45.6341 64.9331 45.4145 65.0717 45.2563 65.3488C45.0981 65.6247 45.019 66.0151 45.019 66.5201C45.019 66.8567 45.0545 67.1427 45.1253 67.3781C45.1962 67.6134 45.2981 67.7925 45.431 67.9153C45.5651 68.038 45.7265 68.0994 45.915 68.0994ZM48.528 67.9324L48.4976 68.1374C48.4761 68.2816 48.4432 68.436 48.3989 68.6005C48.3559 68.7651 48.3109 68.9201 48.2641 69.0656C48.2173 69.2111 48.1787 69.3269 48.1483 69.413H47.8066C47.8231 69.332 47.8446 69.2251 47.8712 69.0922C47.8977 68.9593 47.9243 68.8106 47.9509 68.6461C47.9787 68.4828 48.0015 68.3158 48.0192 68.145L48.042 67.9324H48.528ZM50.4335 68.517C50.2108 68.517 50.0102 68.4727 49.8318 68.3841C49.6533 68.2956 49.5103 68.1741 49.4028 68.0197C49.2952 67.8653 49.2363 67.6894 49.2262 67.492H49.6818C49.6995 67.6679 49.7792 67.8134 49.921 67.9286C50.064 68.0425 50.2348 68.0994 50.4335 68.0994C50.593 68.0994 50.7347 68.0621 50.8587 67.9874C50.984 67.9127 51.0821 67.8102 51.153 67.6799C51.2251 67.5483 51.2612 67.3996 51.2612 67.2338C51.2612 67.0642 51.2238 66.913 51.1492 66.7801C51.0758 66.646 50.9745 66.5403 50.8454 66.4631C50.7164 66.3859 50.5689 66.3467 50.4031 66.3454C50.2842 66.3441 50.1621 66.3625 50.0368 66.4005C49.9115 66.4372 49.8084 66.4846 49.7274 66.5428L49.287 66.4897L49.5224 64.5762H51.5421V64.9939H49.9172L49.7805 66.1404H49.8033C49.883 66.0771 49.983 66.0246 50.1032 65.9828C50.2234 65.9411 50.3487 65.9202 50.4791 65.9202C50.717 65.9202 50.929 65.9772 51.115 66.091C51.3023 66.2037 51.4491 66.3581 51.5554 66.5542C51.663 66.7504 51.7167 66.9744 51.7167 67.2262C51.7167 67.4742 51.6611 67.6957 51.5497 67.8906C51.4396 68.0842 51.2877 68.2373 51.0941 68.35C50.9005 68.4613 50.6803 68.517 50.4335 68.517Z" fill="black"/>
<path d="M46.1915 26.0432V31.3887H45.0613V27.1159H45.03L43.8059 27.8833V26.881L45.1292 26.0432H46.1915ZM49.5579 31.5061C49.1089 31.5044 48.7226 31.3939 48.399 31.1746C48.0771 30.9554 47.8291 30.6378 47.6551 30.222C47.4828 29.8061 47.3976 29.3058 47.3993 28.7211C47.3993 28.1382 47.4855 27.6414 47.6577 27.2308C47.8317 26.8201 48.0797 26.5078 48.4016 26.2938C48.7253 26.078 49.1107 25.9701 49.5579 25.9701C50.0051 25.9701 50.3896 26.078 50.7115 26.2938C51.0352 26.5095 51.284 26.8227 51.458 27.2334C51.632 27.6423 51.7182 28.1382 51.7164 28.7211C51.7164 29.3075 51.6294 29.8087 51.4554 30.2246C51.2832 30.6404 51.0361 30.958 50.7142 31.1773C50.3922 31.3965 50.0068 31.5061 49.5579 31.5061ZM49.5579 30.5691C49.8641 30.5691 50.1086 30.4151 50.2913 30.1071C50.474 29.7991 50.5645 29.3371 50.5628 28.7211C50.5628 28.3157 50.521 27.9781 50.4375 27.7084C50.3557 27.4387 50.2391 27.236 50.0877 27.1003C49.9381 26.9645 49.7615 26.8967 49.5579 26.8967C49.2534 26.8967 49.0098 27.0489 48.827 27.3535C48.6443 27.658 48.5521 28.1139 48.5504 28.7211C48.5504 29.1318 48.5913 29.4746 48.6731 29.7495C48.7566 30.0227 48.874 30.228 49.0254 30.3655C49.1768 30.5012 49.3543 30.5691 49.5579 30.5691ZM53.5259 30.6578L53.4972 30.945C53.4746 31.1746 53.4311 31.4035 53.3667 31.6314C53.304 31.8611 53.2379 32.069 53.1683 32.2552C53.1004 32.4414 53.0456 32.5876 53.0039 32.6937H52.2835C52.3096 32.5911 52.3452 32.4475 52.3905 32.2631C52.4357 32.0803 52.4784 31.875 52.5184 31.6471C52.5584 31.4191 52.5836 31.1868 52.5941 30.9502L52.6071 30.6578H53.5259ZM56.3679 31.4618C55.999 31.4618 55.6701 31.3939 55.3812 31.2582C55.0941 31.1224 54.8662 30.9354 54.6974 30.697C54.5286 30.4586 54.4407 30.1854 54.4338 29.8774H55.53C55.5422 30.0845 55.6292 30.2524 55.791 30.3812C55.9529 30.5099 56.1451 30.5743 56.3679 30.5743C56.5454 30.5743 56.702 30.5352 56.8377 30.4569C56.9752 30.3768 57.0822 30.2663 57.1587 30.1254C57.237 29.9827 57.2762 29.8191 57.2762 29.6347C57.2762 29.4468 57.2362 29.2814 57.1561 29.1388C57.0778 28.9961 56.9691 28.8847 56.8299 28.8047C56.6907 28.7246 56.5314 28.6837 56.3522 28.682C56.1956 28.682 56.0433 28.7142 55.8954 28.7786C55.7493 28.843 55.6353 28.9308 55.5535 29.0422L54.5486 28.8621L54.8018 26.0432H58.0697V26.9672H55.7336L55.5953 28.3061H55.6266C55.7206 28.1739 55.8624 28.0643 56.052 27.9773C56.2417 27.8903 56.454 27.8468 56.6889 27.8468C57.0108 27.8468 57.2979 27.9225 57.5502 28.0738C57.8026 28.2252 58.0018 28.4332 58.148 28.6977C58.2941 28.9604 58.3663 29.2632 58.3646 29.606C58.3663 29.9662 58.2828 30.2863 58.114 30.5665C57.947 30.8449 57.7129 31.0641 57.4119 31.2242C57.1126 31.3826 56.7646 31.4618 56.3679 31.4618Z" fill="black"/>
<path d="M44.8678 43.7498V42.9354L46.7706 41.1736C46.9324 41.017 47.0682 40.876 47.1778 40.7507C47.2892 40.6255 47.3735 40.5028 47.431 40.3827C47.4884 40.2609 47.5171 40.1295 47.5171 39.9886C47.5171 39.832 47.4814 39.6971 47.4101 39.584C47.3387 39.4692 47.2413 39.3813 47.1178 39.3204C46.9942 39.2578 46.8541 39.2264 46.6975 39.2264C46.534 39.2264 46.3913 39.2595 46.2695 39.3256C46.1477 39.3918 46.0537 39.4866 45.9876 39.6101C45.9215 39.7337 45.8884 39.8807 45.8884 40.0512H44.8156C44.8156 39.7015 44.8948 39.3978 45.0532 39.1403C45.2115 38.8828 45.4334 38.6835 45.7187 38.5426C46.0041 38.4017 46.333 38.3312 46.7054 38.3312C47.0882 38.3312 47.4214 38.399 47.705 38.5348C47.9904 38.6688 48.2123 38.8549 48.3706 39.0933C48.529 39.3317 48.6081 39.6049 48.6081 39.9129C48.6081 40.1148 48.5681 40.314 48.4881 40.5106C48.4098 40.7072 48.2697 40.9256 48.0678 41.1658C47.866 41.4041 47.5815 41.6904 47.2143 42.0245L46.4339 42.7892V42.8258H48.6786V43.7498H44.8678ZM49.3018 42.8101V41.9201L51.5334 38.4043H52.3008V39.6362H51.8466L50.4398 41.8627V41.9044H53.611V42.8101H49.3018ZM51.8675 43.7498V42.5387L51.8884 42.1445V38.4043H52.9481V43.7498H51.8675ZM55.4825 43.0189L55.4538 43.306C55.4312 43.5357 55.3876 43.7645 55.3233 43.9925C55.2606 44.2222 55.1945 44.4301 55.1249 44.6163C55.057 44.8025 55.0022 44.9487 54.9605 45.0548H54.2401C54.2662 44.9521 54.3018 44.8086 54.3471 44.6241C54.3923 44.4414 54.435 44.2361 54.475 44.0082C54.515 43.7802 54.5402 43.5479 54.5507 43.3113L54.5637 43.0189H55.4825ZM58.3693 43.8672C57.9203 43.8655 57.534 43.755 57.2104 43.5357C56.8885 43.3165 56.6405 42.9989 56.4665 42.583C56.2942 42.1672 56.209 41.6669 56.2107 41.0822C56.2107 40.4993 56.2968 40.0025 56.4691 39.5919C56.6431 39.1812 56.8911 38.8689 57.213 38.6548C57.5366 38.4391 57.9221 38.3312 58.3693 38.3312C58.8165 38.3312 59.201 38.4391 59.5229 38.6548C59.8466 38.8706 60.0954 39.1838 60.2694 39.5945C60.4434 40.0034 60.5296 40.4993 60.5278 41.0822C60.5278 41.6686 60.4408 42.1698 60.2668 42.5857C60.0945 43.0015 59.8474 43.3191 59.5255 43.5383C59.2036 43.7576 58.8182 43.8672 58.3693 43.8672ZM58.3693 42.9302C58.6755 42.9302 58.92 42.7762 59.1027 42.4682C59.2854 42.1602 59.3759 41.6982 59.3741 41.0822C59.3741 40.6768 59.3324 40.3392 59.2489 40.0695C59.1671 39.7998 59.0505 39.5971 58.8991 39.4614C58.7495 39.3256 58.5728 39.2578 58.3693 39.2578C58.0647 39.2578 57.8211 39.41 57.6384 39.7145C57.4557 40.019 57.3635 40.4749 57.3618 41.0822C57.3618 41.4929 57.4026 41.8357 57.4844 42.1106C57.568 42.3838 57.6854 42.5891 57.8368 42.7266C57.9882 42.8623 58.1657 42.9302 58.3693 42.9302Z" fill="black"/>
<path d="M33.1612 32.0566V37.4021H32.031V33.1294H31.9997L30.7756 33.8967V32.8945L32.0989 32.0566H33.1612ZM35.7237 35.0634L35.7889 34.0533L34.9433 34.6197L34.5935 34.0037L35.5044 33.56L34.5935 33.1163L34.9433 32.5003L35.7889 33.0667L35.7237 32.0566H36.4258L36.3579 33.0667L37.2036 32.5003L37.5534 33.1163L36.6451 33.56L37.5534 34.0037L37.2036 34.6197L36.3579 34.0533L36.4258 35.0634H35.7237Z" fill="black"/>
<rect x="27.3956" y="23.3868" width="34.7457" height="23.3865" stroke="black" stroke-width="0.668186"/>
<rect x="40.0908" y="34.7461" width="22.3842" height="0.668186" fill="black"/>
<rect x="40.7598" y="23.0527" width="24.0547" height="0.668185" transform="rotate(90 40.7598 23.0527)" fill="black"/>
<path d="M64.8145 146.166L60.8047 146.166C58.683 146.166 56.9631 144.446 56.9629 142.324L56.9629 136.311C56.9629 136.218 57.0377 136.144 57.1299 136.144L68.4893 136.144C68.5815 136.144 68.6562 136.218 68.6562 136.311L68.6562 142.324C68.6561 144.446 66.9361 146.166 64.8145 146.166Z" stroke="black" stroke-width="0.334093"/>
<path d="M64.1465 145.164L61.4736 145.164C59.9053 145.164 58.6338 143.892 58.6338 142.324L58.6338 138.983C58.6338 138.891 58.7086 138.816 58.8008 138.816L66.8193 138.816C66.9115 138.816 66.9863 138.891 66.9863 138.983L66.9863 142.324C66.9863 143.892 65.7149 145.164 64.1465 145.164Z" stroke="black" stroke-width="0.334093"/>
<path d="M62.8096 141.488C62.3484 141.488 61.9738 141.115 61.9736 140.653C61.9736 140.192 62.3483 139.817 62.8096 139.817C63.2708 139.818 63.6445 140.192 63.6445 140.653C63.6444 141.114 63.2707 141.488 62.8096 141.488Z" stroke="black" stroke-width="0.334093"/>
<path d="M96.3857 162.703C96.386 161.873 97.0595 161.2 97.8896 161.2L98.8916 161.2C98.9838 161.2 99.0586 161.275 99.0586 161.367L99.0586 164.04C99.0585 164.132 98.9838 164.207 98.8916 164.207L97.8896 164.207C97.0593 164.207 96.3857 163.533 96.3857 162.703Z" stroke="black" stroke-width="0.334093"/>
<circle cx="106.575" cy="162.704" r="0.50114" transform="rotate(-90 106.575 162.704)" stroke="black" stroke-width="0.334093"/>
<path d="M93.3789 163.372L93.3789 162.035C93.379 159.913 95.099 158.194 97.2207 158.193L105.907 158.193C107.291 158.193 108.413 159.315 108.413 160.699L108.413 164.708C108.413 166.092 107.291 167.214 105.907 167.214L97.2207 167.214C95.099 167.214 93.3791 165.494 93.3789 163.372Z" stroke="black" stroke-width="0.334093"/>
<path d="M94.7148 162.703C94.7148 161.135 95.9863 159.863 97.5547 159.863L100.228 159.863C101.427 159.863 102.399 160.836 102.399 162.035L102.399 163.371C102.399 164.57 101.427 165.543 100.228 165.543L97.5547 165.543C95.9863 165.543 94.7148 164.271 94.7148 162.703Z" stroke="black" stroke-width="0.334093"/>
<rect x="104.404" y="166.546" width="7.68414" height="4.00912" rx="1.83751" transform="rotate(-90 104.404 166.546)" stroke="black" stroke-width="0.334093"/>
<path d="M79.6816 143.325C79.6816 143.787 79.3079 144.161 78.8467 144.161C78.3854 144.161 78.0107 143.787 78.0107 143.325C78.0109 142.864 78.3855 142.49 78.8467 142.49C79.3078 142.491 79.6815 142.864 79.6816 143.325Z" stroke="black" stroke-width="0.334093"/>
<rect x="108.414" y="136.142" width="14.366" height="34.4116" transform="rotate(90 108.414 136.142)" stroke="black" stroke-width="0.334093"/>
<path d="M107.411 141.988L107.411 144.661C107.411 146.967 105.542 148.838 103.235 148.838L77.8438 148.838C76.2755 148.838 75.004 147.566 75.0039 145.998L75.0039 140.652C75.0039 139.084 76.2754 137.813 77.8438 137.813L103.235 137.813C105.541 137.813 107.411 139.682 107.411 141.988Z" stroke="black" stroke-width="0.334093"/>
<path d="M68.8223 5.17871V10.8584H19.8779V5.17871H68.8223Z" fill="white" stroke="black" stroke-width="0.334093"/>
<rect x="21.3819" y="1.33681" width="3.34093" height="21.0479" transform="rotate(90 21.3819 1.33681)" fill="#999999" stroke="black" stroke-width="0.668186"/>
<rect x="21.3818" y="0.333984" width="21.0479" height="0.334094" transform="rotate(180 21.3818 0.333984)" fill="black"/>
<rect x="87.1984" y="1.33681" width="3.34093" height="19.3774" transform="rotate(90 87.1984 1.33681)" fill="#999999" stroke="black" stroke-width="0.668186"/>
<rect x="87.1982" y="0.333984" width="19.7115" height="0.334094" transform="rotate(180 87.1982 0.333984)" fill="black"/>
<path d="M30.1415 108.235L28.8051 106.451H28.3268V108.235H27.856V104.348H28.3268V106.033H28.5318L30.0884 104.348H30.6502L29.0785 106.056L30.7034 108.235H30.1415ZM31.3256 109.329C31.2496 109.329 31.1819 109.322 31.1224 109.31C31.063 109.298 31.0218 109.287 30.9991 109.276L31.1129 108.881C31.2218 108.909 31.318 108.919 31.4015 108.911C31.485 108.904 31.559 108.866 31.6236 108.799C31.6894 108.733 31.7495 108.626 31.8039 108.478L31.8874 108.251L30.8092 105.32H31.2952L32.1 107.643H32.1304L32.9353 105.32H33.4212L32.1836 108.661C32.1279 108.811 32.0589 108.936 31.9767 109.035C31.8944 109.134 31.7989 109.209 31.69 109.257C31.5825 109.305 31.461 109.329 31.3256 109.329ZM34.3466 105.32L35.0452 106.512L35.7437 105.32H36.2601L35.3185 106.777L36.2601 108.235H35.7437L35.0452 107.104L34.3466 108.235H33.8303L34.7567 106.777L33.8303 105.32H34.3466ZM38.8507 106.572V106.99H37.241V106.572H38.8507ZM37.3473 105.32V108.235H36.8993V105.32H37.3473ZM39.1924 105.32V108.235H38.7444V105.32H39.1924ZM41.7645 108.235V105.73H40.9901C40.8154 105.73 40.6781 105.77 40.5781 105.851C40.4782 105.932 40.4282 106.043 40.4282 106.185C40.4282 106.324 40.4731 106.434 40.5629 106.514C40.6541 106.593 40.7787 106.633 40.9369 106.633H41.8784V107.051H40.9369C40.7395 107.051 40.5693 107.016 40.4263 106.946C40.2833 106.877 40.1732 106.777 40.096 106.648C40.0188 106.518 39.9802 106.364 39.9802 106.185C39.9802 106.006 40.0207 105.851 40.1017 105.722C40.1827 105.593 40.2985 105.494 40.449 105.424C40.6009 105.354 40.7812 105.32 40.9901 105.32H42.1897V108.235H41.7645ZM39.8207 108.235L40.6484 106.785H41.1343L40.3067 108.235H39.8207ZM44.6826 106.36V106.777H42.9818V106.36H44.6826ZM47.4223 106.572V106.99H45.8126V106.572H47.4223ZM45.9189 105.32V108.235H45.4709V105.32H45.9189ZM47.764 105.32V108.235H47.316V105.32H47.764ZM49.0301 107.575L50.4348 105.32H50.9512V108.235H50.5032V105.98L49.106 108.235H48.5821V105.32H49.0301V107.575ZM51.7717 105.32H52.2197V107.818H53.3206V105.32H53.7686V107.818H54.8696V105.32H55.3176V108.235H51.7717V105.32ZM56.9938 108.304C56.809 108.304 56.6413 108.269 56.4907 108.199C56.3401 108.128 56.2206 108.027 56.132 107.894C56.0434 107.76 55.9991 107.598 55.9991 107.408C55.9991 107.241 56.032 107.105 56.0978 107.001C56.1636 106.896 56.2516 106.814 56.3617 106.755C56.4718 106.695 56.5932 106.651 56.7261 106.622C56.8603 106.591 56.995 106.567 57.1305 106.55C57.3076 106.527 57.4513 106.51 57.5614 106.498C57.6727 106.486 57.7537 106.465 57.8043 106.436C57.8562 106.407 57.8822 106.356 57.8822 106.284V106.269C57.8822 106.081 57.8309 105.936 57.7284 105.832C57.6272 105.728 57.4734 105.677 57.2671 105.677C57.0533 105.677 56.8856 105.723 56.7641 105.817C56.6426 105.911 56.5572 106.011 56.5078 106.117L56.0826 105.965C56.1585 105.788 56.2598 105.65 56.3863 105.551C56.5142 105.451 56.6534 105.382 56.804 105.342C56.9558 105.302 57.1051 105.282 57.2519 105.282C57.3456 105.282 57.4532 105.293 57.5746 105.316C57.6974 105.337 57.8157 105.382 57.9296 105.451C58.0448 105.519 58.1403 105.622 58.2163 105.76C58.2922 105.898 58.3302 106.083 58.3302 106.314V108.235H57.8822V107.841H57.8594C57.829 107.904 57.7784 107.971 57.7075 108.044C57.6367 108.116 57.5424 108.177 57.4247 108.228C57.307 108.278 57.1634 108.304 56.9938 108.304ZM57.0621 107.901C57.2393 107.901 57.3886 107.866 57.5101 107.797C57.6329 107.727 57.7252 107.637 57.7872 107.527C57.8505 107.417 57.8822 107.301 57.8822 107.18V106.77C57.8632 106.793 57.8214 106.814 57.7569 106.833C57.6936 106.85 57.6202 106.866 57.5367 106.88C57.4544 106.893 57.3741 106.904 57.2956 106.914C57.2184 106.923 57.1558 106.931 57.1077 106.937C56.9912 106.952 56.8824 106.977 56.7812 107.011C56.6812 107.044 56.6002 107.094 56.5382 107.161C56.4775 107.227 56.4471 107.317 56.4471 107.43C56.4471 107.586 56.5047 107.704 56.6198 107.784C56.7362 107.862 56.8837 107.901 57.0621 107.901Z" fill="black"/>
<path d="M40.8009 114.622C40.5781 114.622 40.3775 114.578 40.1991 114.49C40.0207 114.401 39.8777 114.28 39.7701 114.125C39.6625 113.971 39.6037 113.795 39.5936 113.597H40.0491C40.0669 113.773 40.1466 113.919 40.2883 114.034C40.4313 114.148 40.6022 114.205 40.8009 114.205C40.9603 114.205 41.102 114.168 41.2261 114.093C41.3513 114.018 41.4494 113.916 41.5203 113.785C41.5924 113.654 41.6285 113.505 41.6285 113.339C41.6285 113.17 41.5912 113.018 41.5165 112.886C41.4431 112.751 41.3419 112.646 41.2128 112.569C41.0837 112.491 40.9363 112.452 40.7705 112.451C40.6515 112.45 40.5294 112.468 40.4041 112.506C40.2788 112.543 40.1757 112.59 40.0947 112.648L39.6543 112.595L39.8897 110.682H41.9094V111.099H40.2845L40.1479 112.246H40.1706C40.2504 112.183 40.3503 112.13 40.4706 112.088C40.5908 112.047 40.7161 112.026 40.8464 112.026C41.0843 112.026 41.2963 112.083 41.4823 112.197C41.6696 112.309 41.8164 112.464 41.9227 112.66C42.0303 112.856 42.0841 113.08 42.0841 113.332C42.0841 113.58 42.0284 113.801 41.917 113.996C41.8069 114.19 41.6551 114.343 41.4614 114.455C41.2678 114.567 41.0476 114.622 40.8009 114.622ZM43.3678 114.038L43.3374 114.243C43.3159 114.387 43.283 114.541 43.2387 114.706C43.1957 114.871 43.1507 115.026 43.1039 115.171C43.0571 115.317 43.0185 115.432 42.9881 115.518H42.6464C42.6629 115.437 42.6844 115.331 42.711 115.198C42.7375 115.065 42.7641 114.916 42.7907 114.752C42.8185 114.588 42.8413 114.421 42.859 114.25L42.8818 114.038H43.3678ZM45.269 114.622C44.983 114.622 44.7394 114.545 44.5382 114.389C44.337 114.232 44.1832 114.005 44.0769 113.708C43.9706 113.409 43.9175 113.048 43.9175 112.626C43.9175 112.205 43.9706 111.847 44.0769 111.549C44.1845 111.251 44.3389 111.023 44.5401 110.866C44.7426 110.708 44.9856 110.629 45.269 110.629C45.5525 110.629 45.7949 110.708 45.9961 110.866C46.1986 111.023 46.3529 111.251 46.4593 111.549C46.5668 111.847 46.6206 112.205 46.6206 112.626C46.6206 113.048 46.5675 113.409 46.4611 113.708C46.3548 114.005 46.2011 114.232 45.9999 114.389C45.7987 114.545 45.555 114.622 45.269 114.622ZM45.269 114.205C45.5525 114.205 45.7727 114.068 45.9296 113.795C46.0866 113.521 46.165 113.132 46.165 112.626C46.165 112.289 46.129 112.002 46.0568 111.766C45.986 111.529 45.8834 111.349 45.7493 111.225C45.6164 111.101 45.4563 111.039 45.269 111.039C44.9881 111.039 44.7685 111.177 44.6103 111.454C44.4522 111.73 44.3731 112.121 44.3731 112.626C44.3731 112.962 44.4085 113.248 44.4794 113.484C44.5502 113.719 44.6521 113.898 44.785 114.021C44.9191 114.143 45.0805 114.205 45.269 114.205Z" fill="black"/>
<rect x="22.8858" y="132.134" width="3.00684" height="16.3706" transform="rotate(90 22.8858 132.134)" fill="#D9D9D9" stroke="black" stroke-width="0.334093"/>
<path d="M109.415 178.907L96.3857 178.907L96.3857 189.264L93.3789 189.264L93.3789 175.9L109.415 175.9L109.415 178.907Z" fill="#D9D9D9" stroke="black" stroke-width="0.334093"/>
<path d="M46.3829 191.278L26.6479 198.177L26.4895 198.233L27.0452 199.809L27.2027 199.753L46.4943 192.929L46.6054 192.889L46.6052 192.771L46.6053 191.435L46.6052 191.2L46.3829 191.278Z" stroke="black" stroke-width="0.334093"/>
<path d="M25.3905 190.433L25.0564 190.433C25.0564 193.842 25.7491 197.08 26.9944 200L27.2946 199.854C26.0712 196.979 25.3905 193.791 25.3905 190.433Z" fill="black"/>
<path d="M51.2923 170.999L58.1918 151.264L58.2476 151.106L59.8234 151.661L59.7679 151.819L52.9441 171.11L52.9038 171.222L52.7859 171.221L51.45 171.221L51.215 171.221L51.2923 170.999Z" stroke="black" stroke-width="0.334093"/>
<path d="M50.4477 150.009V149.675C53.8562 149.675 57.0943 150.367 60.0146 151.613L59.8682 151.913C56.9933 150.689 53.8052 150.009 50.4477 150.009Z" fill="black"/>
<path d="M19.377 4.67773V10.6914H6.34766V189.766H25.0566V195.779H0.333984V4.67773H19.377ZM87.1982 4.67773V128.96H115.596V195.445H46.7725V189.432H109.582V134.974H81.1846V10.6914H69.1572V4.67773H87.1982Z" fill="#D9D9D9" stroke="black" stroke-width="0.668186"/>
<path d="M76.0059 189.264L76.0059 178.572L53.6221 178.572L53.6221 189.264L50.6152 189.264L50.6152 170.555L53.6221 170.555L53.6221 175.565L79.0127 175.565L79.0127 189.264L76.0059 189.264Z" fill="#D9D9D9" stroke="black" stroke-width="0.334093"/>
<path d="M50.6152 149.841L50.6152 132.134L81.0176 132.134L81.0176 135.141L53.6221 135.141L53.6221 149.841L50.6152 149.841Z" fill="#D9D9D9" stroke="black" stroke-width="0.334093"/>
<path d="M71.4959 5.01172L87.1982 5.01172L87.1982 11.0254L71.4959 11.0254L71.4959 5.01172Z" fill="black"/>
<path d="M80.8506 124.616L80.8506 90.873L86.8643 90.873L86.8643 124.616H80.8506Z" fill="black"/>
<path d="M115.262 195.444L57.4639 195.444L57.4639 189.431L115.262 189.431L115.262 195.444Z" fill="black"/>
<path d="M6.68165 5.01142L6.68164 125.953L0.667956 125.953L0.667965 5.01142L6.68165 5.01142Z" fill="black"/>
<rect x="6.5147" y="132.134" width="16.3706" height="16.3706" transform="rotate(-90 6.5147 132.134)" fill="white" stroke="black" stroke-width="0.334093"/>
<path d="M13.3634 125.285L16.0361 122.612M13.3634 122.612L16.0361 125.285M14.6998 125.619L14.6998 122.278M13.0293 123.949L16.3702 123.949" stroke="black" stroke-width="0.334093"/>
<rect x="76.0068" y="129.795" width="22.3842" height="11.6933" rx="3.84207" transform="rotate(180 76.0068 129.795)" fill="white" stroke="black" stroke-width="0.334093"/>
<rect x="63.9794" y="128.459" width="9.02051" height="9.02051" rx="2.17161" transform="rotate(180 63.9794 128.459)" fill="white" stroke="black" stroke-width="0.334093"/>
<rect x="74.6699" y="128.459" width="9.02051" height="9.02051" rx="2.17161" transform="rotate(180 74.6699 128.459)" fill="white" stroke="black" stroke-width="0.334093"/>
<rect x="74.5029" y="127.29" width="8.68642" height="0.334093" transform="rotate(180 74.5029 127.29)" fill="black"/>
<rect x="74.5029" y="125.953" width="8.68642" height="0.334093" transform="rotate(180 74.5029 125.953)" fill="black"/>
<rect x="74.5029" y="124.616" width="8.68642" height="0.334093" transform="rotate(180 74.5029 124.616)" fill="black"/>
<rect x="74.5029" y="123.28" width="8.68642" height="0.334093" transform="rotate(180 74.5029 123.28)" fill="black"/>
<rect x="74.5029" y="121.944" width="8.68642" height="0.334093" transform="rotate(180 74.5029 121.944)" fill="black"/>
<path d="M74.3008 120.607L65.9837 120.607L65.9837 120.273L74.3008 120.273L74.3008 120.607Z" fill="black"/>
<circle cx="59.4685" cy="126.287" r="0.835233" transform="rotate(180 59.4685 126.287)" stroke="black" stroke-width="0.334093"/>
<rect x="64.6465" y="111.42" width="16.3706" height="16.3706" transform="rotate(-90 64.6465 111.42)" fill="white" stroke="black" stroke-width="0.334093"/>
<circle cx="76.8407" cy="107.243" r="2.5057" transform="rotate(-90 76.8407 107.243)" fill="white" stroke="black" stroke-width="0.334093"/>
<circle cx="68.8231" cy="107.243" r="2.5057" transform="rotate(-90 68.8231 107.243)" fill="white" stroke="black" stroke-width="0.334093"/>
<circle cx="76.8407" cy="99.2257" r="2.5057" transform="rotate(-90 76.8407 99.2257)" fill="white" stroke="black" stroke-width="0.334093"/>
<circle cx="68.8231" cy="99.2257" r="2.5057" transform="rotate(-90 68.8231 99.2257)" fill="white" stroke="black" stroke-width="0.334093"/>
<rect x="15.0343" y="65.8165" width="14.0319" height="14.0319" rx="7.01596" fill="white"/>
<rect x="15.0343" y="65.8165" width="14.0319" height="14.0319" rx="7.01596" stroke="black" stroke-width="0.668186"/>
<path d="M19.0209 75.3923C18.702 75.3923 18.418 75.3375 18.1688 75.2279C17.9211 75.1168 17.7253 74.9645 17.5816 74.7709C17.4392 74.5758 17.3659 74.3509 17.3616 74.096H18.2927C18.2984 74.2028 18.3333 74.2968 18.3973 74.3779C18.4628 74.4577 18.5497 74.5196 18.6579 74.5637C18.7661 74.6079 18.8878 74.6299 19.023 74.6299C19.164 74.6299 19.2886 74.605 19.3968 74.5552C19.505 74.5054 19.5897 74.4363 19.6509 74.348C19.7121 74.2598 19.7427 74.158 19.7427 74.0427C19.7427 73.9259 19.71 73.8227 19.6445 73.733C19.5804 73.6419 19.4879 73.5707 19.3669 73.5194C19.2473 73.4682 19.1049 73.4426 18.9398 73.4426H18.5319V72.7635H18.9398C19.0793 72.7635 19.2024 72.7393 19.3092 72.6909C19.4174 72.6425 19.5014 72.5755 19.5612 72.4901C19.621 72.4033 19.6509 72.3022 19.6509 72.1869C19.6509 72.0772 19.6246 71.9811 19.5719 71.8986C19.5206 71.8146 19.448 71.7491 19.3541 71.7021C19.2615 71.6551 19.1533 71.6316 19.0294 71.6316C18.9042 71.6316 18.7896 71.6544 18.6856 71.7C18.5817 71.7441 18.4984 71.8075 18.4358 71.89C18.3731 71.9726 18.3397 72.0694 18.3354 72.1805H17.4492C17.4534 71.9285 17.5253 71.7064 17.6648 71.5142C17.8044 71.322 17.9923 71.1718 18.2286 71.0636C18.4664 70.954 18.7347 70.8991 19.0337 70.8991C19.3355 70.8991 19.5996 70.954 19.826 71.0636C20.0524 71.1732 20.2282 71.3213 20.3535 71.5078C20.4802 71.6929 20.5428 71.9007 20.5414 72.1313C20.5428 72.3762 20.4667 72.5805 20.3129 72.7442C20.1606 72.908 19.962 73.0119 19.7171 73.056V73.0902C20.0388 73.1315 20.2837 73.2433 20.4517 73.4255C20.6211 73.6063 20.7051 73.8327 20.7037 74.1046C20.7051 74.3537 20.6332 74.5751 20.488 74.7687C20.3442 74.9624 20.1456 75.1147 19.8922 75.2257C19.6388 75.3368 19.3484 75.3923 19.0209 75.3923ZM23.2712 70.9589V75.3325H22.3465V71.8366H22.3208L21.3193 72.4645V71.6444L22.402 70.9589H23.2712ZM26.2134 70.9589V75.3325H25.2887V71.8366H25.2631L24.2615 72.4645V71.6444L25.3442 70.9589H26.2134Z" fill="black"/>
</svg>
