<svg width="23" height="29" viewBox="0 0 23 29" fill="none" xmlns="http://www.w3.org/2000/svg">
<path d="M11.3684 10.3643C14.0016 10.3643 16.3259 11.2706 17.9934 12.8809C19.6621 14.4923 20.6584 16.7955 20.6584 19.5586C20.6583 22.3215 19.662 24.6235 17.9934 26.2344C16.3259 27.8441 14.0016 28.75 11.3684 28.75C8.73496 28.75 6.41632 27.8438 4.75513 26.2334C3.09304 24.6221 2.10386 22.3199 2.10376 19.5586C2.10376 14.3935 5.90285 10.3643 11.3684 10.3643ZM11.3684 13.7119C8.24479 13.7119 5.82365 16.094 5.82349 19.5557C5.82349 23.0168 8.2697 25.4004 11.3684 25.4004C13.1235 25.4004 14.51 24.7574 15.4592 23.7168C16.411 22.6734 16.9387 21.2124 16.9387 19.5557C16.9386 16.0955 14.4934 13.712 11.3684 13.7119Z" fill="black" stroke="black" stroke-width="0.5"/>
<path d="M2.61966 7.49647C2.6926 7.62522 2.81488 7.83338 2.88782 7.96213L3.83389 9.60154C3.90683 9.73029 4.06559 9.76465 4.18787 9.67881C4.18787 9.67881 4.62337 9.37195 4.97091 9.16595C5.3635 8.93205 5.9599 8.64879 5.9599 8.64879C6.09291 8.58442 6.14225 8.42992 6.06716 8.30116L5.09318 6.61452C5.02024 6.48577 5.06959 6.33127 5.2026 6.27119C5.2026 6.27119 5.73465 6.02869 6.13583 5.87633C6.56274 5.7154 7.19345 5.53085 7.19345 5.53085C7.33504 5.49008 7.47235 5.57377 7.49809 5.71969L7.84349 7.67456C7.86923 7.82048 8.00654 7.90847 8.14813 7.86984C8.14813 7.86984 8.6823 7.72607 9.15856 7.65096C9.5769 7.58444 10.1668 7.52222 10.1668 7.52222C10.3127 7.5072 10.4136 7.37416 10.3878 7.23038L10.0446 5.27766C10.0188 5.13174 10.1175 5.00512 10.2656 4.99439C10.2656 4.99439 10.9027 4.95148 11.3661 4.95148C11.7994 4.95148 12.383 4.99009 12.383 4.99009C12.531 5.00082 12.6297 5.12744 12.6039 5.27121L12.2607 7.22394C12.2349 7.36986 12.3336 7.4986 12.4816 7.50933C12.4816 7.50933 12.7605 7.53294 13.0287 7.56727C13.4428 7.62306 13.8482 7.69818 14.2472 7.79045C14.421 7.82693 14.5047 7.84839 14.5047 7.84839C14.6484 7.88272 14.7857 7.79473 14.8115 7.64881L15.1525 5.70683C15.1783 5.56091 15.3156 5.47722 15.4572 5.51799C15.4572 5.51799 16.0278 5.68321 16.429 5.82913C16.8624 5.98793 17.4545 6.25401 17.4545 6.25401C17.5896 6.31409 17.639 6.46859 17.5639 6.59734L16.6071 8.25611C16.5341 8.38486 16.5835 8.53721 16.7165 8.59944C16.7165 8.59944 17.2185 8.8269 17.5746 9.02432C17.9758 9.24534 18.5035 9.60583 18.5035 9.60583C18.6258 9.68952 18.7846 9.65304 18.8596 9.52429L19.7778 7.93635C19.8508 7.8076 19.9731 7.59947 20.046 7.47072L21.0178 5.78623C21.0908 5.65747 21.2131 5.44932 21.286 5.32057L22.526 3.179C22.5989 3.05025 22.6826 2.90863 22.7083 2.85927C22.7341 2.81206 22.7191 2.75198 22.6762 2.72408L22.6161 2.68759C22.5582 2.65326 22.4938 2.61464 22.4402 2.58245L22.3908 2.5524C22.3565 2.53309 22.2965 2.54167 22.2557 2.57601L22.2192 2.60605C22.1505 2.66184 22.0819 2.71549 22.0132 2.76699C21.0908 3.45581 20.0846 3.86353 19.1214 3.90216C18.7181 3.91718 18.3212 3.86998 17.9415 3.74981C17.9157 3.74123 17.8921 3.7305 17.8664 3.72191C17.7913 3.69616 17.7183 3.66826 17.6475 3.63607C16.828 3.28415 16.2209 2.61036 15.8541 1.73699C15.7103 1.39151 15.6031 1.01383 15.5366 0.612555C15.513 0.47522 15.4958 0.3336 15.4808 0.189827L15.4765 0.149055C15.4722 0.103992 15.4379 0.0610746 15.3993 0.0546371L15.3435 0.0460453C15.2684 0.035316 15.1804 0.0202986 15.1075 0.00956936L15.0539 0.000990642C15.0174 -0.00544693 14.9702 0.0203034 14.9509 0.0546371L14.9337 0.0868171C14.8565 0.21986 14.7771 0.346472 14.6934 0.468786C14.273 1.08679 13.7645 1.58892 13.196 1.93654C12.7005 2.23911 12.162 2.4258 11.5935 2.46871C11.5098 2.47515 11.424 2.47945 11.3382 2.47945C11.2524 2.47945 11.1752 2.4773 11.0936 2.47086C10.5144 2.42794 9.96306 2.23698 9.46106 1.92368C8.88826 1.56962 8.37982 1.0589 7.95934 0.428014C7.89069 0.325013 7.82203 0.217722 7.75767 0.108283L7.73837 0.0760904C7.71692 0.0396108 7.67187 0.0160043 7.63754 0.020296L7.58818 0.0288878C7.5088 0.041763 7.40798 0.0589193 7.32646 0.0717945L7.26853 0.0803863C7.22992 0.0868239 7.19344 0.138318 7.18701 0.19411L7.18274 0.243474C7.16772 0.402267 7.14411 0.556763 7.11837 0.706973C7.04972 1.08464 6.94676 1.44299 6.80731 1.76916C6.46835 2.56957 5.92771 3.20045 5.20474 3.56739C5.05243 3.64464 4.89368 3.71117 4.72634 3.76482C4.70489 3.77126 4.68131 3.77769 4.65985 3.78412C4.29944 3.88927 3.92614 3.93434 3.54428 3.91931C2.6411 3.88283 1.70147 3.52234 0.826184 2.91077C0.733935 2.8464 0.641679 2.77771 0.54943 2.7069L0.508656 2.67473C0.463604 2.63825 0.397112 2.62967 0.360642 2.65113L0.307009 2.6833C0.244795 2.72192 0.171845 2.76915 0.109631 2.80992L0.0495823 2.84853C0.00667612 2.87643 -0.0126453 2.92794 0.00880781 2.96442C0.0302609 3.0009 0.107503 3.13609 0.180443 3.2627L1.37752 5.33557C1.45046 5.46433 1.57274 5.67248 1.64568 5.80123L2.62181 7.49217L2.61966 7.49647Z" fill="#BEDC1C"/>
</svg>
