<svg width="130" height="130" viewBox="0 0 130 130" fill="none" xmlns="http://www.w3.org/2000/svg">
<path d="M52.6649 100L21.3227 67.8247C19.2554 65.7395 17.6271 63.2333 16.5401 60.4637C15.4532 57.6942 14.9313 54.7214 15.0072 51.7325C15.0832 48.7436 15.7554 45.8034 16.9815 43.097C18.2076 40.3906 19.961 37.9766 22.1313 36.0072C24.3017 34.0377 26.8419 32.5553 29.5921 31.6535C32.3423 30.7516 35.2429 30.4497 38.1112 30.7669C40.9794 31.084 43.7533 32.0133 46.2581 33.4962C48.7628 34.9792 50.9442 36.9836 52.6649 39.3833M52.6657 39.3566L44.3078 56.683L61.0236 69.6779L52.6657 87.0044V99.9992M108.747 67.0835L77.4047 99.2588M77.4047 38.6421C79.1329 36.2598 81.3168 34.2729 83.8199 32.8057C86.3229 31.3385 89.0912 30.4226 91.9514 30.1154C94.8116 29.8081 97.7023 30.1161 100.442 31.0201C103.182 31.9241 105.713 33.4046 107.876 35.3689C110.039 37.3333 111.787 39.7392 113.011 42.4361C114.236 45.133 114.91 48.0629 114.992 51.0422C115.073 54.0216 114.561 56.9865 113.486 59.7512C112.412 62.5158 110.798 65.0209 108.747 67.1095M77.4055 38.6153L69.0476 55.9418L85.7634 68.9367L77.4055 86.2632V99.258" stroke="black" stroke-opacity="0.3" stroke-width="6" stroke-linecap="round" stroke-linejoin="round"/>
</svg>
