<svg width="292" height="206" viewBox="0 0 292 206" fill="none" xmlns="http://www.w3.org/2000/svg">
<g clip-path="url(#clip0_4596_10939)">
<mask id="mask0_4596_10939" style="mask-type:luminance" maskUnits="userSpaceOnUse" x="-1" y="0" width="292" height="206">
<path d="M18.1352 0.0033607V71.5734C11.7584 72.2135 14.3085 70.1315 1.05578 75.445C0.0853118 75.8338 -0.46875 76.8421 -0.46875 76.8421L18.1352 107.033V205.934H290.891V0L18.1352 0.0033607Z" fill="white"/>
</mask>
<g mask="url(#mask0_4596_10939)">
<path d="M221.199 196.904H229.042L221.199 205.167V196.904Z" fill="#1A1A1A"/>
<path d="M221.199 196.904H229.042L221.199 205.167V196.904Z" stroke="#1A1A1A" stroke-width="0.427921" stroke-miterlimit="10" stroke-linecap="round"/>
<path d="M267.857 205.167L275.707 196.908V205.167H267.857ZM221.199 205.167H267.861L275.707 196.908L221.199 205.167Z" fill="#1A1A1A"/>
<path d="M275.707 196.908L267.857 205.167H275.707V196.908ZM275.707 196.908L267.861 205.167H221.199L275.707 196.908Z" stroke="#1A1A1A" stroke-width="0.427921" stroke-miterlimit="10" stroke-linecap="round"/>
<path d="M221.199 205.167L229.042 196.904H275.71L221.199 205.167Z" fill="#1A1A1A"/>
<path d="M221.199 205.167L229.042 196.904H275.71L221.199 205.167Z" stroke="#1A1A1A" stroke-width="0.427921" stroke-miterlimit="10" stroke-linecap="round"/>
<path d="M275.71 196.904H221.199V205.167H275.71V196.904Z" stroke="#1A1A1A" stroke-width="0.427921" stroke-miterlimit="10" stroke-linecap="round" stroke-linejoin="round"/>
<path d="M18.0156 144.871H26.6878L18.0156 153.96V144.871Z" fill="#1A1A1A"/>
<path d="M18.0156 144.871H26.6878L18.0156 153.96V144.871Z" stroke="#1A1A1A" stroke-width="0.427921" stroke-miterlimit="10" stroke-linecap="round"/>
<path d="M18.0152 153.96L26.6908 196.078L18.0152 205.167V153.96ZM26.6874 144.871L18.0152 153.96L26.6908 196.078L26.6874 144.871Z" fill="#1A1A1A"/>
<path d="M18.0152 153.96L26.6908 196.078M18.0152 153.96V205.167L26.6908 196.078M18.0152 153.96L26.6874 144.871L26.6908 196.078" stroke="#1A1A1A" stroke-width="0.427921" stroke-miterlimit="10" stroke-linecap="round"/>
<path d="M18.0152 205.167L26.6908 196.907L18.435 205.167H18.0152ZM26.6874 196.078L18.0152 205.167L26.6908 196.907L26.6874 196.078Z" fill="#1A1A1A"/>
<path d="M18.0152 205.167L26.6908 196.907M18.0152 205.167H18.435L26.6908 196.907M18.0152 205.167L26.6874 196.078L26.6908 196.907" stroke="#1A1A1A" stroke-width="0.427921" stroke-miterlimit="10" stroke-linecap="round"/>
<path d="M71.2875 205.167L79.5467 196.908V205.167H71.2875ZM18.4316 205.167H71.2875L79.5467 196.908L18.4316 205.167Z" fill="#1A1A1A"/>
<path d="M71.2875 205.167L79.5467 196.908M71.2875 205.167H79.5467V196.908M71.2875 205.167H18.4316L79.5467 196.908" stroke="#1A1A1A" stroke-width="0.427921" stroke-miterlimit="10" stroke-linecap="round"/>
<path d="M18.4316 205.167L26.6874 196.904H79.5502L18.4316 205.167Z" fill="#1A1A1A"/>
<path d="M18.4316 205.167L26.6874 196.904H79.5502L18.4316 205.167Z" stroke="#1A1A1A" stroke-width="0.427921" stroke-miterlimit="10" stroke-linecap="round"/>
<path d="M18.0156 144.871H26.6878V196.904H79.5506V205.167H18.0156V144.871Z" stroke="#1A1A1A" stroke-width="0.427921" stroke-miterlimit="10" stroke-linecap="round" stroke-linejoin="round"/>
<path d="M221.199 -1.31444H229.042L221.199 7.35434V-1.31444Z" fill="#1A1A1A"/>
<path d="M221.199 -1.31444H229.042L221.199 7.35434V-1.31444Z" stroke="#1A1A1A" stroke-width="0.427921" stroke-miterlimit="10" stroke-linecap="round"/>
<path d="M267.857 7.3539L275.707 -1.31834V7.3539H267.857ZM221.199 7.3539H267.861L275.707 -1.31834L221.199 7.3539Z" fill="#1A1A1A"/>
<path d="M275.707 -1.31834L267.857 7.3539H275.707V-1.31834ZM275.707 -1.31834L267.861 7.3539H221.199L275.707 -1.31834Z" stroke="#1A1A1A" stroke-width="0.427921" stroke-miterlimit="10" stroke-linecap="round"/>
<path d="M221.199 7.35434L229.042 -1.31444H275.71L221.199 7.35434Z" fill="#1A1A1A"/>
<path d="M221.199 7.35434L229.042 -1.31444H275.71L221.199 7.35434Z" stroke="#1A1A1A" stroke-width="0.427921" stroke-miterlimit="10" stroke-linecap="round"/>
<path d="M221.199 -1.31444H275.71V7.35434H221.199V-1.31444Z" stroke="#1A1A1A" stroke-width="0.427921" stroke-miterlimit="10" stroke-linecap="round" stroke-linejoin="round"/>
<path d="M18.0152 -44.2659L26.6908 -1.73065L18.0152 7.35454V-44.2659ZM26.6874 -53.3476L18.0117 -44.2625L26.6874 -1.72723V-53.3476Z" fill="#1A1A1A"/>
<path d="M18.0152 -44.2659L26.6908 -1.73065L18.0152 7.35454V-44.2659ZM26.6874 -53.3476L18.0117 -44.2625L26.6874 -1.72723V-53.3476Z" stroke="#1A1A1A" stroke-width="0.427921" stroke-miterlimit="10" stroke-linecap="round"/>
<path d="M18.0152 7.35523L26.6908 -1.31701L18.435 7.35523H18.0152ZM26.6874 -1.72655L18.0117 7.3587L26.6874 -1.31355V-1.72655Z" fill="#1A1A1A"/>
<path d="M18.0152 7.35523L26.6908 -1.31701L18.435 7.35523H18.0152ZM26.6874 -1.72655L18.0117 7.35869L26.6874 -1.31355V-1.72655Z" stroke="#1A1A1A" stroke-width="0.427921" stroke-miterlimit="10" stroke-linecap="round"/>
<path d="M71.2875 7.3539L79.5467 -1.31834V7.3539H71.2875ZM18.4316 7.3539H71.2875L79.5467 -1.31834L18.4316 7.3539Z" fill="#1A1A1A"/>
<path d="M71.2875 7.3539L79.5467 -1.31834M71.2875 7.3539H79.5467V-1.31834M71.2875 7.3539H18.4316L79.5467 -1.31834" stroke="#1A1A1A" stroke-width="0.427921" stroke-miterlimit="10" stroke-linecap="round"/>
<path d="M18.4316 7.35434L26.6874 -1.31444H79.5502L18.4316 7.35434Z" fill="#1A1A1A"/>
<path d="M18.4316 7.35434L26.6874 -1.31444H79.5502L18.4316 7.35434Z" stroke="#1A1A1A" stroke-width="0.427921" stroke-miterlimit="10" stroke-linecap="round"/>
<path d="M18.0156 -53.3476H26.6878V-1.31423H79.5506V7.35454H18.0156V-53.3476Z" stroke="#1A1A1A" stroke-width="0.427921" stroke-miterlimit="10" stroke-linecap="round" stroke-linejoin="round"/>
<path d="M79.5508 -0.488266H85.7384L79.5508 6.53209V-0.488266Z" fill="#636466"/>
<path d="M79.5508 -0.488266H85.7384L79.5508 6.53209V-0.488266Z" stroke="#636466" stroke-width="0.427921" stroke-miterlimit="10" stroke-linecap="round"/>
<path d="M214.999 6.53209L221.197 -0.488266V6.53209H214.999ZM79.5508 6.53209H214.999L221.197 -0.488266L79.5508 6.53209Z" fill="#636466"/>
<path d="M214.999 6.53209L221.197 -0.488266M214.999 6.53209H221.197V-0.488266M214.999 6.53209H79.5508L221.197 -0.488266" stroke="#636466" stroke-width="0.427921" stroke-miterlimit="10" stroke-linecap="round"/>
<path d="M79.5508 6.53209L85.7384 -0.488266H221.197L79.5508 6.53209Z" fill="#636466"/>
<path d="M79.5508 6.53209L85.7384 -0.488266H221.197L79.5508 6.53209Z" stroke="#636466" stroke-width="0.427921" stroke-miterlimit="10" stroke-linecap="round"/>
<path d="M90.2837 53.1969V13.962M110.103 53.1969V13.962M105.15 9.00987H95.6523M90.2837 52.9905C90.2837 58.5758 94.6302 63.1046 99.9884 63.1046C105.347 63.1046 109.693 58.5758 109.693 52.9905M95.4458 9.00987C92.5963 9.00987 90.2837 11.1366 90.2837 13.759M110.103 13.759C110.103 11.1366 107.793 9.00987 104.94 9.00987M43.6189 24.083C43.5998 24.8812 43.7404 25.6752 44.0327 26.4182C44.3249 27.1612 44.7628 27.8383 45.3206 28.4096C45.8783 28.9809 46.5447 29.4349 47.2805 29.7449C48.0163 30.0548 48.8067 30.2145 49.6051 30.2145C50.4036 30.2145 51.1939 30.0548 51.9297 29.7449C52.6656 29.4349 53.3319 28.9809 53.8897 28.4096C54.4475 27.8383 54.8854 27.1612 55.1776 26.4182C55.4698 25.6752 55.6105 24.8812 55.5914 24.083M53.3201 13.5525C53.6183 13.5525 53.9137 13.4938 54.1893 13.3796C54.4648 13.2655 54.7152 13.0982 54.9262 12.8873C55.1371 12.6764 55.3044 12.4259 55.4185 12.1503C55.5326 11.8748 55.5914 11.5795 55.5914 11.2812M55.5948 10.0423C55.5948 9.43996 55.3555 8.86219 54.9296 8.43624C54.5036 8.01029 53.9259 7.77103 53.3235 7.77103M43.6189 24.2861V10.2453M45.8868 7.77103C45.285 7.77194 44.7081 8.01165 44.2829 8.4375C43.8577 8.86335 43.6189 9.44055 43.6189 10.0423M46.0967 7.77103H53.53M79.5501 -0.488266V6.53209H221.197V-0.488266H79.5501ZM112.171 6.94167H88.2189V65.1729H112.171V6.94167ZM100.198 14.9979C100.198 14.6538 99.7337 14.375 99.1625 14.375C98.5912 14.375 98.13 14.6538 98.13 14.9979C98.13 15.342 98.5912 15.6173 99.1625 15.6173C99.7337 15.6173 100.198 15.342 100.198 14.9979ZM49.6034 11.4877C49.7682 11.4877 49.9262 11.4222 50.0427 11.3058C50.1591 11.1893 50.2246 11.0313 50.2246 10.8666C50.2246 10.7018 50.1591 10.5437 50.0427 10.4272C49.9262 10.3108 49.7682 10.2453 49.6034 10.2453C49.4387 10.2453 49.2807 10.3108 49.1642 10.4272C49.0477 10.5437 48.9822 10.7018 48.9822 10.8666C48.9822 11.0313 49.0477 11.1893 49.1642 11.3058C49.2807 11.4222 49.4387 11.4877 49.6034 11.4877Z" stroke="#1A1A1A" stroke-width="0.427921" stroke-miterlimit="10" stroke-linecap="round" stroke-linejoin="round"/>
<path d="M45.269 24.0831C45.269 25.2336 45.7261 26.3369 46.5396 27.1504C47.3531 27.9639 48.4564 28.421 49.6069 28.421C50.7573 28.421 51.8607 27.9639 52.6742 27.1504C53.4877 26.3369 53.9447 25.2336 53.9447 24.0831M43.6172 11.2813C43.6172 12.5339 44.6358 13.5526 45.885 13.5526M47.5403 15.6174C46.938 15.6174 46.3602 15.8567 45.9343 16.2826C45.5083 16.7086 45.269 17.2863 45.269 17.8887M45.269 24.2861V18.0952M54.3542 24.2861V18.0952M47.7468 15.6174H51.8764M53.5283 13.9621H46.0949M53.9413 17.8887C53.9413 17.2863 53.702 16.7086 53.276 16.2826C52.8501 15.8567 52.2723 15.6174 51.67 15.6174M51.3499 22.2214C50.8074 21.9532 50.2103 21.8136 49.6051 21.8136C48.9999 21.8136 48.4029 21.9532 47.8604 22.2214" stroke="#1A1A1A" stroke-width="0.427921" stroke-miterlimit="10" stroke-linecap="round" stroke-linejoin="round"/>
<path d="M47.7515 23.7979C47.7864 24.2655 47.9968 24.7026 48.3405 25.0216C48.6842 25.3405 49.1358 25.5178 49.6047 25.5178C50.0736 25.5178 50.5251 25.3405 50.8688 25.0216C51.2125 24.7026 51.4229 24.2655 51.4578 23.7979M47.748 24.2865V22.2252M51.4647 22.2252V24.2865M56.0108 24.2865V10.2458M77.8944 13.9624V7.7715M76.2425 14.7884V12.3141M62.6182 14.7884V12.3141M60.9629 13.9624V7.7715M63.8536 11.0717H75.4131M63.6437 11.0717C63.3705 11.0726 63.1088 11.1818 62.9159 11.3753C62.723 11.5688 62.6147 11.831 62.6147 12.1042M76.2425 12.1042C76.2425 11.831 76.1342 11.5688 75.9413 11.3753C75.7485 11.1818 75.4868 11.0726 75.2136 11.0717M63.0724 16.7844C63.6922 17.93 64.6101 18.8867 65.729 19.5535C66.8478 20.2203 68.1261 20.5723 69.4286 20.5723C70.7311 20.5723 72.0094 20.2203 73.1283 19.5535C74.2471 18.8867 75.165 17.93 75.7848 16.7844M69.4286 12.3141C69.2643 12.3141 69.1068 12.3793 68.9906 12.4955C68.8744 12.6117 68.8092 12.7693 68.8092 12.9335C68.8092 13.0978 68.8744 13.2553 68.9906 13.3715C69.1068 13.4877 69.2643 13.553 69.4286 13.553C69.5932 13.553 69.7511 13.4878 69.8679 13.3717C69.9846 13.2556 70.0506 13.0981 70.0515 12.9335C70.0515 12.8519 70.0354 12.771 70.004 12.6957C69.9727 12.6203 69.9267 12.5518 69.8689 12.4942C69.811 12.4367 69.7423 12.3912 69.6667 12.3602C69.5912 12.3293 69.5103 12.3137 69.4286 12.3141Z" stroke="#1A1A1A" stroke-width="0.427921" stroke-miterlimit="10" stroke-linecap="round" stroke-linejoin="round"/>
<path d="M62.5985 18.6035C63.4327 19.6054 64.477 20.4116 65.6576 20.9649C66.8381 21.5181 68.1259 21.8048 69.4296 21.8048C70.7333 21.8048 72.0211 21.5181 73.2016 20.9649C74.3821 20.4116 75.4264 19.6054 76.2607 18.6035M62.6191 14.584C62.6191 15.3721 62.8153 16.1464 63.1904 16.8416M60.9638 13.7581C60.9638 15.4444 61.5557 17.0791 62.6294 18.3765M76.2297 18.373C77.3068 17.0756 77.8953 15.4409 77.8953 13.7547M75.2592 16.8416C75.6309 16.1464 75.8305 15.3687 75.8305 14.584M77.8953 7.77021H60.9638M58.0731 68.8853V65.9946H24.623V68.8853H58.0731ZM58.0731 68.8853L82.0215 82.926L82.8509 81.2776L58.9024 67.6499L58.0731 68.8853ZM112.994 70.9535V68.8853H85.7382V65.9946H112.994V6.53127H115.475V70.9535H112.994ZM24.623 25.1112H36.599V7.3538H39.4897V65.9946H36.599V28.002H24.623V25.1112Z" stroke="#1A1A1A" stroke-width="0.427921" stroke-miterlimit="10" stroke-linecap="round" stroke-linejoin="round"/>
<path d="M81.6544 82.4132C84.0607 78.237 85.328 73.502 85.3298 68.6821M58.0742 68.8852V65.9945M85.7393 68.8852V65.9945M119.812 11.8997C119.568 11.8992 119.327 11.947 119.101 12.0403C118.876 12.1336 118.671 12.2705 118.498 12.4432C118.326 12.6159 118.189 12.821 118.097 13.0466C118.004 13.2723 117.956 13.514 117.957 13.7581M126.626 12.3127H120.019M128.281 13.7581C128.281 13.5137 128.233 13.2718 128.14 13.0461C128.046 12.8204 127.909 12.6154 127.736 12.4428C127.563 12.2702 127.358 12.1334 127.132 12.0402C126.906 11.947 126.664 11.8992 126.42 11.8997M128.281 23.8757V13.9611M126.42 25.5276C126.664 25.528 126.906 25.4802 127.132 25.387C127.358 25.2938 127.563 25.1571 127.736 24.9845C127.909 24.8119 128.046 24.6068 128.14 24.3811C128.233 24.1554 128.281 23.9135 128.281 23.6692M120.019 25.5276H126.626M117.957 23.6692C117.957 24.6982 118.783 25.5276 119.812 25.5276M118.367 13.9611V23.8757M119.403 11.0703C119.158 11.0699 118.916 11.1178 118.69 11.2112C118.464 11.3046 118.258 11.4417 118.085 11.6147C117.912 11.7876 117.775 11.9931 117.682 12.2192C117.588 12.4453 117.54 12.6875 117.541 12.9322" stroke="#1A1A1A" stroke-width="0.427921" stroke-miterlimit="10" stroke-linecap="round" stroke-linejoin="round"/>
<path d="M117.539 24.0821C117.539 25.1077 118.372 25.9405 119.401 25.9405M117.955 13.1386V24.2851M118.365 20.159H128.28M118.365 21.3944H128.28M118.365 22.6368H128.28M118.365 23.8757H128.28M118.365 14.7871H128.28M118.365 16.4423H128.28M118.365 17.6778H128.28M118.365 18.9201H128.28M118.365 13.5516H128.28M132.196 11.8997C131.952 11.8992 131.71 11.947 131.485 12.0403C131.259 12.1336 131.054 12.2705 130.882 12.4432C130.71 12.6159 130.573 12.821 130.48 13.0466C130.387 13.2723 130.34 13.514 130.341 13.7581M138.604 12.3127H132.406M140.252 13.7581C140.253 13.5139 140.205 13.2721 140.111 13.0464C140.018 12.8208 139.881 12.6156 139.709 12.443C139.536 12.2703 139.331 12.1335 139.105 12.0403C138.88 11.9471 138.638 11.8992 138.394 11.8997M140.252 23.8757V13.9611M138.394 25.5275C139.423 25.5275 140.252 24.6982 140.252 23.6692M132.406 25.5275H138.604M130.341 23.6692C130.341 24.6982 131.167 25.5275 132.196 25.5275M130.341 13.9611V23.8757M141.075 12.9322C141.075 12.688 141.028 12.4461 140.935 12.2202C140.843 11.9944 140.706 11.7891 140.534 11.6161C140.361 11.4432 140.157 11.3059 139.931 11.2122C139.706 11.1186 139.464 11.0703 139.22 11.0703M141.494 24.2851V13.1386M139.22 25.9405C139.464 25.941 139.705 25.8931 139.931 25.7999C140.156 25.7066 140.361 25.5697 140.533 25.397C140.706 25.2243 140.842 25.0192 140.935 24.7936C141.028 24.5679 141.075 24.3261 141.075 24.0821M139.426 11.0703H119.604M119.604 26.3534H139.426M135.09 16.0294C135.364 16.0294 135.627 15.9204 135.821 15.7265C136.015 15.5325 136.124 15.2695 136.124 14.9952C136.124 14.7209 136.015 14.4579 135.821 14.2639C135.627 14.07 135.364 13.9611 135.09 13.9611C134.826 13.9763 134.578 14.0919 134.396 14.2842C134.215 14.4765 134.114 14.7308 134.114 14.9952C134.114 15.2596 134.215 15.514 134.396 15.7063C134.578 15.8986 134.826 16.0141 135.09 16.0294Z" stroke="#1A1A1A" stroke-width="0.427921" stroke-miterlimit="10" stroke-linecap="round" stroke-linejoin="round"/>
<path d="M143.143 7.35548H115.475V27.5907H143.143V7.35548ZM185.678 26.3552V8.59779ZM203.439 8.59779V26.3552ZM201.784 21.1932C201.798 20.778 201.728 20.3642 201.579 19.9765C201.43 19.5888 201.205 19.235 200.916 18.9363C200.627 18.6375 200.282 18.3998 199.899 18.2374C199.517 18.0751 199.106 17.9913 198.69 17.9911C198.275 17.9908 197.864 18.0741 197.481 18.2361C197.098 18.398 196.752 18.6353 196.463 18.9337C196.174 19.2322 195.948 19.5857 195.799 19.9732C195.649 20.3608 195.579 20.7745 195.593 21.1897C195.619 21.9928 195.957 22.7543 196.534 23.3133C197.111 23.8722 197.883 24.185 198.687 24.1855C199.49 24.1859 200.263 23.874 200.84 23.3157C201.418 22.7573 201.757 21.9963 201.784 21.1932ZM193.115 21.1932C193.115 20.3717 192.789 19.584 192.208 19.0032C191.627 18.4223 190.839 18.096 190.018 18.096C189.196 18.096 188.409 18.4223 187.828 19.0032C187.247 19.584 186.921 20.3717 186.921 21.1932C186.921 22.0146 187.247 22.8024 187.828 23.3832C188.409 23.964 189.196 24.2904 190.018 24.2904C190.839 24.2904 191.627 23.964 192.208 23.3832C192.789 22.8024 193.115 22.0146 193.115 21.1932ZM203.439 26.3552H185.678ZM185.678 8.59779H203.439ZM201.784 13.3469C201.798 12.9317 201.728 12.5179 201.579 12.1302C201.43 11.7425 201.205 11.3887 200.916 11.09C200.627 10.7912 200.282 10.5535 199.899 10.3911C199.517 10.2288 199.106 10.145 198.69 10.1448C198.275 10.1445 197.864 10.2278 197.481 10.3898C197.098 10.5517 196.752 10.789 196.463 11.0874C196.174 11.3859 195.948 11.7394 195.799 12.1269C195.649 12.5145 195.579 12.9282 195.593 13.3434C195.619 14.1466 195.957 14.908 196.534 15.467C197.111 16.0259 197.883 16.3387 198.687 16.3392C199.49 16.3396 200.263 16.0277 200.84 15.4694C201.418 14.911 201.757 14.15 201.784 13.3469ZM193.115 13.3469C193.115 12.5254 192.789 11.7377 192.208 11.1569C191.627 10.576 190.839 10.2497 190.018 10.2497C189.196 10.2497 188.409 10.576 187.828 11.1569C187.247 11.7377 186.921 12.5254 186.921 13.3469C186.921 14.1683 187.247 14.9561 187.828 15.5369C188.409 16.1177 189.196 16.4441 190.018 16.4441C190.839 16.4441 191.627 16.1177 192.208 15.5369C192.789 14.9561 193.115 14.1683 193.115 13.3469Z" stroke="#1A1A1A" stroke-width="0.427921" stroke-miterlimit="10" stroke-linecap="round" stroke-linejoin="round"/>
<path d="M204.677 27.5907H184.441V7.35548H204.677V27.5907Z" stroke="#1A1A1A" stroke-width="0.427921" stroke-miterlimit="10" stroke-linecap="round" stroke-linejoin="round"/>
<path d="M233.169 27.5907V7.35548H115.475V27.5907H233.169ZM26.6875 184.107H45.2709V196.906H48.1581V181.216H26.6875V184.107ZM76.6595 160.568V196.906H79.5502V160.568H76.6595ZM79.5502 129.183L94.8264 156.439L93.591 156.852L78.3079 130.009L79.5502 129.183Z" stroke="#1A1A1A" stroke-width="0.427921" stroke-miterlimit="10" stroke-linecap="round" stroke-linejoin="round"/>
<path d="M79.339 160.154C84.8108 160.154 90.1862 158.712 94.9249 155.976M79.5489 160.567H76.6582M115.473 101.926V107.291H79.5489V129.182H76.6582V104.404H112.992V101.926H115.473ZM115.473 101.926L131.169 75.0837L129.927 74.2578L114.238 101.1L115.473 101.926Z" stroke="#1A1A1A" stroke-width="0.427921" stroke-miterlimit="10" stroke-linecap="round" stroke-linejoin="round"/>
<path d="M130.856 74.7208C126.117 71.984 120.74 70.5432 115.267 70.543M115.473 101.928H112.992M115.473 70.9559H112.992" stroke="#1A1A1A" stroke-width="0.427921" stroke-miterlimit="10" stroke-linecap="round" stroke-linejoin="round"/>
<path d="M-2.63281 107.291H3.97459L-2.63281 113.898V107.291Z" fill="#636466"/>
<path d="M-2.63281 107.291H3.97459L-2.63281 113.898V107.291Z" stroke="#636466" stroke-width="0.427921" stroke-miterlimit="10" stroke-linecap="round"/>
<path d="M-2.63281 113.898L24.2132 107.291L18.0153 113.898H-2.63281ZM3.97459 107.291L-2.63281 113.898L24.2132 107.291H3.97459Z" fill="#636466"/>
<path d="M-2.63281 113.898L24.2132 107.291M-2.63281 113.898H18.0153L24.2132 107.291M-2.63281 113.898L3.97459 107.291H24.2132" stroke="#636466" stroke-width="0.427921" stroke-miterlimit="10" stroke-linecap="round"/>
<path d="M18.0156 113.898L24.623 107.291L18.0156 114.311V113.898ZM24.2135 107.291L18.0156 113.898L24.623 107.291H24.2135Z" fill="#636466"/>
<path d="M18.0156 113.898L24.623 107.291M18.0156 113.898V114.311L24.623 107.291M18.0156 113.898L24.2135 107.291H24.623" stroke="#636466" stroke-width="0.427921" stroke-miterlimit="10" stroke-linecap="round"/>
<path d="M18.0156 144.87L24.623 137.44V144.87H18.0156ZM18.0156 114.311V144.87L24.623 137.44L18.0156 114.311Z" fill="#636466"/>
<path d="M18.0156 144.87L24.623 137.44M18.0156 144.87H24.623V137.44M18.0156 144.87V114.311L24.623 137.44" stroke="#636466" stroke-width="0.427921" stroke-miterlimit="10" stroke-linecap="round"/>
<path d="M18.0156 114.311L24.623 107.291V137.441L18.0156 114.311Z" fill="#636466"/>
<path d="M18.0156 114.311L24.623 107.291V137.441L18.0156 114.311Z" stroke="#636466" stroke-width="0.427921" stroke-miterlimit="10" stroke-linecap="round"/>
<path d="M24.6228 107.291V144.871H18.0154V113.898H-2.63281V107.291H24.6228Z" stroke="#1A1A1A" stroke-width="0.427921" stroke-miterlimit="10" stroke-linecap="round" stroke-linejoin="round"/>
<path d="M18.0156 7.35548H24.623L18.0156 14.7888V7.35548Z" fill="#636466"/>
<path d="M18.0156 7.35548H24.623L18.0156 14.7888V7.35548Z" stroke="#636466" stroke-width="0.427921" stroke-miterlimit="10" stroke-linecap="round"/>
<path d="M18.0156 71.3665L24.623 63.9332V71.3665H18.0156ZM18.0156 14.7871V71.3665L24.623 63.9297L18.0156 14.7871Z" fill="#636466"/>
<path d="M18.0156 71.3665L24.623 63.9332V71.3665H18.0156ZM18.0156 71.3665V14.7871L24.623 63.9297L18.0156 71.3665Z" stroke="#636466" stroke-width="0.427921" stroke-miterlimit="10" stroke-linecap="round"/>
<path d="M18.0156 14.7888L24.623 7.35548V63.9349L18.0156 14.7888Z" fill="#636466"/>
<path d="M18.0156 14.7888L24.623 7.35548V63.9349L18.0156 14.7888Z" stroke="#636466" stroke-width="0.427921" stroke-miterlimit="10" stroke-linecap="round"/>
<path d="M18.0141 71.3682V7.35548H24.6215V71.3682H18.0141ZM18.0141 107.293L-0.15625 75.9073L1.49559 75.4978L19.253 106.47L18.0141 107.293Z" stroke="#1A1A1A" stroke-width="0.427921" stroke-miterlimit="10" stroke-linecap="round" stroke-linejoin="round"/>
<path d="M17.8094 71.3672C11.5427 71.3672 5.37918 73.0157 -0.0512868 76.1542M18.0159 107.292H24.6233M18.0159 71.3672H24.6233M-0.980469 113.899V165.106H18.0159V113.899H-0.980469ZM48.1587 181.215V196.492H76.6601V181.215H48.1587Z" stroke="#1A1A1A" stroke-width="0.427921" stroke-miterlimit="10" stroke-linecap="round" stroke-linejoin="round"/>
<path d="M79.5508 197.734H85.7384L79.5508 204.342V197.734Z" fill="#636466"/>
<path d="M79.5508 197.734H85.7384L79.5508 204.342V197.734Z" stroke="#636466" stroke-width="0.427921" stroke-miterlimit="10" stroke-linecap="round"/>
<path d="M214.999 204.342L221.197 197.734V204.342H214.999ZM79.5508 204.342H214.999L221.197 197.734L79.5508 204.342Z" fill="#636466"/>
<path d="M214.999 204.342L221.197 197.734M214.999 204.342H221.197V197.734M214.999 204.342H79.5508L221.197 197.734" stroke="#636466" stroke-width="0.427921" stroke-miterlimit="10" stroke-linecap="round"/>
<path d="M79.5508 204.342L85.7384 197.734H221.197L79.5508 204.342Z" fill="#636466"/>
<path d="M79.5508 204.342L85.7384 197.734H221.197L79.5508 204.342Z" stroke="#636466" stroke-width="0.427921" stroke-miterlimit="10" stroke-linecap="round"/>
<path d="M233.17 32.1367V7.35548H236.06V32.1367H233.17ZM233.17 32.1367L221.197 52.7848L222.433 53.1978L234.412 32.5496L233.17 32.1367ZM79.5508 197.735V204.342H221.197V197.735H79.5508ZM236.06 104.405H233.17V79.6241H236.06V104.405Z" stroke="#1A1A1A" stroke-width="0.427921" stroke-miterlimit="10" stroke-linecap="round" stroke-linejoin="round"/>
<path d="M221.09 52.4959C224.7 54.5784 228.795 55.6749 232.963 55.6756M233.169 32.1367H236.06M233.169 55.6723H236.06M233.169 79.6241L221.197 58.9759L222.432 58.1534L234.411 79.2112L233.169 79.6241Z" stroke="#1A1A1A" stroke-width="0.427921" stroke-miterlimit="10" stroke-linecap="round" stroke-linejoin="round"/>
<path d="M232.967 55.671C228.799 55.6711 224.704 56.769 221.095 58.8542M233.17 55.671H236.061M234.413 9.8355V30.0706M234.413 102.752V81.2781M233.17 79.6228H236.061V81.2781H233.17V79.6228ZM233.17 32.1354V30.0706H236.061V32.1354H233.17ZM233.17 104.404V102.752H236.061V104.404H233.17ZM233.17 9.8355V8.18361H236.061V9.8355H233.17ZM57.248 205.167V212.187H60.1388V205.167H57.248Z" stroke="#1A1A1A" stroke-width="0.427921" stroke-miterlimit="10" stroke-linecap="round" stroke-linejoin="round"/>
<path d="M275.711 175.43H282.728L275.711 182.863V175.43Z" fill="#636466"/>
<path d="M275.711 175.43H282.728L275.711 182.863V175.43Z" stroke="#636466" stroke-width="0.427921" stroke-miterlimit="10" stroke-linecap="round"/>
<path d="M275.711 217.139L282.728 210.119V217.139H275.711ZM275.711 182.863V217.139L282.728 210.119L275.711 182.863Z" fill="#636466"/>
<path d="M275.711 217.139L282.728 210.119M275.711 217.139H282.728V210.119M275.711 217.139V182.863L282.728 210.119" stroke="#636466" stroke-width="0.427921" stroke-miterlimit="10" stroke-linecap="round"/>
<path d="M275.711 182.863L282.728 175.43V210.119L275.711 182.863Z" fill="#636466"/>
<path d="M275.711 182.863L282.728 175.43V210.119L275.711 182.863Z" stroke="#636466" stroke-width="0.427921" stroke-miterlimit="10" stroke-linecap="round"/>
<path d="M275.711 175.43H282.728V217.139H275.711V175.43Z" stroke="#1A1A1A" stroke-width="0.427921" stroke-miterlimit="10" stroke-linecap="round" stroke-linejoin="round"/>
<path d="M282.724 117.617V175.432H280.246V117.617H282.724Z" stroke="#1A1A1A" stroke-width="0.427921" stroke-miterlimit="10" stroke-linecap="round" stroke-linejoin="round"/>
<path d="M281.485 119.683V172.955M282.724 118.027V119.683H280.246V118.027H282.724ZM282.724 172.955V174.607H280.246V172.955H282.724Z" stroke="#1A1A1A" stroke-width="0.427921" stroke-miterlimit="10" stroke-linecap="round" stroke-linejoin="round"/>
<path d="M291.4 119.272V173.784H282.728V175.432H275.711V117.617H282.728V119.272H291.4Z" stroke="#1A1A1A" stroke-width="0.427921" stroke-miterlimit="10" stroke-linecap="round" stroke-linejoin="round"/>
<path d="M275.711 95.3184H282.728L275.711 102.339V95.3184Z" fill="#636466"/>
<path d="M275.711 95.3184H282.728L275.711 102.339V95.3184Z" stroke="#636466" stroke-width="0.427921" stroke-miterlimit="10" stroke-linecap="round"/>
<path d="M275.711 117.616L282.728 110.183V117.616H275.711ZM275.711 102.34V117.616L282.728 110.183L275.711 102.34Z" fill="#636466"/>
<path d="M275.711 117.616L282.728 110.183M275.711 117.616H282.728V110.183M275.711 117.616V102.34L282.728 110.183" stroke="#636466" stroke-width="0.427921" stroke-miterlimit="10" stroke-linecap="round"/>
<path d="M275.711 102.339L282.728 95.3184V110.182L275.711 102.339Z" fill="#636466"/>
<path d="M275.711 102.339L282.728 95.3184V110.182L275.711 102.339Z" stroke="#636466" stroke-width="0.427921" stroke-miterlimit="10" stroke-linecap="round"/>
<path d="M275.711 95.3184H282.728V117.615H275.711V95.3184Z" stroke="#1A1A1A" stroke-width="0.427921" stroke-miterlimit="10" stroke-linecap="round" stroke-linejoin="round"/>
<path d="M282.725 173.783H288.919L282.725 180.391V173.783Z" fill="#636466"/>
<path d="M282.725 173.783H288.919L282.725 180.391V173.783Z" stroke="#636466" stroke-width="0.427921" stroke-miterlimit="10" stroke-linecap="round"/>
<path d="M282.725 219.209L288.922 212.602V219.209H282.725ZM282.725 180.391V219.209L288.922 212.602L282.725 180.391Z" fill="#636466"/>
<path d="M282.725 219.209L288.922 212.602M282.725 219.209H288.922V212.602M282.725 219.209V180.391L288.922 212.602" stroke="#636466" stroke-width="0.427921" stroke-miterlimit="10" stroke-linecap="round"/>
<path d="M282.725 180.391L288.919 173.783V212.602L282.725 180.391Z" fill="#636466"/>
<path d="M282.725 180.391L288.919 173.783V212.602L282.725 180.391Z" stroke="#636466" stroke-width="0.427921" stroke-miterlimit="10" stroke-linecap="round"/>
<path d="M282.725 173.783H288.919V219.209H282.725V173.783Z" stroke="#636466" stroke-width="0.427921" stroke-miterlimit="10" stroke-linecap="round" stroke-linejoin="round"/>
<path d="M282.725 93.6641H288.919L282.725 100.272V93.6641Z" fill="#636466"/>
<path d="M282.725 93.6641H288.919L282.725 100.272V93.6641Z" stroke="#636466" stroke-width="0.427921" stroke-miterlimit="10" stroke-linecap="round"/>
<path d="M282.725 119.271L288.922 112.664V119.271H282.725ZM282.725 100.271V119.271L288.922 112.664L282.725 100.271Z" fill="#636466"/>
<path d="M282.725 119.271L288.922 112.664M282.725 119.271H288.922V112.664M282.725 119.271V100.271L288.922 112.664" stroke="#636466" stroke-width="0.427921" stroke-miterlimit="10" stroke-linecap="round"/>
<path d="M282.725 100.272L288.919 93.6641V112.664L282.725 100.272Z" fill="#636466"/>
<path d="M282.725 100.272L288.919 93.6641V112.664L282.725 100.272Z" stroke="#636466" stroke-width="0.427921" stroke-miterlimit="10" stroke-linecap="round"/>
<path d="M282.725 93.6641H288.919V119.271H282.725V93.6641Z" stroke="#636466" stroke-width="0.427921" stroke-miterlimit="10" stroke-linecap="round" stroke-linejoin="round"/>
<path d="M282.725 -3.79295H288.919L282.725 2.81445V-3.79295Z" fill="#636466"/>
<path d="M282.725 -3.79295H288.919L282.725 2.81445V-3.79295Z" stroke="#636466" stroke-width="0.427921" stroke-miterlimit="10" stroke-linecap="round"/>
<path d="M282.725 9.83683L288.922 3.22937V9.83683H282.725ZM282.725 2.81642V9.83683L288.922 3.22937L282.725 2.81642Z" fill="#636466"/>
<path d="M282.725 9.83683L288.922 3.22937M282.725 9.83683H288.922V3.22937M282.725 9.83683V2.81642L288.922 3.22937" stroke="#636466" stroke-width="0.427921" stroke-miterlimit="10" stroke-linecap="round"/>
<path d="M282.725 2.81445L288.919 -3.79295V3.2274L282.725 2.81445Z" fill="#636466"/>
<path d="M282.725 2.81445L288.919 -3.79295V3.2274L282.725 2.81445Z" stroke="#636466" stroke-width="0.427921" stroke-miterlimit="10" stroke-linecap="round"/>
<path d="M288.919 9.83486V-3.79295H282.725V9.83486H288.919Z" stroke="#636466" stroke-width="0.427921" stroke-miterlimit="10" stroke-linecap="round" stroke-linejoin="round"/>
<path d="M282.724 8.18361V95.3189H280.246V8.18361H282.724Z" stroke="#1A1A1A" stroke-width="0.427921" stroke-miterlimit="10" stroke-linecap="round" stroke-linejoin="round"/>
<path d="M281.485 10.6582V92.8379M282.724 9.00978V10.6582H280.246V9.00978H282.724ZM282.724 92.8379V94.4932H280.246V92.8379H282.724Z" stroke="#1A1A1A" stroke-width="0.427921" stroke-miterlimit="10" stroke-linecap="round" stroke-linejoin="round"/>
<path d="M291.4 9.8355V93.6635H282.728V95.3189H275.711V8.18361H282.728V9.8355H291.4Z" stroke="#1A1A1A" stroke-width="0.427921" stroke-miterlimit="10" stroke-linecap="round" stroke-linejoin="round"/>
<path d="M275.711 -2.14061H282.728L275.711 5.29274V-2.14061Z" fill="#636466"/>
<path d="M275.711 -2.14061H282.728L275.711 5.29274V-2.14061Z" stroke="#636466" stroke-width="0.427921" stroke-miterlimit="10" stroke-linecap="round"/>
<path d="M275.711 8.18337L282.728 0.750015V8.18337H275.711ZM275.711 5.29264V8.18337L282.728 0.750015L275.711 5.29264Z" fill="#636466"/>
<path d="M275.711 8.18337L282.728 0.750015M275.711 8.18337H282.728V0.750015M275.711 8.18337V5.29264L282.728 0.750015" stroke="#636466" stroke-width="0.427921" stroke-miterlimit="10" stroke-linecap="round"/>
<path d="M275.711 5.29274L282.728 -2.14061V0.746655L275.711 5.29274Z" fill="#636466"/>
<path d="M275.711 5.29274L282.728 -2.14061V0.746655L275.711 5.29274Z" stroke="#636466" stroke-width="0.427921" stroke-miterlimit="10" stroke-linecap="round"/>
<path d="M275.711 -2.14061H282.728V8.18347H275.711V-2.14061Z" stroke="#1A1A1A" stroke-width="0.427921" stroke-miterlimit="10" stroke-linecap="round" stroke-linejoin="round"/>
<path d="M64.8764 54.617L66.1325 54.4483C66.2736 55.1607 66.5214 55.6734 66.8689 55.99C67.2153 56.3032 67.6685 56.4719 68.1354 56.4615C68.7273 56.4615 69.2297 56.255 69.6358 55.8455C69.8364 55.6472 69.9942 55.41 70.0996 55.1484C70.2049 54.8868 70.2556 54.6063 70.2484 54.3244C70.2569 54.0599 70.2112 53.7964 70.1141 53.5502C70.017 53.3041 69.8707 53.0804 69.684 52.8928C69.4946 52.7069 69.2695 52.5613 69.0222 52.4648C68.775 52.3684 68.5107 52.3232 68.2455 52.3319C68.008 52.3319 67.7121 52.38 67.3576 52.4729L67.4987 51.3683C68.0783 51.4233 68.6594 51.2801 69.1471 50.9622C69.5773 50.6834 69.7941 50.2533 69.7941 49.6717C69.8001 49.4583 69.7613 49.246 69.68 49.0486C69.5988 48.8512 69.4771 48.673 69.3226 48.5257C69.1618 48.3719 68.9717 48.2521 68.7636 48.1734C68.5554 48.0948 68.3336 48.059 68.1113 48.068C67.8871 48.061 67.6637 48.0984 67.454 48.1782C67.2443 48.2579 67.0525 48.3784 66.8896 48.5326C66.5661 48.8389 66.3562 49.3 66.2598 49.9126L65.0037 49.6924C65.1552 48.8492 65.5062 48.1919 66.0533 47.7342C66.6229 47.2605 67.3468 47.0129 68.0872 47.039C68.6235 47.0324 69.1535 47.1552 69.6324 47.3969C70.0648 47.6071 70.4296 47.9342 70.6857 48.3411C70.9418 48.748 71.0788 49.2184 71.0812 49.6992C71.086 50.1297 70.9613 50.5517 70.7233 50.9105C70.4602 51.2937 70.0939 51.5945 69.6668 51.7778C70.2724 51.9154 70.7439 52.2079 71.0777 52.6484C71.4115 53.0889 71.5802 53.6395 71.5802 54.2968C71.5867 54.7235 71.503 55.1466 71.3346 55.5386C71.1661 55.9306 70.9168 56.2827 70.6028 56.5716C70.2721 56.8833 69.8827 57.1262 69.4574 57.2863C69.0321 57.4464 68.5792 57.5204 68.125 57.5042C67.3044 57.5321 66.5042 57.2453 65.8881 56.7024C65.2945 56.1637 64.9321 55.4166 64.8764 54.617ZM73.5349 57.3218V55.8902H74.9665V57.3218H73.5349ZM76.8868 48.4156V47.2077H83.5217V48.185C82.8713 48.8767 82.2243 49.8025 81.5842 50.9519C80.9372 52.1048 80.4486 53.2885 80.0975 54.5033C79.8321 55.4208 79.6694 56.3649 79.6123 57.3183H78.3183C78.3355 56.5131 78.4904 55.5357 78.7933 54.3966C79.0961 53.2541 79.5332 52.1529 80.0975 51.0929C80.6654 50.033 81.2676 49.1417 81.9043 48.4122H76.8868V48.4156ZM59.0089 159.847L57.7562 159.943C57.6911 159.55 57.5278 159.179 57.2813 158.866C57.1212 158.693 56.9262 158.555 56.7092 158.462C56.4921 158.368 56.2579 158.322 56.0218 158.326C55.6423 158.32 55.2714 158.439 54.9653 158.663C54.573 158.952 54.2563 159.375 54.0292 159.929C53.8021 160.483 53.6817 161.275 53.6713 162.297C53.936 161.877 54.3033 161.531 54.7386 161.292C55.1739 161.053 55.6628 160.929 56.1594 160.931C56.9957 160.931 57.7115 161.241 58.3 161.86C58.8919 162.476 59.1878 163.274 59.1878 164.252C59.1878 164.895 59.0467 165.491 58.7714 166.045C58.4927 166.599 58.1141 167.022 57.6289 167.315C57.1437 167.607 56.593 167.755 55.9805 167.755C55.4934 167.769 55.0095 167.673 54.5654 167.472C54.1212 167.272 53.7284 166.973 53.4167 166.599C52.7525 165.824 52.4221 164.555 52.4221 162.786C52.4221 160.807 52.7869 159.369 53.5165 158.467C53.8253 158.084 54.2196 157.778 54.6678 157.574C55.1159 157.37 55.6056 157.274 56.0975 157.293C56.9028 157.293 57.5635 157.517 58.0797 157.968C58.5959 158.426 58.9056 159.052 59.0089 159.847ZM53.8675 164.266C53.8675 164.699 53.9604 165.112 54.1462 165.508C54.3321 165.904 54.5867 166.207 54.9171 166.416C55.2509 166.623 55.5951 166.726 55.9598 166.726C56.2214 166.726 56.4796 166.668 56.7163 166.557C56.953 166.446 57.1624 166.284 57.3295 166.083C57.7115 165.652 57.9007 165.071 57.9007 164.334C57.9007 163.625 57.7115 163.068 57.3364 162.662C57.1573 162.463 56.9372 162.305 56.6912 162.199C56.4453 162.094 56.1793 162.042 55.9117 162.049C55.6413 162.045 55.373 162.097 55.124 162.202C54.8751 162.308 54.651 162.464 54.4663 162.662C54.2638 162.875 54.1065 163.127 54.0036 163.403C53.9007 163.678 53.8544 163.972 53.8675 164.266ZM61.146 167.583V166.151H62.5776V167.583H61.146ZM68.452 167.583V165.129H64.0023V163.976L68.6791 157.335H69.7081V163.976H71.0915V165.129H69.7081V167.583H68.452ZM68.452 163.98V159.358L65.2377 163.98H68.452ZM250.293 81.4595L251.55 81.2909C251.698 82.0032 251.942 82.516 252.289 82.8326C252.637 83.1457 253.091 83.3144 253.559 83.3041C254.151 83.3041 254.647 83.0976 255.06 82.6881C255.259 82.4892 255.417 82.2519 255.522 81.9904C255.627 81.729 255.679 81.4488 255.672 81.167C255.681 80.9018 255.635 80.6376 255.537 80.391C255.439 80.1444 255.291 79.9207 255.103 79.7337C254.915 79.5467 254.69 79.4006 254.443 79.3044C254.196 79.2081 253.931 79.1639 253.666 79.1745C253.429 79.1745 253.133 79.2227 252.775 79.3156L252.916 78.2109C253.497 78.2669 254.079 78.1237 254.568 77.8048C254.994 77.526 255.211 77.0958 255.211 76.5143C255.218 76.3011 255.18 76.089 255.099 75.8916C255.018 75.6942 254.897 75.5159 254.743 75.3684C254.43 75.0621 254.027 74.9106 253.535 74.9106C253.043 74.9106 252.634 75.0655 252.314 75.3752C251.983 75.6815 251.777 76.1426 251.68 76.7552L250.424 76.5349C250.579 75.6918 250.927 75.0345 251.474 74.5768C252.044 74.1036 252.767 73.8563 253.508 73.8817C254.069 73.8817 254.581 73.9987 255.049 74.2396C255.484 74.448 255.85 74.7745 256.107 75.1817C256.364 75.589 256.501 76.0604 256.502 76.5419C256.502 76.9858 256.385 77.3884 256.144 77.7532C255.903 78.118 255.555 78.4036 255.087 78.6204C255.696 78.758 256.164 79.0506 256.498 79.4911C256.846 79.9686 257.023 80.5492 257.001 81.1395C257.007 81.5661 256.923 81.9893 256.755 82.3813C256.587 82.7733 256.337 83.1253 256.023 83.4142C255.693 83.7259 255.305 83.9689 254.88 84.129C254.455 84.2891 254.003 84.3631 253.549 84.3468C252.727 84.3752 251.926 84.0884 251.309 83.5449C250.716 83.0049 250.353 82.2588 250.293 81.4595ZM258.955 84.1645V82.7328H260.387V84.1645H258.955ZM262.235 81.4595L263.491 81.2909C263.636 82.0032 263.883 82.516 264.228 82.8326C264.576 83.1454 265.03 83.3141 265.497 83.3041C266.089 83.3041 266.588 83.0976 266.998 82.6881C267.198 82.4898 267.356 82.2525 267.462 81.9909C267.567 81.7293 267.618 81.449 267.61 81.167C267.619 80.9025 267.573 80.6391 267.476 80.3929C267.379 80.1467 267.233 79.9229 267.046 79.7354C266.856 79.5498 266.631 79.4044 266.384 79.308C266.137 79.2117 265.873 79.1662 265.608 79.1745C265.367 79.1745 265.071 79.2227 264.716 79.3156L264.857 78.2109C265.438 78.2658 266.02 78.1226 266.509 77.8048C266.936 77.526 267.153 77.0958 267.153 76.5143C267.159 76.3012 267.12 76.0892 267.04 75.8919C266.959 75.6946 266.838 75.5163 266.685 75.3684C266.368 75.0621 265.965 74.9106 265.473 74.9106C264.981 74.9106 264.575 75.0655 264.252 75.3752C263.925 75.6815 263.715 76.1426 263.618 76.7552L262.362 76.5349C262.517 75.6918 262.865 75.0345 263.412 74.5768C263.983 74.1031 264.708 73.8557 265.449 73.8817C266.007 73.8817 266.523 73.9987 266.991 74.2396C267.425 74.4473 267.792 74.7736 268.049 75.181C268.306 75.5884 268.443 76.0602 268.443 76.5419C268.447 76.9722 268.322 77.3938 268.085 77.7532C267.821 78.1356 267.455 78.4361 267.029 78.6204C267.634 78.758 268.106 79.0506 268.44 79.4911C268.774 79.9316 268.942 80.4822 268.942 81.1395C268.948 81.5664 268.864 81.9897 268.695 82.3817C268.526 82.7738 268.276 83.1256 267.961 83.4142C267.631 83.7259 267.243 83.9689 266.818 84.129C266.393 84.2891 265.941 84.3631 265.487 84.3468C264.666 84.3758 263.866 84.0888 263.25 83.5449C262.656 83.0066 262.292 82.2596 262.235 81.4595ZM245.94 183.276H244.681V175.257C244.378 175.546 243.982 175.835 243.49 176.124C242.998 176.414 242.557 176.63 242.165 176.775V175.557C242.867 175.223 243.483 174.824 244.01 174.352C244.536 173.881 244.908 173.423 245.128 172.986H245.937V183.276H245.94ZM249.165 180.591L250.486 180.481C250.583 181.125 250.813 181.607 251.168 181.934C251.52 182.255 251.982 182.428 252.458 182.419C252.748 182.423 253.036 182.364 253.301 182.245C253.566 182.127 253.802 181.953 253.993 181.734C254.413 181.28 254.623 180.67 254.623 179.92C254.623 179.201 254.42 178.637 254.017 178.22C253.811 178.013 253.563 177.85 253.291 177.743C253.018 177.636 252.727 177.586 252.434 177.597C252.065 177.594 251.701 177.683 251.376 177.856C251.05 178.029 250.772 178.281 250.569 178.588L249.385 178.437L250.379 173.175H255.473V174.376H251.384L250.834 177.133C251.396 176.72 252.074 176.493 252.771 176.486C253.666 176.486 254.42 176.799 255.036 177.418C255.652 178.038 255.961 178.836 255.961 179.807C255.961 180.736 255.69 181.538 255.149 182.212C254.492 183.042 253.597 183.455 252.462 183.455C251.529 183.455 250.768 183.193 250.176 182.67C249.578 182.138 249.214 181.391 249.165 180.591ZM257.83 183.276V181.844H259.262V183.276H257.83ZM267.714 182.064V183.276H260.938C260.929 182.977 260.98 182.68 261.086 182.402C261.283 181.904 261.562 181.444 261.911 181.039C262.293 180.591 262.844 180.075 263.56 179.49C264.675 178.575 265.429 177.852 265.817 177.319C266.206 176.785 266.406 176.279 266.406 175.808C266.406 175.305 266.227 174.886 265.872 174.545C265.518 174.204 265.053 174.032 264.479 174.032C263.87 174.032 263.388 174.218 263.023 174.579C262.658 174.941 262.479 175.447 262.472 176.087L261.178 175.952C261.268 174.989 261.598 174.256 262.177 173.746C262.755 173.244 263.536 172.989 264.506 172.989C265.491 172.989 266.268 173.261 266.843 173.805C267.122 174.063 267.342 174.377 267.491 174.726C267.639 175.076 267.711 175.452 267.703 175.832C267.701 176.249 267.614 176.661 267.449 177.043C267.283 177.439 267.005 177.855 266.616 178.293C266.227 178.73 265.58 179.332 264.678 180.096C263.921 180.729 263.439 181.159 263.223 181.383C263.023 181.591 262.845 181.819 262.693 182.064H267.714ZM0.856768 50.4116L-0.395882 50.508C-0.45937 50.1142 -0.622894 49.7432 -0.870792 49.4308C-1.03067 49.2569 -1.22559 49.1188 -1.44269 49.0257C-1.65979 48.9326 -1.89415 48.8865 -2.13035 48.8905C-2.50974 48.8856 -2.8805 49.0039 -3.18684 49.2278C-3.57916 49.5168 -3.89231 49.9402 -4.11944 50.4942C-4.34657 51.0483 -4.47047 51.8397 -4.47735 52.8618C-4.21349 52.4417 -3.84684 52.0957 -3.41209 51.8567C-2.97733 51.6176 -2.48883 51.4933 -1.99269 51.4956C-1.59002 51.4906 -1.19082 51.5708 -0.821326 51.731C-0.451832 51.8911 -0.120389 52.1275 0.151282 52.4247C0.739755 53.0407 1.03573 53.8392 1.03573 54.8165C1.03573 55.46 0.898063 56.0554 0.619313 56.6094C0.369993 57.1344 -0.0265512 57.5756 -0.522066 57.8793C-1.01758 58.1829 -1.59071 58.336 -2.17165 58.3198C-2.65865 58.3338 -3.14243 58.2369 -3.58656 58.0366C-4.03068 57.8363 -4.42352 57.5378 -4.73544 57.1635C-5.39618 56.3892 -5.72656 55.1194 -5.72656 53.3505C-5.72656 51.3717 -5.36522 49.9332 -4.63221 49.0316C-4.32335 48.6482 -3.92907 48.3424 -3.4809 48.1387C-3.03274 47.9349 -2.54312 47.8388 -2.05119 47.8581C-1.33054 47.8282 -0.624763 48.0688 -0.0724144 48.5326C0.443789 48.9869 0.753527 49.6132 0.856768 50.4116ZM-4.2812 54.8268C-4.2812 55.2604 -4.18827 55.6734 -4.00588 56.0692C-3.84114 56.4406 -3.57216 56.7561 -3.23158 56.9776C-2.90121 57.1841 -2.55363 57.2875 -2.18884 57.2875C-1.92731 57.2872 -1.66905 57.2294 -1.43234 57.1182C-1.19564 57.0069 -0.98629 56.8451 -0.819173 56.6439C-0.437182 56.2137 -0.247906 55.6321 -0.247906 54.8957C-0.247906 54.1868 -0.437186 53.6293 -0.812294 53.2232C-1.1874 52.8137 -1.66576 52.6106 -2.23702 52.6106C-2.80829 52.6106 -3.29007 52.8137 -3.68583 53.2232C-3.88716 53.4372 -4.04359 53.6893 -4.14585 53.9648C-4.24811 54.2402 -4.29413 54.5333 -4.2812 54.8268ZM197.204 85.5135L198.412 85.4033C198.515 85.9711 198.714 86.3841 199.003 86.6388C199.292 86.8935 199.661 87.0208 200.112 87.0208C200.468 87.0299 200.82 86.938 201.127 86.7558C201.423 86.5768 201.657 86.3428 201.846 86.0469C202.035 85.7509 202.19 85.3517 202.317 84.8459C202.441 84.3435 202.504 83.8282 202.507 83.311L202.5 83.0597C202.238 83.4713 201.876 83.8103 201.449 84.0455C201.021 84.2806 200.541 84.4043 200.053 84.4053C199.203 84.4053 198.487 84.0991 197.899 83.4831C197.31 82.8671 197.018 82.0584 197.018 81.05C197.018 80.0108 197.324 79.1745 197.937 78.5413C198.233 78.2311 198.592 77.9866 198.989 77.8236C199.386 77.6605 199.813 77.5827 200.242 77.5949C200.904 77.5906 201.553 77.7854 202.102 78.1543C202.652 78.5231 203.079 79.0488 203.326 79.6631C203.611 80.3273 203.756 81.2909 203.756 82.547C203.756 83.8582 203.615 84.9009 203.329 85.6752C203.044 86.4495 202.62 87.0379 202.063 87.4475C201.487 87.8575 200.794 88.0711 200.087 88.0566C199.289 88.0566 198.628 87.8363 198.126 87.389C197.61 86.945 197.307 86.3188 197.204 85.5135ZM202.355 80.9881C202.355 80.2654 202.159 79.6942 201.777 79.2709C201.395 78.8476 200.931 78.6308 200.394 78.6308C200.114 78.6314 199.838 78.6929 199.585 78.8112C199.332 78.9295 199.107 79.1017 198.928 79.3156C198.502 79.808 198.28 80.4445 198.308 81.0948C198.308 81.7452 198.504 82.2751 198.9 82.6846C199.086 82.883 199.312 83.0401 199.563 83.1457C199.814 83.2512 200.084 83.3028 200.356 83.2972C200.937 83.2972 201.416 83.0907 201.791 82.6846C202.166 82.2751 202.355 81.7108 202.355 80.9881ZM205.683 87.8811V86.4495H207.115V87.8811H205.683ZM209.145 85.5135L210.353 85.4033C210.456 85.9711 210.652 86.3841 210.942 86.6388C211.231 86.8935 211.599 87.0208 212.05 87.0208C212.438 87.0208 212.776 86.9347 213.068 86.7558C213.361 86.5768 213.598 86.3428 213.784 86.0469C213.973 85.7509 214.128 85.3517 214.256 84.8459C214.38 84.3438 214.444 83.8283 214.445 83.311L214.438 83.0597C214.176 83.472 213.815 83.8115 213.387 84.0467C212.96 84.282 212.479 84.4053 211.991 84.4053C211.588 84.4121 211.188 84.3335 210.817 84.1746C210.446 84.0156 210.113 83.78 209.84 83.4831C209.248 82.8671 208.959 82.0584 208.959 81.05C208.959 80.0108 209.262 79.1745 209.878 78.5413C210.174 78.2313 210.532 77.987 210.929 77.824C211.325 77.661 211.752 77.5829 212.18 77.5949C212.843 77.5891 213.492 77.7835 214.042 78.1525C214.592 78.5215 215.018 79.048 215.264 79.6631C215.553 80.3273 215.694 81.2909 215.694 82.547C215.694 83.8582 215.553 84.9009 215.271 85.6752C215.034 86.3797 214.592 86.9971 214.001 87.4475C213.425 87.8579 212.732 88.0715 212.026 88.0566C211.311 88.0874 210.611 87.8492 210.064 87.389C209.548 86.945 209.245 86.3188 209.145 85.5135ZM214.293 80.9881C214.293 80.2654 214.101 79.6942 213.715 79.2709C213.545 79.0698 213.333 78.9083 213.094 78.7977C212.855 78.6872 212.595 78.6302 212.332 78.6308C211.774 78.6308 211.282 78.8579 210.869 79.3156C210.456 79.7733 210.246 80.3652 210.246 81.0948C210.246 81.7452 210.443 82.2751 210.838 82.6846C211.231 83.0907 211.719 83.2972 212.297 83.2972C212.876 83.2972 213.357 83.0907 213.732 82.6846C214.104 82.2751 214.293 81.7108 214.293 80.9881Z" fill="#1A1A1A"/>
<path d="M135.297 173.37H202.61V115.555H135.297M143.966 144.459H202.61" stroke="#1A1A1A" stroke-width="0.427921" stroke-miterlimit="10" stroke-linecap="round" stroke-linejoin="round"/>
<path d="M103.086 173.37H143.966V115.555H103.086V173.37Z" stroke="#1A1A1A" stroke-width="0.427921" stroke-miterlimit="10" stroke-linecap="round" stroke-linejoin="round"/>
<path d="M156.867 137.85H155.191V127.161C154.708 127.607 154.174 127.995 153.601 128.318C153.039 128.659 152.449 128.949 151.835 129.185V127.564C152.771 127.12 153.594 126.587 154.296 125.96C154.998 125.33 155.497 124.725 155.786 124.133H156.867V137.85ZM161.161 134.271L162.927 134.123C163.058 134.98 163.36 135.627 163.835 136.057C164.304 136.487 164.92 136.719 165.556 136.704C165.944 136.709 166.328 136.629 166.682 136.471C167.036 136.313 167.352 136.08 167.607 135.789C168.165 135.18 168.443 134.374 168.443 133.366C168.443 132.413 168.175 131.656 167.638 131.102C167.363 130.825 167.033 130.609 166.67 130.466C166.307 130.324 165.918 130.259 165.529 130.276C165.037 130.27 164.551 130.387 164.116 130.617C163.682 130.848 163.312 131.183 163.04 131.594L161.468 131.387L162.789 124.37H169.582V125.974H164.131L163.398 129.646C164.148 129.097 165.051 128.798 165.979 128.789C167.17 128.789 168.178 129.202 168.997 130.024C169.816 130.85 170.226 131.914 170.226 133.215C170.226 134.45 169.868 135.52 169.145 136.422C168.271 137.527 167.074 138.077 165.56 138.077C164.317 138.077 163.305 137.73 162.517 137.034C161.729 136.339 161.278 135.421 161.161 134.271ZM172.724 137.85V135.94H174.634V137.85H172.724ZM185.898 136.236V137.85H176.871C176.857 137.452 176.923 137.055 177.067 136.683C177.295 136.067 177.666 135.465 178.169 134.87C178.675 134.271 179.404 133.583 180.368 132.798C181.851 131.58 182.856 130.616 183.375 129.904C183.895 129.192 184.16 128.521 184.16 127.887C184.166 127.573 184.105 127.26 183.983 126.97C183.86 126.68 183.678 126.42 183.448 126.205C183.198 125.973 182.905 125.793 182.585 125.676C182.266 125.558 181.926 125.505 181.586 125.52C180.781 125.52 180.134 125.761 179.648 126.249C179.163 126.734 178.915 127.402 178.909 128.263L177.188 128.084C177.305 126.796 177.749 125.819 178.52 125.145C179.294 124.47 180.326 124.133 181.624 124.133C182.935 124.133 183.971 124.494 184.735 125.224C185.499 125.95 185.881 126.852 185.881 127.925C185.881 128.469 185.771 129.006 185.543 129.536C185.32 130.066 184.948 130.62 184.432 131.205C183.916 131.79 183.052 132.588 181.844 133.607C181.172 134.151 180.526 134.725 179.907 135.328C179.639 135.605 179.4 135.91 179.194 136.236H185.898ZM150.559 162.325L152.235 162.101C152.431 163.051 152.754 163.739 153.215 164.159C153.678 164.578 154.284 164.804 154.908 164.789C155.28 164.797 155.649 164.728 155.993 164.587C156.337 164.446 156.649 164.236 156.908 163.97C157.175 163.704 157.384 163.386 157.525 163.037C157.665 162.687 157.732 162.313 157.724 161.936C157.734 161.584 157.673 161.232 157.543 160.904C157.412 160.577 157.216 160.279 156.966 160.03C156.714 159.781 156.413 159.586 156.083 159.457C155.753 159.328 155.4 159.268 155.046 159.279C154.73 159.279 154.334 159.345 153.862 159.469L154.048 157.992C154.821 158.062 155.596 157.873 156.251 157.456C156.822 157.084 157.104 156.509 157.104 155.731C157.104 155.115 156.894 154.606 156.478 154.203C156.061 153.801 155.528 153.598 154.867 153.598C154.263 153.58 153.677 153.801 153.236 154.214C152.799 154.623 152.52 155.239 152.396 156.058L150.72 155.759C150.927 154.634 151.388 153.763 152.118 153.143C152.844 152.524 153.749 152.214 154.829 152.214C155.576 152.214 156.261 152.376 156.887 152.696C157.466 152.976 157.954 153.413 158.298 153.956C158.641 154.498 158.826 155.127 158.832 155.769C158.835 156.342 158.669 156.902 158.353 157.38C158.005 157.892 157.518 158.293 156.949 158.536C157.694 158.688 158.361 159.099 158.832 159.696C159.276 160.284 159.499 161.021 159.499 161.902C159.499 163.096 159.066 164.108 158.195 164.937C157.324 165.766 156.227 166.179 154.895 166.179C153.694 166.179 152.699 165.821 151.908 165.106C151.119 164.385 150.636 163.39 150.559 162.325ZM163.746 158.522C163.13 158.328 162.589 157.948 162.197 157.435C161.854 156.937 161.678 156.343 161.695 155.738C161.695 154.747 162.053 153.911 162.769 153.23C163.481 152.555 164.431 152.214 165.618 152.214C166.812 152.214 167.772 152.562 168.498 153.254C168.849 153.574 169.128 153.965 169.316 154.401C169.504 154.837 169.597 155.308 169.589 155.783C169.603 156.373 169.427 156.952 169.087 157.435C168.705 157.943 168.176 158.321 167.573 158.519C168.412 158.794 169.052 159.235 169.49 159.844C169.927 160.453 170.147 161.183 170.147 162.026C170.147 163.196 169.734 164.176 168.908 164.968C168.082 165.763 166.995 166.162 165.646 166.162C164.3 166.162 163.213 165.766 162.387 164.965C161.561 164.163 161.148 163.172 161.148 161.978C161.148 161.09 161.371 160.346 161.822 159.747C162.302 159.129 162.982 158.696 163.746 158.522ZM162.872 161.988C162.872 162.466 162.985 162.927 163.216 163.375C163.44 163.822 163.777 164.166 164.224 164.414C164.675 164.658 165.153 164.782 165.67 164.782C166.035 164.794 166.4 164.732 166.74 164.599C167.081 164.466 167.391 164.265 167.652 164.008C167.911 163.752 168.115 163.446 168.251 163.108C168.386 162.769 168.451 162.407 168.44 162.043C168.451 161.671 168.386 161.301 168.247 160.956C168.108 160.61 167.9 160.297 167.635 160.037C167.369 159.776 167.053 159.573 166.707 159.437C166.36 159.302 165.99 159.238 165.618 159.249C164.826 159.249 164.173 159.507 163.656 160.033C163.399 160.288 163.196 160.593 163.061 160.929C162.926 161.265 162.862 161.626 162.872 161.988ZM163.412 155.68C163.412 156.327 163.622 156.853 164.038 157.263C164.451 157.672 164.995 157.879 165.663 157.879C165.955 157.89 166.246 157.841 166.519 157.736C166.792 157.63 167.04 157.471 167.249 157.266C167.45 157.073 167.609 156.84 167.716 156.583C167.822 156.325 167.875 156.048 167.869 155.769C167.875 155.481 167.822 155.194 167.712 154.928C167.601 154.661 167.437 154.42 167.229 154.221C167.021 154.014 166.773 153.851 166.5 153.743C166.227 153.635 165.935 153.583 165.642 153.591C165.002 153.591 164.472 153.797 164.049 154.207C163.625 154.616 163.412 155.108 163.412 155.68ZM172.724 165.932V164.022H174.634V165.932H172.724ZM177.081 162.353L178.847 162.205C178.974 163.062 179.277 163.708 179.755 164.139C180.224 164.569 180.84 164.8 181.476 164.786C181.864 164.79 182.248 164.711 182.602 164.553C182.956 164.395 183.271 164.162 183.527 163.87C184.084 163.261 184.363 162.456 184.363 161.448C184.363 160.494 184.095 159.737 183.558 159.183C183.283 158.907 182.953 158.69 182.59 158.548C182.227 158.406 181.838 158.341 181.448 158.357C180.956 158.35 180.469 158.466 180.033 158.697C179.598 158.927 179.228 159.264 178.957 159.675L177.384 159.469L178.709 152.452H185.502V154.055H180.051L179.315 157.727C180.064 157.179 180.967 156.879 181.896 156.87C183.09 156.87 184.095 157.283 184.914 158.106C185.733 158.932 186.142 159.995 186.142 161.296C186.142 162.532 185.784 163.602 185.065 164.503C184.188 165.608 182.99 166.159 181.479 166.159C180.237 166.159 179.222 165.811 178.434 165.116C177.646 164.421 177.195 163.502 177.081 162.353Z" fill="#1A1A1A"/>
<path d="M124.162 154.821H126.969V130.598H125.159C124.675 131.643 123.839 132.713 122.664 133.825C121.488 134.931 120.111 135.873 118.543 136.657V139.519C119.57 139.103 120.559 138.59 121.499 137.988C122.459 137.419 123.353 136.734 124.162 135.946V154.821Z" fill="#1A1A1A"/>
<path d="M275.708 104.405H233.17V107.292M233.17 107.292H275.708M233.17 107.292H231.521M115.475 107.292H117.13M118.366 107.292H120.847M122.082 107.292H124.564M125.799 107.292H127.864M129.103 107.292H131.581M132.82 107.292H135.297M136.536 107.292H139.014M140.253 107.292H142.731M143.966 107.292H146.447M147.683 107.292H150.164M151.399 107.292H153.468M154.707 107.292H157.184M158.427 107.292H160.901M162.143 107.292H164.614M165.86 107.292H168.331M169.577 107.292H172.048M173.293 107.292H175.768M177.007 107.292H179.075M180.31 107.292H182.791M184.027 107.292H186.508M187.744 107.292H190.225M191.46 107.292H193.942M195.177 107.292H197.655M198.894 107.292H201.371M202.61 107.292H205.088M205.911 107.292H208.392M209.627 107.292H212.108M213.344 107.292H215.825M217.064 107.292H219.542M220.781 107.292H223.258M224.497 107.292H226.975M228.214 107.292H230.695M-233.062 -22.375V196.079H-88.1158V206.403H-137.255V198.56H-190.531V206.403H-233.062V294.368H-231.414V309.644H-147.579V311.299H-5.93271V307.996H55.5954V268.348H65.9194V311.299H200.549V307.996H275.708V206.403H221.197V204.342H79.5507V206.403H18.0157V113.899H-45.1677V-22.375H-233.062Z" stroke="#1A1A1A" stroke-width="0.427921" stroke-miterlimit="10" stroke-linecap="round" stroke-linejoin="round"/>
<path d="M178.882 36.7466C174.277 32.451 168.154 30.1608 161.86 30.3796C155.567 30.5984 149.618 33.3083 145.322 37.9132C143.194 40.193 141.537 42.8696 140.444 45.7901C139.351 48.7106 138.844 51.8178 138.952 54.9343C139.06 58.0507 139.781 61.1153 141.073 63.9531C142.366 66.7909 144.205 69.3463 146.485 71.4733C148.765 73.6007 151.442 75.2581 154.362 76.3508C157.283 77.4435 160.39 77.9502 163.507 77.8419C166.623 77.7335 169.688 77.0123 172.526 75.7194C175.363 74.4265 177.918 72.5873 180.045 70.3068C184.339 65.7013 186.629 59.579 186.411 53.2858C186.193 46.9927 183.485 41.0437 178.882 36.7466Z" stroke="#1A1A1A" stroke-width="0.427921" stroke-miterlimit="10" stroke-linecap="round" stroke-linejoin="round"/>
<path d="M154.097 49.88L152.015 50.0418C151.826 49.2193 151.564 48.6205 151.223 48.2488C150.957 47.9598 150.633 47.7305 150.272 47.5763C149.91 47.422 149.52 47.3463 149.128 47.354C148.496 47.3438 147.879 47.5396 147.369 47.9116C146.708 48.3934 146.189 49.0954 145.807 50.0177C145.432 50.9434 145.229 52.258 145.215 53.965C145.654 53.2639 146.267 52.6872 146.993 52.2902C147.719 51.8931 148.534 51.689 149.362 51.6971C150.759 51.6971 151.95 52.2099 152.93 53.2388C153.911 54.2678 154.407 55.5996 154.407 57.2274C154.407 58.3011 154.176 59.2956 153.712 60.2144C153.296 61.0895 152.635 61.8249 151.809 62.3308C150.983 62.8367 150.027 63.0914 149.059 63.0639C147.311 63.0639 145.886 62.4169 144.785 61.1332C143.683 59.8496 143.133 57.7298 143.133 54.7771C143.133 51.4768 143.742 49.0782 144.96 47.5777C146.024 46.2735 147.455 45.6231 149.255 45.6231C150.601 45.6231 151.702 45.9982 152.562 46.7518C153.409 47.5124 153.928 48.5551 154.097 49.88ZM145.535 57.2411C145.535 57.9638 145.686 58.6555 145.996 59.3197C146.268 59.9377 146.715 60.462 147.283 60.827C147.8 61.1642 148.404 61.3446 149.021 61.3466C149.457 61.3475 149.888 61.2516 150.282 61.0659C150.677 60.8803 151.025 60.6094 151.303 60.2729C151.939 59.5571 152.256 58.5867 152.256 57.3581C152.256 56.1777 151.943 55.2485 151.313 54.5672C151.014 54.2364 150.647 53.9742 150.237 53.7984C149.827 53.6226 149.384 53.5374 148.938 53.5485C148.488 53.5413 148.041 53.6281 147.626 53.8035C147.212 53.9789 146.838 54.239 146.529 54.5672C145.865 55.2485 145.535 56.1399 145.535 57.2411ZM164.387 62.7748H162.291V49.412C161.785 49.8938 161.121 50.3756 160.302 50.8574C159.483 51.3391 158.75 51.7005 158.096 51.9379V49.911C159.266 49.3604 160.295 48.6928 161.169 47.9081C162.05 47.1235 162.669 46.363 163.034 45.6265H164.39L164.387 62.7748ZM176.48 62.7748V58.6864H169.07V56.7627L176.865 45.6953H178.579V56.7627H180.885V58.6864H178.579V62.7748H176.48ZM176.48 56.7627V49.0644L171.128 56.7627H176.48Z" fill="#1A1A1A"/>
</g>
</g>
<defs>
<clipPath id="clip0_4596_10939">
<rect width="291.359" height="205.934" fill="white"/>
</clipPath>
</defs>
</svg>
