<svg width="134" height="20" viewBox="0 0 134 20" fill="none" xmlns="http://www.w3.org/2000/svg">
<g clip-path="url(#clip0_513_14638)">
<path d="M7.80873 3.84668C4.02339 3.84668 0 6.44768 0 11.2676C0 16.0876 4.02339 18.6491 7.80873 18.6491C11.5941 18.6491 15.635 16.0627 15.635 11.2676C15.635 6.47256 11.6028 3.84668 7.80873 3.84668ZM13.4181 11.3247C13.386 14.5039 11.6437 17.7211 7.8248 17.7416H7.79267C6.35856 17.7416 5.0924 17.2337 4.12854 16.2735C2.92371 15.0733 2.2344 13.2041 2.2344 11.1476C2.25047 7.96407 3.98104 4.73222 7.81019 4.69123C7.8321 4.69123 7.85254 4.69123 7.87299 4.69123C9.27205 4.69123 10.5148 5.18889 11.4699 6.13005C12.6967 7.34053 13.4079 9.23456 13.4181 11.3233V11.3247Z" fill="#0B3A2A"/>
<path d="M25.6993 4.10425H25.2977L18.355 17.4239H17.2246V20H18.3111V18.39H32.4375V20H33.5241V17.4239H32.6624L25.7022 4.10425H25.6993ZM30.1637 17.4254H19.3991L24.696 7.25706H24.8683L30.1652 17.4254H30.1637Z" fill="#0B3A2A"/>
<path d="M39.8035 16.0158V4.10425H37.6406V18.39H39.1711L48.5834 6.02023V18.39H50.7462V4.10425H48.855L39.8035 16.0158Z" fill="#0B3A2A"/>
<path d="M68.1382 8.08112H58.282V4.10425H56.1191V18.39H58.282V9.0457H68.1382V18.39H70.301V4.10425H68.1382V8.08112Z" fill="#0B3A2A"/>
<path d="M83.8599 8.08112H77.8547V5.07029H85.7292L86.2243 4.10425H75.6934V18.39H83.0538C87.3867 18.39 87.7226 14.4438 87.7226 13.2348C87.7226 9.95905 86.3148 8.08112 83.8613 8.08112H83.8599ZM85.5583 13.2348C85.5583 15.8417 85.3772 17.4239 82.8727 17.4239H77.8547V9.0457H82.8727C85.3787 9.0457 85.5583 10.628 85.5583 13.2348Z" fill="#0B3A2A"/>
<path d="M97.5638 12.0565H96.9256L92.781 4.10425H90.3027L94.8928 12.923L94.9439 13.0226H97.0658L94.2677 18.39H95.3294L102.769 4.10425H101.707L97.5638 12.0565Z" fill="#0B3A2A"/>
<path d="M115.382 4.10425H106.408V18.39H108.571V9.0457H115.382C117.437 9.0457 118.437 8.26994 118.437 6.67451C118.437 5.07907 117.325 4.10425 115.382 4.10425ZM108.57 5.07029H115.023C115.996 5.07029 116.095 5.37474 116.095 6.67451C116.095 7.97427 116.025 8.08112 115.023 8.08112H108.57V5.07029Z" fill="#0B3A2A"/>
<path d="M123.109 4.10425V18.39H125.271V5.07029H133.506L134 4.10425H123.109Z" fill="#0B3A2A"/>
<path d="M12.4325 1.74034V1.75644L11.7388 3.77049H11.6877C10.5588 3.22746 9.23862 2.96692 7.84395 2.96692C6.44927 2.96692 5.12907 3.22892 4.00019 3.77049L3.25977 1.74034C3.5168 1.77986 3.76652 1.86183 4.02355 1.89988C5.16412 2.0565 6.29447 1.67301 7.11083 0.869437L7.87023 -0.00146484C8.20174 0.361533 8.49382 0.77576 8.87498 1.09192C9.65045 1.72863 10.6508 2.01698 11.6468 1.89988C11.9111 1.86914 12.1653 1.77839 12.4296 1.74034H12.4325Z" fill="#0B3A2A"/>
</g>
<defs>
<clipPath id="clip0_513_14638">
<rect width="134" height="20" fill="white"/>
</clipPath>
</defs>
</svg>
