<svg width="106" height="32" viewBox="0 0 106 32" fill="none" xmlns="http://www.w3.org/2000/svg">
<path d="M11.3681 10.6143C16.519 10.6143 20.4084 14.1571 20.4084 19.5582C20.4084 24.9593 16.519 28.5 11.3681 28.5C6.2172 28.5 2.35352 24.9571 2.35352 19.5582C2.35352 14.5283 6.04343 10.6143 11.3681 10.6143ZM11.3681 25.6503C15.0087 25.6503 17.1883 22.9744 17.1883 19.556C17.1883 15.9639 14.6375 13.4618 11.3681 13.4618C8.09864 13.4618 5.57363 15.9639 5.57363 19.556C5.57363 23.1482 8.12438 25.6503 11.3681 25.6503Z" fill="black"/>
<path d="M20.8438 24.7962C20.8438 24.5752 21.024 24.3928 21.2449 24.3928H21.852C22.073 24.3928 22.3562 24.2855 22.4892 24.043C23.1392 22.8414 23.667 21.0989 23.815 18.5711L23.7614 16.2986C23.7571 16.0776 23.933 15.8974 24.1539 15.8974H31.8085C32.0294 15.8974 32.2096 16.0776 32.2096 16.3008V23.9937C32.2096 24.2147 32.3898 24.3971 32.6108 24.3971H33.6641C33.8851 24.3971 34.0653 24.5774 34.0653 24.8005V29.2467C34.0653 29.4678 33.8851 29.6502 33.6641 29.6502H31.7934C31.5725 29.6502 31.3922 29.4699 31.3922 29.2467V27.4507C31.3922 27.2296 31.212 27.0472 30.9911 27.0472H23.8944C23.6734 27.0472 23.4932 27.2275 23.4932 27.4507V29.2467C23.4932 29.4678 23.313 29.6502 23.092 29.6502H21.2471C21.0261 29.6502 20.8459 29.4699 20.8459 29.2467V24.8005L20.8438 24.7962ZM25.2266 24.3928H28.9595C29.1804 24.3928 29.3606 24.2126 29.3606 23.9894V18.9724C29.3606 18.7513 29.1804 18.569 28.9595 18.569H26.9407C26.7197 18.569 26.5353 18.7492 26.531 18.9702C26.531 18.9702 26.5267 19.2106 26.443 19.9552C26.2135 21.9809 25.7222 23.6975 25.2266 24.3907V24.3928Z" fill="black"/>
<path d="M35.6443 27.0453C35.4233 27.0453 35.2432 26.865 35.2432 26.6419V16.2988C35.2432 16.0778 35.4233 15.8954 35.6443 15.8954H37.6888C37.9098 15.8954 38.0899 16.0757 38.0899 16.2988V22.554C38.0899 22.775 38.1972 22.8115 38.3281 22.6334L43.0521 16.2216C43.1829 16.0435 43.4726 15.8976 43.6935 15.8976H45.738C45.959 15.8976 46.1392 16.0778 46.1392 16.301V26.644C46.1392 26.865 45.959 27.0474 45.738 27.0474H43.6935C43.4726 27.0474 43.2923 26.8672 43.2923 26.644V20.3888C43.2923 20.1678 43.1851 20.1313 43.0542 20.3094L38.3302 26.7213C38.1994 26.8994 37.9098 27.0453 37.6888 27.0453H35.6443Z" fill="black"/>
<path d="M56.0915 23.1849C56.0915 22.9639 55.9112 22.7815 55.6881 22.7815H51.6142C51.3932 22.7815 51.213 22.9617 51.213 23.1849V26.6419C51.213 26.8629 51.0328 27.0453 50.8118 27.0453H48.7674C48.5464 27.0453 48.3662 26.865 48.3662 26.6419V16.2988C48.3662 16.0778 48.5464 15.8954 48.7674 15.8954H50.8118C51.0328 15.8954 51.213 16.0757 51.213 16.2988V19.7065C51.213 19.9275 51.3932 20.1099 51.6142 20.1099H55.6881C55.9091 20.1099 56.0915 19.9296 56.0915 19.7065V16.2988C56.0915 16.0778 56.2717 15.8954 56.4948 15.8954H58.5393C58.7602 15.8954 58.9426 16.0757 58.9426 16.2988V26.6419C58.9426 26.8629 58.7624 27.0453 58.5393 27.0453H56.4948C56.2738 27.0453 56.0915 26.865 56.0915 26.6419V23.1849Z" fill="black"/>
<path d="M71.0506 11.9449C69.6025 13.4513 67.8905 12.9878 65.8181 14.0135C64.3057 14.713 63.675 16.2216 63.4519 17.8589C63.4261 18.0391 63.5978 17.9726 63.6578 17.8696C63.6686 17.8524 63.6814 17.8374 63.69 17.8245C64.3164 16.9619 65.743 16.0949 67.3778 16.0949C70.4499 16.0949 72.4558 18.2258 72.4558 21.569C72.4558 24.6912 70.1281 27.3156 66.6098 27.3156C62.8705 27.3156 60.5664 24.5904 60.5664 20.2558C60.5664 16.6142 61.3967 12.7818 64.7755 11.2882C66.2515 10.6359 67.4851 10.6295 68.5513 10.2411C69.1563 10.02 69.3708 9.76468 69.4716 9.69386C69.6261 9.57584 69.832 9.59516 69.9521 9.78185C69.9521 9.78185 71.0291 11.4535 71.0806 11.5457C71.1492 11.6702 71.1342 11.8569 71.0506 11.9449ZM66.5368 24.6655C68.3453 24.6655 69.4094 23.3029 69.4094 21.6935C69.4094 20.0841 68.4676 18.7451 66.6591 18.7451C65.0737 18.7451 63.9839 19.7107 63.6128 20.8502C63.6385 23.0046 64.7283 24.6655 66.5347 24.6655H66.5368Z" fill="black"/>
<path d="M79.9453 27.0453C78.3106 31.0344 77.2701 32.0001 75.6354 32.0001C74.758 32.0001 74.0822 31.7039 73.4987 31.3177C73.4086 31.2576 73.2863 31.0173 73.3786 30.7898C73.4708 30.5623 73.9921 29.3478 73.9921 29.3478C74.0779 29.1439 74.3075 29.0645 74.5006 29.1718C74.5006 29.1718 74.8674 29.3735 75.3114 29.3735C76.0301 29.3735 76.5493 28.8027 77.0213 27.6397L77.1135 27.4165C77.1993 27.2127 77.1929 26.8801 77.0985 26.6805L72.2844 16.2623C72.1922 16.0606 72.2973 15.8976 72.5183 15.8976H75.1313C75.3522 15.8976 75.6054 16.0649 75.6912 16.2666L77.976 21.6205C78.0618 21.8244 78.1926 22.1613 78.2655 22.3694C78.2655 22.3694 78.39 22.7278 78.5252 23.1312C78.5766 23.2857 78.7418 23.26 78.7783 23.0862C78.8534 22.7235 78.9413 22.348 79.0743 21.9639L80.9536 16.2774C81.0223 16.0671 81.2604 15.8954 81.4814 15.8954H83.9206C84.1416 15.8954 84.2574 16.0628 84.1759 16.2709L79.9389 27.0453H79.9453Z" fill="black"/>
<path d="M85.4072 16.2989C85.4072 16.0779 85.5875 15.8955 85.8106 15.8955H87.8551C88.076 15.8955 88.2584 16.0757 88.2584 16.2989V16.5585C88.2584 16.7796 88.4192 16.7946 88.5737 16.668C89.1422 16.2023 90.2642 15.623 91.7016 15.623C94.7737 15.623 96.7538 18.0006 96.7538 21.2966C96.7538 24.5926 94.4261 27.3157 90.8585 27.3157C89.9703 27.3157 89.1015 27.1762 88.4686 26.8801C88.3956 26.8458 88.2584 26.863 88.2584 27.0496V31.5967C88.2584 31.8177 88.0782 32.0001 87.8551 32.0001H85.8106C85.5896 32.0001 85.4072 31.8199 85.4072 31.5967V16.2989ZM88.2562 19.5134V23.6206C88.2562 23.8416 88.4 24.112 88.593 24.2171C89.08 24.4832 89.6678 24.6677 90.6075 24.6677C92.5876 24.6677 93.7289 23.2322 93.7289 21.3739C93.7289 19.5156 92.6884 18.3031 90.807 18.3031C89.8416 18.3031 88.9491 18.7495 88.2562 19.5177V19.5134Z" fill="black"/>
<path d="M98.5168 16.2988C98.5168 16.0778 98.697 15.8954 98.9201 15.8954H105.596C105.817 15.8954 106 16.0757 106 16.2988V18.17C106 18.391 105.819 18.5734 105.596 18.5734H101.769C101.548 18.5734 101.366 18.7537 101.366 18.9769V26.644C101.366 26.865 101.186 27.0474 100.962 27.0474H98.9179C98.697 27.0474 98.5146 26.8672 98.5146 26.644V16.301L98.5168 16.2988Z" fill="black"/>
<path d="M2.61966 7.49647C2.6926 7.62522 2.81488 7.83338 2.88782 7.96213L3.83389 9.60154C3.90683 9.73029 4.06559 9.76465 4.18787 9.67881C4.18787 9.67881 4.62337 9.37195 4.97091 9.16595C5.3635 8.93205 5.9599 8.64879 5.9599 8.64879C6.09291 8.58442 6.14225 8.42991 6.06716 8.30116L5.09318 6.61452C5.02024 6.48577 5.06959 6.33127 5.2026 6.27119C5.2026 6.27119 5.73465 6.02869 6.13583 5.87633C6.56274 5.7154 7.19345 5.53085 7.19345 5.53085C7.33504 5.49008 7.47235 5.57377 7.49809 5.71969L7.84349 7.67456C7.86923 7.82048 8.00654 7.90847 8.14813 7.86984C8.14813 7.86984 8.6823 7.72607 9.15856 7.65096C9.5769 7.58444 10.1668 7.52222 10.1668 7.52222C10.3127 7.5072 10.4136 7.37416 10.3878 7.23038L10.0446 5.27766C10.0188 5.13174 10.1175 5.00512 10.2656 4.99439C10.2656 4.99439 10.9027 4.95148 11.3661 4.95148C11.7994 4.95148 12.383 4.99009 12.383 4.99009C12.531 5.00082 12.6297 5.12744 12.6039 5.27121L12.2607 7.22394C12.2349 7.36986 12.3336 7.4986 12.4816 7.50933C12.4816 7.50933 12.7605 7.53294 13.0287 7.56727C13.4428 7.62306 13.8482 7.69818 14.2472 7.79045C14.421 7.82693 14.5047 7.84839 14.5047 7.84839C14.6484 7.88272 14.7857 7.79473 14.8115 7.64881L15.1525 5.70683C15.1783 5.56091 15.3156 5.47722 15.4572 5.51799C15.4572 5.51799 16.0278 5.68321 16.429 5.82913C16.8624 5.98793 17.4545 6.25401 17.4545 6.25401C17.5896 6.31409 17.639 6.46859 17.5639 6.59734L16.6071 8.25611C16.5341 8.38486 16.5835 8.53721 16.7165 8.59944C16.7165 8.59944 17.2185 8.8269 17.5746 9.02432C17.9758 9.24534 18.5035 9.60583 18.5035 9.60583C18.6258 9.68952 18.7846 9.65304 18.8596 9.52429L19.7778 7.93635C19.8508 7.8076 19.9731 7.59947 20.046 7.47072L21.0178 5.78623C21.0908 5.65747 21.2131 5.44932 21.286 5.32057L22.526 3.179C22.5989 3.05025 22.6826 2.90863 22.7083 2.85927C22.7341 2.81206 22.7191 2.75198 22.6762 2.72408L22.6161 2.68759C22.5582 2.65326 22.4938 2.61464 22.4402 2.58245L22.3908 2.5524C22.3565 2.53309 22.2965 2.54167 22.2557 2.57601L22.2192 2.60605C22.1505 2.66184 22.0819 2.71549 22.0132 2.76699C21.0908 3.45581 20.0846 3.86353 19.1214 3.90216C18.7181 3.91718 18.3212 3.86998 17.9415 3.74981C17.9157 3.74123 17.8921 3.7305 17.8664 3.72191C17.7913 3.69616 17.7183 3.66826 17.6475 3.63607C16.828 3.28415 16.2209 2.61036 15.8541 1.73699C15.7103 1.39151 15.6031 1.01383 15.5366 0.612555C15.513 0.47522 15.4958 0.3336 15.4808 0.189827L15.4765 0.149055C15.4722 0.103992 15.4379 0.0610746 15.3993 0.0546371L15.3435 0.0460453C15.2684 0.035316 15.1804 0.0202986 15.1075 0.00956936L15.0539 0.000990642C15.0174 -0.00544693 14.9702 0.0203034 14.9509 0.0546371L14.9337 0.0868171C14.8565 0.21986 14.7771 0.346472 14.6934 0.468786C14.273 1.08679 13.7645 1.58892 13.196 1.93654C12.7005 2.23911 12.162 2.4258 11.5935 2.46871C11.5098 2.47515 11.424 2.47945 11.3382 2.47945C11.2524 2.47945 11.1752 2.4773 11.0936 2.47086C10.5144 2.42794 9.96306 2.23698 9.46106 1.92368C8.88826 1.56962 8.37982 1.0589 7.95934 0.428014C7.89069 0.325013 7.82203 0.217722 7.75767 0.108283L7.73837 0.0760904C7.71692 0.0396108 7.67187 0.0160043 7.63754 0.020296L7.58818 0.0288878C7.5088 0.041763 7.40798 0.0589193 7.32646 0.0717945L7.26853 0.0803863C7.22992 0.0868239 7.19344 0.138318 7.18701 0.19411L7.18274 0.243474C7.16772 0.402267 7.14411 0.556763 7.11837 0.706973C7.04972 1.08464 6.94676 1.44299 6.80731 1.76916C6.46835 2.56957 5.92771 3.20045 5.20474 3.56739C5.05243 3.64464 4.89368 3.71117 4.72634 3.76482C4.70489 3.77126 4.68131 3.77769 4.65985 3.78412C4.29944 3.88927 3.92614 3.93434 3.54428 3.91931C2.6411 3.88283 1.70147 3.52234 0.826184 2.91077C0.733935 2.8464 0.641679 2.77771 0.54943 2.7069L0.508656 2.67473C0.463604 2.63825 0.397112 2.62967 0.360642 2.65113L0.307009 2.6833C0.244795 2.72192 0.171845 2.76915 0.109631 2.80992L0.0495823 2.84853C0.00667612 2.87643 -0.0126453 2.92794 0.00880781 2.96442C0.0302609 3.0009 0.107503 3.13609 0.180443 3.2627L1.37752 5.33557C1.45046 5.46433 1.57274 5.67248 1.64568 5.80123L2.62181 7.49217L2.61966 7.49647Z" fill="white"/>
</svg>
