<svg width="134" height="20" viewBox="0 0 134 20" fill="none" xmlns="http://www.w3.org/2000/svg">
<g clip-path="url(#clip0_517_30173)">
<path d="M7.80873 3.84659C4.02339 3.84659 0 6.44758 0 11.2675C0 16.0875 4.02339 18.649 7.80873 18.649C11.5941 18.649 15.635 16.0626 15.635 11.2675C15.635 6.47247 11.6028 3.84659 7.80873 3.84659ZM13.4181 11.3246C13.386 14.5038 11.6437 17.721 7.8248 17.7415H7.79267C6.35856 17.7415 5.0924 17.2336 4.12854 16.2734C2.92371 15.0732 2.2344 13.204 2.2344 11.1475C2.25047 7.96398 3.98104 4.73213 7.81019 4.69114C7.8321 4.69114 7.85254 4.69114 7.87299 4.69114C9.27205 4.69114 10.5148 5.1888 11.4699 6.12996C12.6967 7.34044 13.4079 9.23447 13.4181 11.3232V11.3246Z" fill="#F4F1EC"/>
<path d="M25.6973 4.10419H25.2957L18.353 17.4239H17.2227V20H18.3092V18.3899H32.4356V20H33.5221V17.4239H32.6605L25.7002 4.10419H25.6973ZM30.1618 17.4253H19.3972L24.694 7.257H24.8664L30.1632 17.4253H30.1618Z" fill="#F4F1EC"/>
<path d="M39.8035 16.0158V4.10419H37.6406V18.3899H39.1711L48.5834 6.02017V18.3899H50.7462V4.10419H48.855L39.8035 16.0158Z" fill="#F4F1EC"/>
<path d="M68.1362 8.08106H58.28V4.10419H56.1172V18.3899H58.28V9.04564H68.1362V18.3899H70.2991V4.10419H68.1362V8.08106Z" fill="#F4F1EC"/>
<path d="M83.8618 8.08106H77.8567V5.07023H85.7312L86.2262 4.10419H75.6953V18.3899H83.0557C87.3887 18.3899 87.7246 14.4438 87.7246 13.2347C87.7246 9.95899 86.3168 8.08106 83.8633 8.08106H83.8618ZM85.5603 13.2347C85.5603 15.8416 85.3792 17.4239 82.8746 17.4239H77.8567V9.04564H82.8746C85.3806 9.04564 85.5603 10.6279 85.5603 13.2347Z" fill="#F4F1EC"/>
<path d="M97.5619 12.0565H96.9237L92.7791 4.10419H90.3008L94.8908 12.923L94.9419 13.0225H97.0639L94.2657 18.3899H95.3275L102.767 4.10419H101.705L97.5619 12.0565Z" fill="#F4F1EC"/>
<path d="M115.38 4.10419H106.406V18.3899H108.569V9.04564H115.38C117.435 9.04564 118.436 8.26988 118.436 6.67444C118.436 5.07901 117.323 4.10419 115.38 4.10419ZM108.568 5.07023H115.021C115.994 5.07023 116.093 5.37468 116.093 6.67444C116.093 7.97421 116.023 8.08106 115.021 8.08106H108.568V5.07023Z" fill="#F4F1EC"/>
<path d="M123.109 4.10419V18.3899H125.271V5.07023H133.506L134 4.10419H123.109Z" fill="#F4F1EC"/>
<path d="M12.4306 1.74034V1.75644L11.7369 3.77049H11.6858C10.5569 3.22746 9.23667 2.96692 7.84199 2.96692C6.44731 2.96692 5.12712 3.22892 3.99823 3.77049L3.25781 1.74034C3.51484 1.77986 3.76457 1.86183 4.0216 1.89988C5.16217 2.0565 6.29251 1.67301 7.10887 0.869437L7.86828 -0.00146484C8.19979 0.361533 8.49187 0.77576 8.87303 1.09192C9.6485 1.72863 10.6489 2.01698 11.6449 1.89988C11.9092 1.86914 12.1633 1.77839 12.4276 1.74034H12.4306Z" fill="#F4F1EC"/>
</g>
<defs>
<clipPath id="clip0_517_30173">
<rect width="134" height="20" fill="white"/>
</clipPath>
</defs>
</svg>
