<svg width="20" height="20" viewBox="0 0 20 20" fill="none" xmlns="http://www.w3.org/2000/svg">
<path d="M6.66699 10.917C7.0868 10.9171 7.48928 11.084 7.78613 11.3809C8.08285 11.6777 8.24991 12.0803 8.25 12.5V15.834C8.2498 16.2536 8.08289 16.6564 7.78613 16.9531C7.4893 17.2498 7.0867 17.4169 6.66699 17.417H3.33301C2.9133 17.4169 2.5107 17.2498 2.21387 16.9531C1.91711 16.6564 1.7502 16.2536 1.75 15.834V12.5C1.75009 12.0803 1.91714 11.6777 2.21387 11.3809C2.51072 11.084 2.9132 10.9171 3.33301 10.917H6.66699ZM15 15.083C15.4139 15.0832 15.7498 15.4191 15.75 15.833C15.75 16.2471 15.4141 16.5828 15 16.583H10.833C10.4189 16.5829 10.083 16.2472 10.083 15.833C10.0832 15.419 10.419 15.0831 10.833 15.083H15ZM3.33301 12.417C3.31102 12.4171 3.28997 12.4259 3.27441 12.4414C3.259 12.4569 3.25009 12.4781 3.25 12.5V15.834C3.2502 15.8558 3.25896 15.8771 3.27441 15.8926C3.28994 15.908 3.31112 15.9169 3.33301 15.917H6.66699C6.68888 15.9169 6.71006 15.908 6.72559 15.8926C6.74104 15.8771 6.7498 15.8558 6.75 15.834V12.5C6.74991 12.4781 6.741 12.4569 6.72559 12.4414C6.71003 12.4259 6.68897 12.4171 6.66699 12.417H3.33301ZM17.5 11.75C17.9141 11.7502 18.25 12.0859 18.25 12.5C18.25 12.9141 17.9141 13.2498 17.5 13.25H10.833C10.4189 13.2499 10.083 12.9142 10.083 12.5C10.083 12.0858 10.4189 11.7501 10.833 11.75H17.5ZM6.66699 2.58301C7.0867 2.58309 7.4893 2.75015 7.78613 3.04688C8.08289 3.34363 8.2498 3.74636 8.25 4.16602V7.5C8.24991 7.91971 8.08285 8.32231 7.78613 8.61914C7.48928 8.916 7.0868 9.08292 6.66699 9.08301H3.33301C2.9132 9.08292 2.51072 8.916 2.21387 8.61914C1.91714 8.32231 1.75009 7.91971 1.75 7.5V4.16602C1.7502 3.74636 1.91711 3.34363 2.21387 3.04688C2.5107 2.75015 2.9133 2.58309 3.33301 2.58301H6.66699ZM15 6.75C15.4141 6.75018 15.75 7.08589 15.75 7.5C15.75 7.91411 15.4141 8.24982 15 8.25H10.833C10.4189 8.24993 10.083 7.91417 10.083 7.5C10.083 7.08583 10.4189 6.75007 10.833 6.75H15ZM3.33301 4.08301C3.31112 4.08309 3.28994 4.092 3.27441 4.10742C3.25896 4.12287 3.2502 4.14419 3.25 4.16602V7.5C3.25009 7.52188 3.259 7.54306 3.27441 7.55859C3.28997 7.57414 3.31102 7.58292 3.33301 7.58301H6.66699C6.68897 7.58292 6.71003 7.57414 6.72559 7.55859C6.741 7.54306 6.74991 7.52188 6.75 7.5V4.16602C6.7498 4.14419 6.74104 4.12287 6.72559 4.10742C6.71006 4.092 6.68888 4.08309 6.66699 4.08301H3.33301ZM17.5 3.41699C17.9141 3.41717 18.25 3.75289 18.25 4.16699C18.2498 4.5809 17.9139 4.91682 17.5 4.91699H10.833C10.419 4.91693 10.0832 4.58097 10.083 4.16699C10.083 3.75282 10.4189 3.41706 10.833 3.41699H17.5Z" fill="#0B3A2A"/>
</svg>
