<svg width="20" height="20" viewBox="0 0 20 20" fill="none" xmlns="http://www.w3.org/2000/svg">
<path d="M7.49902 10.917C7.91883 10.9171 8.32131 11.084 8.61816 11.3809C8.91492 11.6777 9.08195 12.0803 9.08203 12.5V15.834C9.08183 16.2536 8.91492 16.6564 8.61816 16.9531C8.32133 17.2498 7.9187 17.4169 7.49902 17.417H4.16504C3.74535 17.4169 3.34271 17.2499 3.0459 16.9531C2.74914 16.6564 2.58223 16.2536 2.58203 15.834V12.5C2.58212 12.0803 2.74921 11.6777 3.0459 11.3809C3.34273 11.084 3.74527 10.9171 4.16504 10.917H7.49902ZM15.833 10.917C16.2528 10.9171 16.6553 11.084 16.9521 11.3809C17.2488 11.6777 17.4159 12.0803 17.416 12.5V15.834C17.4158 16.2536 17.2489 16.6564 16.9521 16.9531C16.6553 17.2499 16.2527 17.4169 15.833 17.417H12.499C12.0793 17.4169 11.6767 17.2498 11.3799 16.9531C11.0831 16.6564 10.9162 16.2536 10.916 15.834V12.5C10.9161 12.0803 11.0831 11.6777 11.3799 11.3809C11.6767 11.084 12.0792 10.9171 12.499 10.917H15.833ZM4.16504 12.417C4.1431 12.4171 4.12197 12.4259 4.10645 12.4414C4.09107 12.4569 4.08212 12.4781 4.08203 12.5V15.834C4.08223 15.8558 4.091 15.8771 4.10645 15.8926C4.12195 15.908 4.14317 15.9169 4.16504 15.917H7.49902C7.52088 15.9169 7.54209 15.908 7.55762 15.8926C7.57307 15.8771 7.58183 15.8558 7.58203 15.834V12.5C7.58195 12.4781 7.57307 12.4569 7.55762 12.4414C7.54207 12.4259 7.52101 12.4171 7.49902 12.417H4.16504ZM12.499 12.417C12.477 12.4171 12.456 12.4259 12.4404 12.4414C12.425 12.4569 12.4161 12.4781 12.416 12.5V15.834C12.4162 15.8558 12.425 15.8771 12.4404 15.8926C12.456 15.908 12.4772 15.9169 12.499 15.917H15.833C15.8549 15.9169 15.8761 15.908 15.8916 15.8926C15.9071 15.8771 15.9158 15.8558 15.916 15.834V12.5C15.9159 12.4781 15.907 12.4569 15.8916 12.4414C15.8761 12.4259 15.8549 12.4171 15.833 12.417H12.499ZM7.49902 2.58301C7.9187 2.58309 8.32134 2.75019 8.61816 3.04688C8.91492 3.34363 9.08183 3.74636 9.08203 4.16602V7.5C9.08195 7.91974 8.91492 8.3223 8.61816 8.61914C8.32131 8.916 7.91883 9.08292 7.49902 9.08301H4.16504C3.74527 9.08289 3.34273 8.91597 3.0459 8.61914C2.74921 8.32231 2.58212 7.91968 2.58203 7.5V4.16602C2.58223 3.74636 2.74914 3.34363 3.0459 3.04688C3.34271 2.75014 3.74535 2.58313 4.16504 2.58301H7.49902ZM15.833 2.58301C16.2527 2.58313 16.6553 2.75014 16.9521 3.04688C17.2489 3.34363 17.4158 3.74636 17.416 4.16602V7.5C17.4159 7.91968 17.2488 8.32231 16.9521 8.61914C16.6553 8.91597 16.2528 9.08289 15.833 9.08301H12.499C12.0792 9.08292 11.6767 8.916 11.3799 8.61914C11.0831 8.3223 10.9161 7.91974 10.916 7.5V4.16602C10.9162 3.74636 11.0831 3.34363 11.3799 3.04688C11.6767 2.75019 12.0793 2.58309 12.499 2.58301H15.833ZM4.16504 4.08301C4.14317 4.08312 4.12195 4.09199 4.10645 4.10742C4.09099 4.12287 4.08223 4.14419 4.08203 4.16602V7.5C4.08212 7.52185 4.09107 7.54307 4.10645 7.55859C4.12197 7.57412 4.1431 7.58289 4.16504 7.58301H7.49902C7.52101 7.58292 7.54207 7.57415 7.55762 7.55859C7.57307 7.54306 7.58195 7.52191 7.58203 7.5V4.16602C7.58183 4.14419 7.57307 4.12287 7.55762 4.10742C7.54209 4.09204 7.52088 4.08309 7.49902 4.08301H4.16504ZM12.499 4.08301C12.4772 4.08309 12.456 4.09204 12.4404 4.10742C12.425 4.12287 12.4162 4.14419 12.416 4.16602V7.5C12.4161 7.52191 12.425 7.54306 12.4404 7.55859C12.456 7.57414 12.477 7.58292 12.499 7.58301H15.833C15.8549 7.58289 15.8761 7.57412 15.8916 7.55859C15.907 7.54307 15.9159 7.52185 15.916 7.5V4.16602C15.9158 4.14419 15.9071 4.12287 15.8916 4.10742C15.8761 4.09199 15.8549 4.08312 15.833 4.08301H12.499Z" fill="#0B3A2A"/>
</svg>
