<svg width="98" height="14" viewBox="0 0 98 14" fill="none" xmlns="http://www.w3.org/2000/svg">
<path d="M15.8117 10.882L16.539 8.3279H16.5588L17.2324 10.882H15.8089H15.8117ZM12.6392 13.8432H14.9683L15.3051 12.6587H17.6965L18.0135 13.8432H20.4162L17.6767 5.552H15.4098L12.6392 13.8432Z" fill="black"/>
<path d="M20.9314 13.8432H23.2492V10.6856H26.252V8.70961H23.2492V7.67671H26.7472V5.552H20.9314V13.8432Z" fill="black"/>
<path d="M29.8884 5.552H27.5706V13.8432H29.8884V5.552Z" fill="black"/>
<path d="M2.79046 8.02759V0.000244141H0C0.0594317 3.53957 0.147169 7.05083 2.79046 8.02759Z" fill="#2AABEE"/>
<path d="M12.8343 0.00280951H10.0439C9.85991 2.49522 10.4146 5.72019 9.76653 7.75228C8.64299 5.63598 7.79113 3.25304 7.81377 0.00280951H5.02331C5.07142 2.07701 5.32613 3.94631 5.86101 5.53774C3.34224 6.72781 3.07905 10.1577 3.07056 13.8402H5.86101C6.04497 11.2551 5.49028 7.93752 6.1412 5.8128C7.22512 8.05821 8.12225 10.4917 8.09395 13.8402H10.8844C10.8872 11.8081 10.5335 10.1324 10.0467 8.5803C12.0929 6.82888 13.0636 4.00806 12.8372 0L12.8343 0.00280951Z" fill="#2AABEE"/>
<path d="M33.7603 5.56262C34.8386 5.5935 35.6536 5.94712 36.1999 6.62356C36.7461 7.29999 37.0206 8.32448 37.0206 9.69979C37.0206 11.0751 36.7461 12.1024 36.1999 12.776C35.6536 13.4524 34.8414 13.8061 33.7603 13.837H31.3066V5.55981H33.7603V5.56262ZM33.4207 13.1661C33.9301 13.1661 34.3688 13.1016 34.7367 12.9753C35.1046 12.849 35.4074 12.6441 35.6452 12.3662C35.8829 12.0884 36.0583 11.7291 36.1715 11.2884C36.2848 10.8477 36.3414 10.3201 36.3414 9.69979C36.3414 9.0795 36.2848 8.55182 36.1715 8.11115C36.0583 7.67049 35.8829 7.31124 35.6452 7.03337C35.4074 6.7555 35.1046 6.5534 34.7367 6.42429C34.3688 6.29798 33.9301 6.23341 33.4207 6.23341H31.9802V13.1661H33.4207Z" fill="black"/>
<path d="M42.5844 5.56274V6.23634H38.3619V9.22555H42.3156V9.89918H38.3619V13.1691H42.6325V13.8427H37.6855V5.56552H42.5844V5.56274Z" fill="black"/>
<path d="M43.9006 5.56274L46.2043 12.9698H46.2241L48.508 5.56274H49.224L46.592 13.8399H45.8081L43.1846 5.56274H43.9006Z" fill="black"/>
<path d="M54.5698 5.56274V6.23634H50.3473V9.22555H54.3009V9.89918H50.3473V13.1691H54.6179V13.8427H49.6709V5.56552H54.5698V5.56274Z" fill="black"/>
<path d="M55.6935 5.56274V13.1663H59.6669V13.8399H55.0171V5.56274H55.6935Z" fill="black"/>
<path d="M59.3896 8.06581C59.5283 7.54937 59.7377 7.08906 60.0151 6.6933C60.2924 6.29474 60.6433 5.97757 61.0622 5.7418C61.4839 5.50604 61.9706 5.38818 62.5282 5.38818C63.0857 5.38818 63.5725 5.50604 63.9885 5.7418C64.4045 5.97757 64.7526 6.29474 65.0328 6.6933C65.3101 7.09186 65.5196 7.54937 65.6582 8.06581C65.7969 8.58226 65.8677 9.1296 65.8677 9.69937C65.8677 10.2691 65.7969 10.8164 65.6582 11.3329C65.5196 11.8493 65.3101 12.3068 65.0328 12.6998C64.7554 13.0927 64.4073 13.4099 63.9885 13.6457C63.5725 13.8814 63.0857 13.9993 62.5282 13.9993C61.9706 13.9993 61.4839 13.8814 61.0622 13.6457C60.6405 13.4099 60.2924 13.0955 60.0151 12.6998C59.7377 12.3068 59.5283 11.8493 59.3896 11.3329C59.2509 10.8164 59.1802 10.2691 59.1802 9.69937C59.1802 9.1296 59.2509 8.58226 59.3896 8.06581ZM60.0094 11.027C60.1113 11.4648 60.2698 11.8549 60.4849 12.1974C60.6999 12.5426 60.9773 12.8177 61.3141 13.0254C61.6508 13.2331 62.0555 13.3369 62.5253 13.3369C62.9951 13.3369 63.397 13.2331 63.7309 13.0254C64.0649 12.8177 64.3394 12.5398 64.5545 12.1974C64.7696 11.8549 64.9281 11.462 65.03 11.027C65.1318 10.5919 65.1828 10.1485 65.1828 9.69937C65.1828 9.25029 65.1318 8.7984 65.03 8.36616C64.9281 7.93392 64.7696 7.54658 64.5545 7.20134C64.3394 6.85892 64.0649 6.58103 63.7309 6.37333C63.397 6.16563 62.9951 6.06178 62.5253 6.06178C62.0555 6.06178 61.6508 6.16563 61.3141 6.37333C60.9773 6.58103 60.6999 6.85892 60.4849 7.20134C60.2698 7.54658 60.1113 7.93392 60.0094 8.36616C59.9075 8.7984 59.8566 9.24467 59.8566 9.69937C59.8566 10.1541 59.9075 10.5891 60.0094 11.027Z" fill="black"/>
<path d="M69.6489 5.56262C69.9659 5.56262 70.2545 5.61593 70.5121 5.71978C70.7696 5.82364 70.9932 5.97801 71.1771 6.18291C71.3611 6.3878 71.5054 6.63761 71.6045 6.92952C71.7035 7.22423 71.7545 7.55541 71.7545 7.9259C71.7545 8.29639 71.7035 8.63041 71.6045 8.92231C71.5054 9.21702 71.3639 9.46403 71.1771 9.66892C70.9904 9.87382 70.7696 10.0282 70.5121 10.132C70.2545 10.2359 69.9659 10.2892 69.6489 10.2892H67.1754V13.837H66.499V5.55981H69.6489V5.56262ZM69.4989 9.61839C69.9687 9.61839 70.3507 9.47805 70.6422 9.20018C70.9337 8.92231 71.0781 8.49848 71.0781 7.9259C71.0781 7.35332 70.9337 6.92952 70.6422 6.65165C70.3507 6.37378 69.9687 6.23341 69.4989 6.23341H67.1754V9.61839H69.4989Z" fill="black"/>
<path d="M73.551 5.56274L76.0047 12.8182L78.4498 5.56274H79.4432V13.8399H78.7668V6.68823H78.747L76.3245 13.8399H75.6877L73.2538 6.68823H73.234V13.8399H72.5576V5.56274H73.551Z" fill="black"/>
<path d="M85.7006 5.56274V6.23634H81.4782V9.22555H85.4318V9.89918H81.4782V13.1691H85.7487V13.8427H80.8018V5.56552H85.7006V5.56274Z" fill="black"/>
<path d="M87.0935 5.56274L91.2254 12.5628H91.2452V5.56274H91.9216V13.8399H91.166L87.0341 6.8398H87.0143V13.8399H86.3379V5.56274H87.0935Z" fill="black"/>
<path d="M98.0006 5.56274V6.23634H95.5271V13.8399H94.8507V6.23634H92.3857V5.56274H97.9978H98.0006Z" fill="black"/>
</svg>
