<svg width="224" height="32" viewBox="0 0 224 32" fill="none" xmlns="http://www.w3.org/2000/svg">
<path d="M36.1409 24.8731L37.8033 19.035H37.8486L39.3882 24.8731H36.1344H36.1409ZM28.8894 31.6414H34.2132L34.983 28.9341H40.4491L41.1736 31.6414H46.6656L40.4038 12.6901H35.2223L28.8894 31.6414Z" fill="white"/>
<path d="M47.8433 31.6414H53.1412V24.424H60.0045V19.9075H53.1412V17.5466H61.1366V12.6901H47.8433V31.6414Z" fill="white"/>
<path d="M68.3162 12.6901H63.0183V31.6414H68.3162V12.6901Z" fill="white"/>
<path d="M6.3782 18.3483V9.15527e-05H0C0.135844 8.08999 0.336385 16.1157 6.3782 18.3483Z" fill="#2AABEE"/>
<path d="M29.3355 0.00642173H22.9573C22.5368 5.70335 23.8047 13.0747 22.3234 17.7195C19.7553 12.8822 17.8082 7.43553 17.86 0.00642173H11.4817C11.5917 4.74745 12.1739 9.02013 13.3965 12.6577C7.6393 15.3779 7.03772 23.2176 7.01831 31.6347H13.3965C13.817 25.726 12.5491 18.1429 14.0369 13.2864C16.5144 18.4188 18.565 23.981 18.5004 31.6347H24.8785C24.885 26.9899 24.0764 23.1599 22.9638 19.6121C27.6407 15.6089 29.8595 9.16128 29.342 0L29.3355 0.00642173Z" fill="#2AABEE"/>
<path d="M77.1665 12.7146C79.6311 12.7852 81.4941 13.5935 82.7426 15.1396C83.9911 16.6858 84.6185 19.0274 84.6185 22.171C84.6185 25.3146 83.9911 27.6626 82.7426 29.2023C81.4941 30.7485 79.6376 31.5568 77.1665 31.6274H71.5581V12.7082H77.1665V12.7146ZM76.3903 30.0941C77.5546 30.0941 78.5573 29.9465 79.3982 29.6578C80.2392 29.3691 80.9313 28.9008 81.4747 28.2657C82.0181 27.6306 82.4191 26.8093 82.6779 25.8021C82.9366 24.7949 83.066 23.5888 83.066 22.171C83.066 20.7532 82.9366 19.5471 82.6779 18.5399C82.4191 17.5326 82.0181 16.7115 81.4747 16.0763C80.9313 15.4412 80.2392 14.9793 79.3982 14.6842C78.5573 14.3955 77.5546 14.2479 76.3903 14.2479H73.0977V30.0941H76.3903Z" fill="white"/>
<path d="M97.3358 12.7149V14.2546H87.6844V21.087H96.7213V22.6268H87.6844V30.1008H97.4458V31.6405H86.1384V12.7213H97.3358V12.7149Z" fill="white"/>
<path d="M100.344 12.7149L105.61 29.6452H105.655L110.875 12.7149H112.512L106.496 31.6341H104.704L98.7075 12.7149H100.344Z" fill="white"/>
<path d="M124.731 12.7149V14.2546H115.079V21.087H124.116V22.6268H115.079V30.1008H124.841V31.6405H113.533V12.7213H124.731V12.7149Z" fill="white"/>
<path d="M127.299 12.7149V30.0944H136.382V31.6341H125.753V12.7149H127.299Z" fill="white"/>
<path d="M135.748 18.4361C136.065 17.2556 136.543 16.2035 137.177 15.2989C137.811 14.3879 138.613 13.663 139.571 13.1241C140.535 12.5852 141.647 12.3158 142.922 12.3158C144.196 12.3158 145.309 12.5852 146.259 13.1241C147.21 13.663 148.006 14.3879 148.646 15.2989C149.28 16.2099 149.759 17.2556 150.076 18.4361C150.393 19.6165 150.555 20.8676 150.555 22.1699C150.555 23.4723 150.393 24.7232 150.076 25.9037C149.759 27.0841 149.28 28.1298 148.646 29.028C148.012 29.9262 147.217 30.6511 146.259 31.19C145.309 31.7289 144.196 31.9984 142.922 31.9984C141.647 31.9984 140.535 31.7289 139.571 31.19C138.607 30.6511 137.811 29.9326 137.177 29.028C136.543 28.1298 136.065 27.0841 135.748 25.9037C135.431 24.7232 135.269 23.4723 135.269 22.1699C135.269 20.8676 135.431 19.6165 135.748 18.4361ZM137.164 25.2044C137.397 26.2052 137.76 27.0969 138.251 27.8796C138.743 28.6687 139.377 29.2975 140.147 29.7722C140.916 30.247 141.841 30.4843 142.915 30.4843C143.989 30.4843 144.908 30.247 145.671 29.7722C146.434 29.2975 147.062 28.6623 147.553 27.8796C148.045 27.0969 148.407 26.1988 148.64 25.2044C148.873 24.21 148.989 23.1964 148.989 22.1699C148.989 21.1434 148.873 20.1106 148.64 19.1226C148.407 18.1346 148.045 17.2492 147.553 16.4601C147.062 15.6775 146.434 15.0423 145.671 14.5675C144.908 14.0928 143.989 13.8554 142.915 13.8554C141.841 13.8554 140.916 14.0928 140.147 14.5675C139.377 15.0423 138.743 15.6775 138.251 16.4601C137.76 17.2492 137.397 18.1346 137.164 19.1226C136.932 20.1106 136.815 21.1306 136.815 22.1699C136.815 23.2092 136.932 24.2036 137.164 25.2044Z" fill="white"/>
<path d="M159.197 12.7146C159.922 12.7146 160.582 12.8365 161.17 13.0739C161.759 13.3112 162.27 13.6641 162.691 14.1324C163.111 14.6008 163.441 15.1718 163.667 15.839C163.894 16.5126 164.01 17.2696 164.01 18.1164C164.01 18.9632 163.894 19.7267 163.667 20.3939C163.441 21.0676 163.118 21.6321 162.691 22.1005C162.264 22.5688 161.759 22.9216 161.17 23.159C160.582 23.3963 159.922 23.5183 159.197 23.5183H153.544V31.6274H151.998V12.7082H159.197V12.7146ZM158.855 21.985C159.928 21.985 160.802 21.6642 161.468 21.0291C162.134 20.3939 162.464 19.4252 162.464 18.1164C162.464 16.8077 162.134 15.839 161.468 15.2038C160.802 14.5687 159.928 14.2479 158.855 14.2479H153.544V21.985H158.855Z" fill="white"/>
<path d="M168.116 12.7149L173.725 29.2989L179.314 12.7149H181.584V31.6341H180.038V15.2874H179.993L174.456 31.6341H173L167.437 15.2874H167.392V31.6341H165.846V12.7149H168.116Z" fill="white"/>
<path d="M195.887 12.7149V14.2546H186.236V21.087H195.273V22.6268H186.236V30.1008H195.997V31.6405H184.69V12.7213H195.887V12.7149Z" fill="white"/>
<path d="M199.071 12.7149L208.515 28.715H208.561V12.7149H210.107V31.6341H208.379L198.935 15.6339H198.89V31.6341H197.344V12.7149H199.071Z" fill="white"/>
<path d="M224.002 12.7149V14.2546H218.348V31.6341H216.802V14.2546H211.167V12.7149H223.995H224.002Z" fill="white"/>
</svg>
